SplineFontDB: 3.0
FontName: Figurato
FullName: Figurato
FamilyName: Figurato
Weight: Standard
Copyright: Copyright 2018 Florian Kretlow
Version: 0.3.0.35
ItalicAngle: 0
UnderlinePosition: -200
UnderlineWidth: 100
Ascent: 700
Descent: 300
InvalidEm: 0
LayerCount: 4
Layer: 0 0 "Back" 1
Layer: 1 0 "Zeichenebene" 0
Layer: 2 0 "Struktur" 0
Layer: 3 0 "Struktur 2" 0
XUID: [1021 864 31587 12318]
FSType: 0
OS2Version: 0
OS2_WeightWidthSlopeOnly: 0
OS2_UseTypoMetrics: 1
CreationTime: 1324930714
ModificationTime: 1536499817
PfmFamily: 17
TTFWeight: 400
TTFWidth: 5
LineGap: 180
VLineGap: 0
OS2TypoAscent: 0
OS2TypoAOffset: 1
OS2TypoDescent: 0
OS2TypoDOffset: 1
OS2TypoLinegap: 180
OS2WinAscent: 0
OS2WinAOffset: 1
OS2WinDescent: 0
OS2WinDOffset: 1
HheadAscent: 0
HheadAOffset: 1
HheadDescent: 0
HheadDOffset: 1
OS2Vendor: 'PfEd'
Lookup: 4 0 1 "LIGA_figures" { "LIGA_figures subtable"  } ['liga' ('latn' <'dflt' > 'DFLT' <'dflt' > ) ]
Lookup: 4 0 1 "LIGA_italicFigures" { "LIGA_italicFigures subtable"  } ['liga' ('latn' <'dflt' > 'DFLT' <'dflt' > ) ]
Lookup: 4 0 1 "LIGA_slashedFigures" { "LIGA_slashedFigures subtable"  } ['liga' ('latn' <'dflt' > 'DFLT' <'dflt' > ) ]
Lookup: 4 0 1 "LIGA_accidentals" { "LIGA_accidentals subtable"  } ['liga' ('latn' <'dflt' > 'DFLT' <'dflt' > ) ]
Lookup: 4 0 1 "LIGA_parenthesizedAccidentals" { "LIGA_parenthesizedAccidentals subtable"  } ['liga' ('latn' <'dflt' > 'DFLT' <'dflt' > ) ]
Lookup: 2 0 0 "addSepRight" { "addSepRight subtable"  } []

StartChar: zero
Encoding: 48 48 0
Width: 0
VWidth: 0
Flags: HMW
LayerCount: 4
Back
SplineSet
44 280 m 0
 44 452 127 570 250 570 c 0
 373 570 456 452 456 280 c 0
 456 108 373 -8 250 -8 c 0
 127 -8 44 108 44 280 c 0
250 526 m 3
 178 526 148 442 148 300 c 2
 148 256 l 2
 148 114 178 36 250 36 c 3
 322 36 350 114 350 256 c 2
 350 300 l 2
 350 442 322 526 250 526 c 3
EndSplineSet
Fore
SplineSet
44 280 m 0
 44 442 132 570 250 570 c 0
 368 570 456 442 456 280 c 0
 456 118 368 -8 250 -8 c 0
 132 -8 44 118 44 280 c 0
250 526 m 3
 178 526 150 422 150 300 c 2
 150 256 l 2
 150 134 178 36 250 36 c 3
 322 36 348 134 348 256 c 2
 348 300 l 2
 348 422 322 526 250 526 c 3
EndSplineSet
Validated: 1
Position2: "forward2 subtable" dx=1000 dy=0 dh=0 dv=0
Position2: "forward1 subtable" dx=500 dy=0 dh=0 dv=0
Position2: "back2 subtable" dx=-1000 dy=0 dh=0 dv=0
Position2: "back1 subtable" dx=-500 dy=0 dh=0 dv=0
Position2: "up1 subtable" dx=0 dy=200 dh=0 dv=0
Position2: "nudgeDown1 subtable" dx=0 dy=-100 dh=0 dv=0
Position2: "layer5 subtable" dx=0 dy=-2920 dh=0 dv=0
Position2: "layer4 subtable" dx=0 dy=-2190 dh=0 dv=0
Position2: "layer3 subtable" dx=0 dy=-1460 dh=0 dv=0
Position2: "layer2 subtable" dx=0 dy=-730 dh=0 dv=0
MultipleSubs2: "addSepRight subtable" zero sep
EndChar

StartChar: one
Encoding: 49 49 1
Width: 0
VWidth: 0
Flags: HMW
LayerCount: 4
Back
SplineSet
314 80 m 2
 314 54 323 44 346 44 c 2
 386 44 l 2
 390 44 393 31 393 23 c 3
 393 12 390 0 384 0 c 2
 134 0 l 2
 128 0 123 12 123 24 c 3
 123 32 126 44 132 44 c 2
 182 44 l 2
 212 44 222 56 222 82 c 2
 222 406 l 2
 222 450 203 455 135 455 c 3
 130 455 125 465 125 478 c 0
 125 488 130 496 134 496 c 0
 188 496 253 501 276 569 c 0
 277 572 285 576 295 576 c 0
 306 576 313 573 313 568 c 2
 314 80 l 2
EndSplineSet
Fore
SplineSet
315 112 m 2
 315 60 352 42 388 42 c 2
 414 42 l 17
 414 0 l 9
 118 0 l 17
 118 42 l 9
 154 42 l 2
 190 42 223 64 223 114 c 2
 223 438 l 2
 223 452 217 460 203 460 c 0
 197 460 189 458 177 454 c 2
 117 430 l 1
 97 464 l 9
 245 562 l 17
 315 562 l 9
 315 112 l 2
EndSplineSet
Validated: 1
Position2: "forward2 subtable" dx=1000 dy=0 dh=0 dv=0
Position2: "forward1 subtable" dx=500 dy=0 dh=0 dv=0
Position2: "back2 subtable" dx=-1000 dy=0 dh=0 dv=0
Position2: "back1 subtable" dx=-500 dy=0 dh=0 dv=0
Position2: "up1 subtable" dx=0 dy=200 dh=0 dv=0
Position2: "nudgeDown1 subtable" dx=0 dy=-100 dh=0 dv=0
Position2: "layer5 subtable" dx=0 dy=-2920 dh=0 dv=0
Position2: "layer4 subtable" dx=0 dy=-2190 dh=0 dv=0
Position2: "layer3 subtable" dx=0 dy=-1460 dh=0 dv=0
Position2: "layer2 subtable" dx=0 dy=-730 dh=0 dv=0
MultipleSubs2: "addSepRight subtable" one sep
EndChar

StartChar: two
Encoding: 50 50 2
Width: 0
VWidth: 0
Flags: HMW
LayerCount: 4
Back
SplineSet
462 158 m 5
 462 72 426 -8 346 -8 c 4
 274 -8 218 56 158 56 c 4
 120 56 104 36 90 0 c 5
 50 0 l 5
 58 84 142 190 214 236 c 4
 318 308 348 358 348 418 c 4
 348 492 310 526 254 526 c 4
 198 526 164 500 164 472 c 4
 164 448 194 440 194 396 c 4
 194 366 172 342 136 342 c 4
 96 342 70 370 70 414 c 4
 70 480 142 570 266 570 c 4
 374 570 462 506 462 414 c 4
 462 318 382 280 306 238 c 4
 286 226 202 180 156 110 c 5
 246 110 264 90 338 90 c 4
 388 90 412 114 426 164 c 5
 462 158 l 5
EndSplineSet
Fore
SplineSet
467 158 m 1
 467 72 431 -8 351 -8 c 0
 279 -8 223 56 163 56 c 0
 125 56 109 36 95 0 c 1
 55 0 l 1
 63 84 149 182 219 230 c 0
 320 306 348 358 348 418 c 0
 348 492 310 526 254 526 c 0
 198 526 163 497 163 470 c 0
 163 447 192 439 192 396 c 0
 192 367 171 344 136 344 c 0
 97 344 72 370 72 413 c 0
 72 477 142 570 266 570 c 0
 374 570 462 506 462 414 c 0
 462 318 385 280 311 235 c 0
 291 222 207 180 161 110 c 1
 251 110 269 90 343 90 c 0
 393 90 417 114 431 164 c 1
 467 158 l 1
EndSplineSet
Validated: 1
Position2: "forward2 subtable" dx=1000 dy=0 dh=0 dv=0
Position2: "forward1 subtable" dx=500 dy=0 dh=0 dv=0
Position2: "back2 subtable" dx=-1000 dy=0 dh=0 dv=0
Position2: "back1 subtable" dx=-500 dy=0 dh=0 dv=0
Position2: "up1 subtable" dx=0 dy=200 dh=0 dv=0
Position2: "nudgeDown1 subtable" dx=0 dy=-100 dh=0 dv=0
Position2: "layer5 subtable" dx=0 dy=-2920 dh=0 dv=0
Position2: "layer4 subtable" dx=0 dy=-2190 dh=0 dv=0
Position2: "layer3 subtable" dx=0 dy=-1460 dh=0 dv=0
Position2: "layer2 subtable" dx=0 dy=-730 dh=0 dv=0
MultipleSubs2: "addSepRight subtable" two sep
EndChar

StartChar: three
Encoding: 51 51 3
Width: 0
VWidth: 0
Flags: HMW
LayerCount: 4
Back
SplineSet
175 149 m 4
 175 116 153 106 153 79 c 4
 153 54 185 34 232 34 c 4
 296 34 344 79 344 152 c 4
 344 219 301 274 193 276 c 4
 188 276 184 284 184 293 c 4
 184 302 188 312 194 312 c 4
 289 315 334 363 334 427 c 4
 334 495 289 528 238 528 c 4
 189 528 167 503 167 486 c 4
 167 463 199 461 199 417 c 4
 199 390 180 365 144 365 c 4
 115 365 84 390 84 434 c 4
 84 496 153 570 259 570 c 4
 364 570 435 505 435 428 c 4
 435 368 406 332 344 305 c 4
 336 302 330 300 330 295 c 4
 330 289 332 289 340 286 c 4
 413 259 452 209 452 146 c 4
 452 53 371 -8 239 -8 c 4
 121 -8 47 66 47 130 c 4
 47 174 77 207 118 207 c 4
 149 207 175 185 175 149 c 4
EndSplineSet
Fore
SplineSet
170 151 m 0
 170 120 149 110 149 84 c 0
 149 54 185 34 232 34 c 0
 296 34 344 79 344 152 c 0
 344 219 301 276 187 276 c 1
 187 312 l 1
 291 314 334 363 334 427 c 0
 334 495 289 528 238 528 c 0
 189 528 167 503 167 486 c 0
 167 463 199 461 199 417 c 0
 199 390 180 365 144 365 c 0
 115 365 84 390 84 434 c 0
 84 496 153 570 259 570 c 0
 364 570 435 505 435 428 c 0
 435 350 381 319 331 300 c 1
 331 289 l 1
 398 267 452 221 452 146 c 0
 452 53 371 -8 239 -8 c 0
 121 -8 49 67 49 133 c 0
 49 175 77 206 116 206 c 0
 145 206 170 185 170 151 c 0
EndSplineSet
Validated: 1
Layer: 2
SplineSet
175 149 m 4
 175 116 153 106 153 79 c 4
 153 54 185 34 232 34 c 4
 296 34 344 79 344 152 c 4
 344 219 301 276 187 276 c 5
 187 312 l 5
 291 314 334 363 334 427 c 4
 334 495 289 528 238 528 c 4
 189 528 167 503 167 486 c 4
 167 463 199 461 199 417 c 4
 199 390 180 365 144 365 c 4
 115 365 84 390 84 434 c 4
 84 496 153 570 259 570 c 4
 364 570 435 505 435 428 c 4
 435 350 381 319 331 300 c 5
 331 289 l 5
 398 267 452 221 452 146 c 4
 452 53 371 -8 239 -8 c 4
 121 -8 47 66 47 130 c 4
 47 174 77 207 118 207 c 4
 149 207 175 185 175 149 c 4
EndSplineSet
Position2: "forward2 subtable" dx=1000 dy=0 dh=0 dv=0
Position2: "forward1 subtable" dx=500 dy=0 dh=0 dv=0
Position2: "back2 subtable" dx=-1000 dy=0 dh=0 dv=0
Position2: "back1 subtable" dx=-500 dy=0 dh=0 dv=0
Position2: "up1 subtable" dx=0 dy=200 dh=0 dv=0
Position2: "nudgeDown1 subtable" dx=0 dy=-100 dh=0 dv=0
Position2: "layer5 subtable" dx=0 dy=-2920 dh=0 dv=0
Position2: "layer4 subtable" dx=0 dy=-2190 dh=0 dv=0
Position2: "layer3 subtable" dx=0 dy=-1460 dh=0 dv=0
Position2: "layer2 subtable" dx=0 dy=-730 dh=0 dv=0
MultipleSubs2: "addSepRight subtable" three sep
EndChar

StartChar: four
Encoding: 52 52 4
Width: 0
VWidth: 0
Flags: HMW
LayerCount: 4
Back
SplineSet
380 80 m 2
 380 54 389 44 412 44 c 2
 452 44 l 2
 456 44 459 31 459 23 c 3
 459 12 456 0 450 0 c 2
 200 0 l 2
 194 0 189 12 189 24 c 3
 189 32 192 44 198 44 c 2
 248 44 l 2
 278 44 288 56 288 82 c 2
 288 156 l 2
 288 164 284 166 278 166 c 2
 29 166 l 1
 25 172 23 180 23 188 c 0
 23 194 24 201 26 206 c 1
 119 316 179 428 214 556 c 0
 215 561 216 563 220 563 c 0
 225 563 246 557 284 557 c 0
 326 557 348 564 352 564 c 0
 354 564 356 563 356 561 c 0
 356 560 349 547 346 542 c 0
 286 431 195 329 109 235 c 0
 104 229 102 225 102 221 c 0
 102 215 108 212 114 212 c 2
 274 212 l 2
 285 212 288 216 288 225 c 2
 288 318 l 2
 288 324 292 328 298 335 c 0
 324 359 344 380 369 410 c 0
 370 412 372 413 374 413 c 0
 377 413 380 409 380 403 c 2
 380 225 l 2
 380 214 384 212 392 212 c 2
 472 212 l 2
 477 212 482 197 482 189 c 0
 482 180 477 166 472 166 c 2
 395 166 l 2
 384 166 380 164 380 153 c 2
 380 80 l 2
EndSplineSet
Fore
SplineSet
378 166 m 1
 378 96 l 2
 378 52 414 40 453 40 c 1
 453 0 l 1
 201 0 l 1
 201 40 l 1
 221 40 l 2
 249 40 286 54 286 96 c 2
 286 166 l 1
 24 166 l 1
 24 206 l 1
 94 322 135 430 169 562 c 1
 302 562 l 1
 238 432 186 364 84 212 c 1
 286 212 l 1
 286 324 l 1
 378 422 l 1
 378 212 l 1
 470 212 l 1
 470 166 l 1
 378 166 l 1
EndSplineSet
Validated: 1
Position2: "forward2 subtable" dx=1000 dy=0 dh=0 dv=0
Position2: "forward1 subtable" dx=500 dy=0 dh=0 dv=0
Position2: "back2 subtable" dx=-1000 dy=0 dh=0 dv=0
Position2: "back1 subtable" dx=-500 dy=0 dh=0 dv=0
Position2: "up1 subtable" dx=0 dy=200 dh=0 dv=0
Position2: "nudgeDown1 subtable" dx=0 dy=-100 dh=0 dv=0
Position2: "layer5 subtable" dx=0 dy=-2920 dh=0 dv=0
Position2: "layer4 subtable" dx=0 dy=-2190 dh=0 dv=0
Position2: "layer3 subtable" dx=0 dy=-1460 dh=0 dv=0
Position2: "layer2 subtable" dx=0 dy=-730 dh=0 dv=0
MultipleSubs2: "addSepRight subtable" four sep
EndChar

StartChar: five
Encoding: 53 53 5
Width: 0
VWidth: 0
Flags: HMW
LayerCount: 4
Back
SplineSet
227 34 m 4
 299 34 346 94 346 186 c 4
 346 276 289 312 230 312 c 7
 189 312 158 300 126 272 c 0
 121 267 100 278 100 286 c 2
 104 553 l 2
 104 560 107 561 112 561 c 1
 166 556 210 552 256 552 c 0
 302 552 348 554 404 562 c 1
 412 562 416 554 414 548 c 1
 380 492 334 454 242 454 c 3
 213 454 188 457 157 461 c 0
 148 462 146 461 146 453 c 2
 143 336 l 2
 143 333 146 331 149 332 c 0
 177 346 209 358 253 358 c 4
 355 358 452 292 452 184 c 4
 452 71 360 -8 242 -8 c 4
 124 -8 50 66 50 130 c 4
 50 174 80 207 121 207 c 4
 152 207 178 185 178 149 c 4
 178 116 156 106 156 79 c 4
 156 54 180 34 227 34 c 4
EndSplineSet
Fore
SplineSet
253 358 m 0
 355 358 452 292 452 184 c 0
 452 71 360 -8 242 -8 c 0
 124 -8 51 67 51 131 c 0
 51 173 79 204 118 204 c 0
 147 204 172 183 172 149 c 0
 172 118 151 108 151 82 c 0
 151 55 178 34 227 34 c 0
 299 34 346 94 346 186 c 0
 346 276 289 312 230 312 c 3
 189 312 154 298 126 272 c 1
 100 286 l 9
 104 562 l 1
 162 556 208 552 256 552 c 0
 302 552 348 554 404 562 c 1
 414 548 l 1
 380 492 334 454 242 454 c 3
 210 454 182 458 146 462 c 9
 144 336 l 17
 150 333 l 17
 177 346 209 358 253 358 c 0
EndSplineSet
Validated: 1
Layer: 2
SplineSet
248 -8 m 4
 132 -8 56 70 56 132 c 4
 56 178 84 204 124 204 c 4
 164 204 186 176 186 138 c 4
 186 96 166 98 166 74 c 4
 166 58 184 36 232 36 c 4
 304 36 352 86 352 186 c 4
 352 276 308 310 236 312 c 4
 190 312 154 298 126 272 c 5
 100 286 l 13
 104 562 l 5
 162 556 208 552 256 552 c 4
 302 552 348 554 404 562 c 5
 414 548 l 5
 380 492 334 454 242 454 c 7
 210 454 182 458 146 462 c 13
 144 336 l 21
 174 348 196 360 254 360 c 4
 356 360 458 300 458 184 c 4
 458 68 366 -8 248 -8 c 4
EndSplineSet
Position2: "forward2 subtable" dx=1000 dy=0 dh=0 dv=0
Position2: "forward1 subtable" dx=500 dy=0 dh=0 dv=0
Position2: "back2 subtable" dx=-1000 dy=0 dh=0 dv=0
Position2: "back1 subtable" dx=-500 dy=0 dh=0 dv=0
Position2: "up1 subtable" dx=0 dy=200 dh=0 dv=0
Position2: "nudgeDown1 subtable" dx=0 dy=-100 dh=0 dv=0
Position2: "layer5 subtable" dx=0 dy=-2920 dh=0 dv=0
Position2: "layer4 subtable" dx=0 dy=-2190 dh=0 dv=0
Position2: "layer3 subtable" dx=0 dy=-1460 dh=0 dv=0
Position2: "layer2 subtable" dx=0 dy=-730 dh=0 dv=0
MultipleSubs2: "addSepRight subtable" five sep
EndChar

StartChar: six
Encoding: 54 54 6
Width: 0
VWidth: 0
Flags: HMW
LayerCount: 4
Back
SplineSet
367 380 m 4
 329 380 305 406 305 442 c 4
 305 467 315 478 315 494 c 4
 315 508 307 528 271 528 c 7
 172 528 142 396 142 271 c 5
 170 305 215 331 274 331 c 4
 381 331 452 257 452 169 c 4
 452 65 368 -8 258 -8 c 4
 108 -8 46 122 46 266 c 4
 46 461 161 570 271 570 c 7
 374 570 429 512 429 450 c 4
 429 413 407 380 367 380 c 4
258 285 m 4
 194 285 152 233 152 157 c 7
 152 79 186 36 246 36 c 4
 314 36 350 91 350 167 c 4
 350 239 320 285 258 285 c 4
EndSplineSet
Fore
SplineSet
364 398 m 0
 329 398 307 422 307 455 c 0
 307 470 313 484 313 499 c 0
 313 515 296 528 269 528 c 3
 159 528 143 396 143 276 c 1
 171 310 215 336 271 336 c 0
 381 336 453 260 453 172 c 0
 453 68 369 -8 259 -8 c 0
 109 -8 47 132 47 276 c 0
 47 466 157 570 267 570 c 3
 365 570 421 513 421 461 c 0
 421 426 401 398 364 398 c 0
259 290 m 0
 195 290 153 236 153 160 c 3
 153 82 187 36 247 36 c 0
 315 36 351 94 351 170 c 0
 351 242 321 290 259 290 c 0
EndSplineSet
Validated: 1
Layer: 2
SplineSet
361 392 m 4
 323 392 299 418 299 454 c 4
 299 470 305 486 305 502 c 4
 305 516 293 528 269 528 c 7
 159 528 143 396 143 276 c 5
 171 310 215 336 271 336 c 4
 381 336 453 260 453 172 c 4
 453 68 369 -8 259 -8 c 4
 109 -8 47 132 47 276 c 4
 47 466 157 570 267 570 c 7
 365 570 423 516 423 460 c 4
 423 422 401 392 361 392 c 4
259 290 m 4
 195 290 153 236 153 160 c 7
 153 82 187 36 247 36 c 4
 315 36 351 94 351 170 c 4
 351 242 321 290 259 290 c 4
EndSplineSet
Position2: "forward2 subtable" dx=1000 dy=0 dh=0 dv=0
Position2: "forward1 subtable" dx=500 dy=0 dh=0 dv=0
Position2: "back2 subtable" dx=-1000 dy=0 dh=0 dv=0
Position2: "back1 subtable" dx=-500 dy=0 dh=0 dv=0
Position2: "up1 subtable" dx=0 dy=200 dh=0 dv=0
Position2: "nudgeDown1 subtable" dx=0 dy=-100 dh=0 dv=0
Position2: "layer5 subtable" dx=0 dy=-2920 dh=0 dv=0
Position2: "layer4 subtable" dx=0 dy=-2190 dh=0 dv=0
Position2: "layer3 subtable" dx=0 dy=-1460 dh=0 dv=0
Position2: "layer2 subtable" dx=0 dy=-730 dh=0 dv=0
MultipleSubs2: "addSepRight subtable" six sep
EndChar

StartChar: seven
Encoding: 55 55 7
Width: 0
VWidth: 0
Flags: HMW
LayerCount: 4
Back
SplineSet
104 560 m 3
 104 538 106 526 120 526 c 3
 138 526 160 570 218 570 c 0
 288 570 298 516 348 516 c 0
 376 516 395 534 404 557 c 0
 405 561 412 563 423 563 c 0
 434 563 444 558 444 554 c 2
 444 553 l 1
 402 372 294 247 280 70 c 0
 276 16 246 -6 216 -6 c 0
 186 -6 156 18 156 60 c 0
 156 169 278 293 367 444 c 0
 368 445 368 446 368 447 c 0
 368 448 368 449 366 449 c 0
 365 449 364 448 363 448 c 0
 349 446 336 445 324 445 c 0
 255 445 213 476 168 476 c 3
 138 476 105 468 91 353 c 0
 90 349 81 347 72 347 c 3
 63 347 54 351 54 354 c 10
 66 562 l 2
 66 564 79 565 86 565 c 0
 91 565 104 562 104 560 c 3
EndSplineSet
Fore
SplineSet
106 562 m 5
 106 538 106 526 120 526 c 7
 138 526 160 570 218 570 c 4
 288 570 298 516 346 516 c 4
 374 516 394 536 402 562 c 5
 446 562 l 5
 406 376 294 250 280 70 c 4
 276 16 246 -6 216 -6 c 4
 186 -6 156 18 156 60 c 4
 156 170 274 284 364 438 c 5
 320 444 220 476 178 476 c 7
 148 476 106 468 92 348 c 5
 54 348 l 5
 66 562 l 5
 106 562 l 5
EndSplineSet
Validated: 1
Position2: "forward2 subtable" dx=1000 dy=0 dh=0 dv=0
Position2: "forward1 subtable" dx=500 dy=0 dh=0 dv=0
Position2: "back2 subtable" dx=-1000 dy=0 dh=0 dv=0
Position2: "back1 subtable" dx=-500 dy=0 dh=0 dv=0
Position2: "up1 subtable" dx=0 dy=200 dh=0 dv=0
Position2: "nudgeDown1 subtable" dx=0 dy=-100 dh=0 dv=0
Position2: "layer5 subtable" dx=0 dy=-2920 dh=0 dv=0
Position2: "layer4 subtable" dx=0 dy=-2190 dh=0 dv=0
Position2: "layer3 subtable" dx=0 dy=-1460 dh=0 dv=0
Position2: "layer2 subtable" dx=0 dy=-730 dh=0 dv=0
MultipleSubs2: "addSepRight subtable" seven sep
EndChar

StartChar: eight
Encoding: 56 56 8
Width: 0
VWidth: 3220
Flags: HMW
LayerCount: 4
Back
SplineSet
144 450 m 4xd8
 144 390 222 352 292 320 c 5
 348 350 366 392 366 428 c 4
 366 482 322 522 254 522 c 4
 192 522 144 494 144 450 c 4xd8
372 122 m 4xe4
 372 192 272 226 208 254 c 5
 158 240 114 198 114 144 c 4
 114 90 166 42 256 42 c 4
 326 42 372 82 372 122 c 4xe4
156 282 m 5
 116 306 70 348 70 416 c 4
 70 498 142 570 254 570 c 4
 360 570 428 502 428 424 c 4xd8
 428 372 396 334 344 298 c 5
 398 266 446 226 446 158 c 4
 446 54 364 -8 256 -8 c 4
 136 -8 54 56 54 140 c 4
 54 202 100 254 156 282 c 5
EndSplineSet
Fore
SplineSet
80 420 m 0
 80 502 152 570 257 570 c 0
 357 570 425 506 425 428 c 0
 425 379 391 333 341 304 c 1
 398 274 449 234 449 159 c 0
 449 59 364 -8 256 -8 c 0
 136 -8 51 58 51 142 c 0
 51 212 97 259 160 287 c 1
 115 315 80 353 80 420 c 0
208 261 m 1
 154 241 111 204 111 146 c 0
 111 92 166 42 256 42 c 0
 326 42 375 86 375 126 c 0
 375 196 272 231 208 261 c 1
291 327 m 1
 337 349 363 390 363 432 c 0
 363 486 321 522 257 522 c 0
 196 522 154 489 154 445 c 0
 154 388 225 357 291 327 c 1
EndSplineSet
Validated: 1
Layer: 2
SplineSet
449 159 m 4
 449 59 364 -8 256 -8 c 4
 136 -8 51 58 51 142 c 4
 51 241 143 294 245 312 c 4
 318 325 363 377 363 432 c 4
 363 486 321 522 257 522 c 4
 196 522 154 489 154 445 c 4xd8
 154 392 209 366 274 335 c 4
 350 300 449 263 449 159 c 4
80 420 m 4
 80 502 152 570 257 570 c 4
 357 570 425 506 425 428 c 4xd8
 425 355 349 289 258 274 c 4
 182 261 111 221 111 146 c 4
 111 92 166 42 256 42 c 4
 326 42 375 86 375 126 c 4xe4
 375 189 290 224 228 252 c 4
 156 285 80 322 80 420 c 4
EndSplineSet
Layer: 3
SplineSet
449 159 m 4
 449 59 364 -8 256 -8 c 4
 136 -8 51 58 51 142 c 4
 51 241 143 294 245 312 c 4
 318 325 363 377 363 432 c 4
 363 486 320 522 254 522 c 4
 196 522 148 489 148 445 c 4xd8
 148 392 209 366 274 335 c 4
 350 300 449 263 449 159 c 4
74 420 m 4
 74 502 146 570 254 570 c 4
 357 570 425 506 425 428 c 4xd8
 425 355 349 289 258 274 c 4
 182 261 111 221 111 146 c 4
 111 92 166 42 256 42 c 4
 326 42 375 86 375 126 c 4xe4
 375 189 290 224 228 252 c 4
 156 285 74 322 74 420 c 4
EndSplineSet
Position2: "forward2 subtable" dx=1000 dy=0 dh=0 dv=0
Position2: "forward1 subtable" dx=500 dy=0 dh=0 dv=0
Position2: "back2 subtable" dx=-1000 dy=0 dh=0 dv=0
Position2: "back1 subtable" dx=-500 dy=0 dh=0 dv=0
Position2: "up1 subtable" dx=0 dy=200 dh=0 dv=0
Position2: "nudgeDown1 subtable" dx=0 dy=-100 dh=0 dv=0
Position2: "layer5 subtable" dx=0 dy=-2920 dh=0 dv=0
Position2: "layer4 subtable" dx=0 dy=-2190 dh=0 dv=0
Position2: "layer3 subtable" dx=0 dy=-1460 dh=0 dv=0
Position2: "layer2 subtable" dx=0 dy=-730 dh=0 dv=0
MultipleSubs2: "addSepRight subtable" eight sep
EndChar

StartChar: nine
Encoding: 57 57 9
Width: 0
VWidth: 0
Flags: HMW
LayerCount: 4
Back
SplineSet
178 67 m 4
 178 49 186 34 224 34 c 7
 344 34 358 188 358 289 c 5
 326 257 286 231 230 231 c 4
 120 231 51 297 51 389 c 4
 51 483 134 570 247 570 c 4
 382 570 454 452 454 296 c 4
 454 96 343 -8 224 -8 c 7
 119 -8 58 54 58 106 c 4
 58 141 79 172 121 172 c 4
 157 172 182 146 182 106 c 4
 182 92 178 80 178 67 c 4
242 277 m 4
 306 277 350 330 350 397 c 7
 350 475 313 526 254 526 c 4
 184 526 150 466 150 395 c 4
 150 321 180 277 242 277 c 4
EndSplineSet
Fore
SplineSet
169 70 m 0
 169 53 186 34 224 34 c 3
 344 34 358 188 358 289 c 1
 326 257 286 231 230 231 c 0
 120 231 51 297 51 389 c 0
 51 483 134 570 247 570 c 0
 382 570 454 452 454 296 c 0
 454 96 343 -8 224 -8 c 3
 119 -8 59 58 59 106 c 0
 59 138 78 166 117 166 c 0
 150 166 173 143 173 106 c 0
 173 93 169 82 169 70 c 0
242 277 m 0
 306 277 350 330 350 397 c 3
 350 475 313 526 254 526 c 0
 184 526 150 466 150 395 c 0
 150 321 180 277 242 277 c 0
EndSplineSet
Validated: 1
Position2: "forward2 subtable" dx=1000 dy=0 dh=0 dv=0
Position2: "forward1 subtable" dx=500 dy=0 dh=0 dv=0
Position2: "back2 subtable" dx=-1000 dy=0 dh=0 dv=0
Position2: "back1 subtable" dx=-500 dy=0 dh=0 dv=0
Position2: "up1 subtable" dx=0 dy=200 dh=0 dv=0
Position2: "nudgeDown1 subtable" dx=0 dy=-100 dh=0 dv=0
Position2: "layer5 subtable" dx=0 dy=-2920 dh=0 dv=0
Position2: "layer4 subtable" dx=0 dy=-2190 dh=0 dv=0
Position2: "layer3 subtable" dx=0 dy=-1460 dh=0 dv=0
Position2: "layer2 subtable" dx=0 dy=-730 dh=0 dv=0
MultipleSubs2: "addSepRight subtable" nine sep
EndChar

StartChar: bracketleft
Encoding: 91 91 10
Width: 0
VWidth: 2290
Flags: HMW
LayerCount: 4
Back
SplineSet
218 -112 m 5xe4
 170 -112 l 5
 170 696 l 5
 218 696 l 5
 218 -112 l 5xe4
170 -112 m 1xe4
 170 -64 l 1
 390 -64 l 1
 390 -112 l 1
 170 -112 l 1xe4
170 648 m 1xe4
 170 696 l 1
 390 696 l 1
 390 648 l 1
 170 648 l 1xe4
EndSplineSet
Fore
SplineSet
218 -4 m 1
 330 -4 l 1
 330 -52 l 1
 170 -52 l 1
 170 596 l 1
 330 596 l 1
 330 548 l 1
 218 548 l 1
 218 -4 l 1
EndSplineSet
Validated: 1
Position2: "forward2 subtable" dx=1000 dy=0 dh=0 dv=0
Position2: "forward1 subtable" dx=500 dy=0 dh=0 dv=0
Position2: "back2 subtable" dx=-1000 dy=0 dh=0 dv=0
Position2: "back1 subtable" dx=-500 dy=0 dh=0 dv=0
Position2: "up1 subtable" dx=0 dy=200 dh=0 dv=0
Position2: "nudgeDown1 subtable" dx=0 dy=-100 dh=0 dv=0
Position2: "layer5 subtable" dx=0 dy=-2920 dh=0 dv=0
Position2: "layer4 subtable" dx=0 dy=-2190 dh=0 dv=0
Position2: "layer3 subtable" dx=0 dy=-1460 dh=0 dv=0
Position2: "layer2 subtable" dx=0 dy=-730 dh=0 dv=0
Substitution2: "parenP4 subtable" bracketleft.p4
Substitution2: "parenP3 subtable" bracketleft.p3
Substitution2: "parenP2 subtable" bracketleft.p2
Substitution2: "parenP1 subtable" bracketleft.p1
EndChar

StartChar: b
Encoding: 98 98 12
Width: 0
VWidth: 0
Flags: HMW
LayerCount: 4
Back
SplineSet
146 756 m 5
 146 286 l 5
 176 320 212 368 278 368 c 4
 338 368 398 332 398 248 c 4
 398 84 230 70 122 -46 c 5
 102 -46 l 5
 102 756 l 5
 146 756 l 5
146 26 m 5
 220 90 298 136 298 214 c 4
 298 272 270 298 234 298 c 4
 188 298 148 230 148 230 c 5
 146 26 l 5
EndSplineSet
Fore
SplineSet
146 756 m 1
 146 306 l 1
 174 334 208 368 268 368 c 0
 332 368 398 330 398 246 c 0
 398 82 230 84 122 -46 c 1
 102 -46 l 1
 102 756 l 1
 146 756 l 1
146 26 m 1
 220 96 298 130 298 220 c 0
 298 278 264 300 228 300 c 0
 182 300 148 262 148 262 c 1
 146 26 l 1
EndSplineSet
Validated: 1
Position2: "Single Positioning lookup 132 subtable" dx=-180 dy=0 dh=0 dv=0
Position2: "Single Positioning lookup 127 subtable" dx=-110 dy=10 dh=0 dv=0
Position2: "Single Positioning lookup 126 subtable" dx=-150 dy=0 dh=0 dv=0
Position2: "Single Positioning lookup 125 subtable" dx=10 dy=0 dh=0 dv=0
Position2: "Single Positioning lookup 123 subtable" dx=10 dy=0 dh=0 dv=0
Position2: "Single Positioning lookup 120 subtable" dx=-130 dy=-20 dh=0 dv=0
Position2: "Single Positioning lookup 113 subtable" dx=-10 dy=0 dh=0 dv=0
Position2: "Single Positioning lookup 108 subtable" dx=0 dy=10 dh=0 dv=0
Position2: "Single Positioning lookup 107 subtable" dx=-10 dy=0 dh=0 dv=0
Position2: "Single Positioning lookup 106 subtable" dx=150 dy=0 dh=0 dv=0
Position2: "Single Positioning lookup 104 subtable" dx=180 dy=0 dh=0 dv=0
Position2: "Single Positioning lookup 101 subtable" dx=-10 dy=-20 dh=0 dv=0
Position2: "Single Positioning lookup 94 subtable" dx=30 dy=0 dh=0 dv=0
Position2: "Single Positioning lookup 87 subtable" dx=0 dy=10 dh=0 dv=0
Position2: "Single Positioning lookup 85 subtable" dx=200 dy=-30 dh=0 dv=0
Position2: "Single Positioning lookup 84 subtable" dx=-10 dy=20 dh=0 dv=0
Position2: "Single Positioning lookup 81 subtable" dx=180 dy=0 dh=0 dv=0
Position2: "Single Positioning lookup 76 subtable" dx=0 dy=-40 dh=0 dv=0
Position2: "Single Positioning lookup 68 subtable" dx=0 dy=10 dh=0 dv=0
Position2: "Single Positioning lookup 67 subtable" dx=-10 dy=0 dh=0 dv=0
Position2: "Single Positioning lookup 65 subtable" dx=0 dy=10 dh=0 dv=0
Position2: "Single Positioning lookup 62 subtable" dx=0 dy=10 dh=0 dv=0
Position2: "Single Positioning lookup 60 subtable" dx=0 dy=10 dh=0 dv=0
Position2: "Single Positioning lookup 59 subtable" dx=150 dy=0 dh=0 dv=0
Position2: "Single Positioning lookup 58 subtable" dx=0 dy=0 dh=0 dv=0
Position2: "Single Positioning lookup 57 subtable" dx=190 dy=-20 dh=0 dv=0
Position2: "Single Positioning lookup 56 subtable" dx=0 dy=30 dh=0 dv=0
Position2: "Single Positioning lookup 54 subtable" dx=230 dy=-20 dh=0 dv=0
Position2: "Single Positioning lookup 53 subtable" dx=0 dy=30 dh=0 dv=0
Position2: "Single Positioning lookup 50 subtable" dx=0 dy=30 dh=0 dv=0
Position2: "Single Positioning lookup 49 subtable" dx=0 dy=-20 dh=0 dv=0
Position2: "Single Positioning lookup 47 subtable" dx=0 dy=20 dh=0 dv=0
Position2: "Single Positioning lookup 44 subtable" dx=0 dy=20 dh=0 dv=0
Position2: "Single Positioning lookup 40 subtable" dx=-10 dy=0 dh=0 dv=0
Position2: "Single Positioning lookup 33 subtable" dx=0 dy=10 dh=0 dv=0
Position2: "Single Positioning lookup 31 subtable" dx=-10 dy=0 dh=0 dv=0
Position2: "Single Positioning lookup 30 subtable" dx=170 dy=-30 dh=0 dv=0
Position2: "Single Positioning lookup 27 subtable" dx=180 dy=-50 dh=0 dv=0
Position2: "Single Positioning lookup 22 subtable" dx=-10 dy=-20 dh=0 dv=0
Position2: "forward2 subtable" dx=1000 dy=0 dh=0 dv=0
Position2: "forward1 subtable" dx=500 dy=0 dh=0 dv=0
Position2: "back2 subtable" dx=-1000 dy=0 dh=0 dv=0
Position2: "back1 subtable" dx=-500 dy=0 dh=0 dv=0
Position2: "up1 subtable" dx=0 dy=200 dh=0 dv=0
Position2: "nudgeDown1 subtable" dx=0 dy=-100 dh=0 dv=0
Position2: "layer5 subtable" dx=0 dy=-2920 dh=0 dv=0
Position2: "layer4 subtable" dx=0 dy=-2190 dh=0 dv=0
Position2: "layer3 subtable" dx=0 dy=-1460 dh=0 dv=0
Position2: "layer2 subtable" dx=0 dy=-730 dh=0 dv=0
MultipleSubs2: "addSepRight subtable" b sep
EndChar

StartChar: n
Encoding: 110 110 13
Width: 0
VWidth: 0
Flags: HMW
LayerCount: 4
Back
SplineSet
122 724 m 5
 162 724 l 5
 162 452 l 5
 378 504 l 5
 378 -216 l 5
 334 -216 l 5
 338 50 l 5
 122 2 l 5
 122 724 l 5
162 324 m 5
 162 142 l 5
 338 184 l 5
 338 364 l 5
 162 324 l 5
EndSplineSet
Fore
SplineSet
133 727 m 1
 173 727 l 1
 173 455 l 1
 365 501 l 1
 365 -219 l 1
 321 -219 l 1
 325 47 l 1
 133 5 l 1
 133 727 l 1
173 327 m 1
 173 145 l 1
 325 181 l 1
 325 361 l 1
 173 327 l 1
EndSplineSet
Validated: 1
Position2: "Single Positioning lookup 130 subtable" dx=-200 dy=0 dh=0 dv=0
Position2: "Single Positioning lookup 124 subtable" dx=-190 dy=0 dh=0 dv=0
Position2: "Single Positioning lookup 121 subtable" dx=10 dy=40 dh=0 dv=0
Position2: "Single Positioning lookup 119 subtable" dx=10 dy=0 dh=0 dv=0
Position2: "Single Positioning lookup 118 subtable" dx=-150 dy=-15 dh=0 dv=0
Position2: "Single Positioning lookup 117 subtable" dx=20 dy=15 dh=0 dv=0
Position2: "Single Positioning lookup 111 subtable" dx=-20 dy=-10 dh=0 dv=0
Position2: "Single Positioning lookup 105 subtable" dx=-20 dy=0 dh=0 dv=0
Position2: "Single Positioning lookup 102 subtable" dx=180 dy=60 dh=0 dv=0
Position2: "Single Positioning lookup 100 subtable" dx=130 dy=0 dh=0 dv=0
Position2: "Single Positioning lookup 99 subtable" dx=-20 dy=0 dh=0 dv=0
Position2: "Single Positioning lookup 98 subtable" dx=130 dy=30 dh=0 dv=0
Position2: "Single Positioning lookup 91 subtable" dx=30 dy=0 dh=0 dv=0
Position2: "Single Positioning lookup 82 subtable" dx=0 dy=-20 dh=0 dv=0
Position2: "Single Positioning lookup 78 subtable" dx=370 dy=0 dh=0 dv=0
Position2: "Single Positioning lookup 75 subtable" dx=50 dy=40 dh=0 dv=0
Position2: "Single Positioning lookup 73 subtable" dx=0 dy=-30 dh=0 dv=0
Position2: "Single Positioning lookup 72 subtable" dx=120 dy=20 dh=0 dv=0
Position2: "Single Positioning lookup 64 subtable" dx=-20 dy=-40 dh=0 dv=0
Position2: "Single Positioning lookup 55 subtable" dx=0 dy=0 dh=0 dv=0
Position2: "Single Positioning lookup 51 subtable" dx=210 dy=60 dh=0 dv=0
Position2: "Single Positioning lookup 48 subtable" dx=140 dy=-20 dh=0 dv=0
Position2: "Single Positioning lookup 46 subtable" dx=0 dy=-15 dh=0 dv=0
Position2: "Single Positioning lookup 45 subtable" dx=140 dy=0 dh=0 dv=0
Position2: "Single Positioning lookup 41 subtable" dx=180 dy=60 dh=0 dv=0
Position2: "Single Positioning lookup 38 subtable" dx=370 dy=90 dh=0 dv=0
Position2: "Single Positioning lookup 37 subtable" dx=-20 dy=-50 dh=0 dv=0
Position2: "Single Positioning lookup 35 subtable" dx=350 dy=90 dh=0 dv=0
Position2: "Single Positioning lookup 32 subtable" dx=130 dy=30 dh=0 dv=0
Position2: "Single Positioning lookup 29 subtable" dx=130 dy=70 dh=0 dv=0
Position2: "Single Positioning lookup 28 subtable" dx=-20 dy=-10 dh=0 dv=0
Position2: "Single Positioning lookup 26 subtable" dx=140 dy=60 dh=0 dv=0
Position2: "Single Positioning lookup 24 subtable" dx=180 dy=60 dh=0 dv=0
Position2: "Single Positioning lookup 23 subtable" dx=330 dy=90 dh=0 dv=0
Position2: "Single Positioning lookup 21 subtable" dx=130 dy=0 dh=0 dv=0
Position2: "Single Positioning lookup 20 subtable" dx=280 dy=30 dh=0 dv=0
Position2: "Single Positioning lookup 19 subtable" dx=-20 dy=0 dh=0 dv=0
Position2: "Single Positioning lookup 18 subtable" dx=130 dy=30 dh=0 dv=0
Position2: "Single Positioning lookup 17 subtable" dx=280 dy=60 dh=0 dv=0
Position2: "forward2 subtable" dx=1000 dy=0 dh=0 dv=0
Position2: "forward1 subtable" dx=500 dy=0 dh=0 dv=0
Position2: "back2 subtable" dx=-1000 dy=0 dh=0 dv=0
Position2: "back1 subtable" dx=-500 dy=0 dh=0 dv=0
Position2: "up1 subtable" dx=0 dy=200 dh=0 dv=0
Position2: "nudgeDown1 subtable" dx=0 dy=-100 dh=0 dv=0
Position2: "layer5 subtable" dx=0 dy=-2920 dh=0 dv=0
Position2: "layer4 subtable" dx=0 dy=-2190 dh=0 dv=0
Position2: "layer3 subtable" dx=0 dy=-1460 dh=0 dv=0
Position2: "layer2 subtable" dx=0 dy=-730 dh=0 dv=0
MultipleSubs2: "addSepRight subtable" n sep
EndChar

StartChar: x
Encoding: 120 120 14
Width: 0
VWidth: 0
Flags: HMW
LayerCount: 4
Back
SplineSet
250 138 m 4
 212 138 172 76 172 8 c 5
 74 2 l 5
 80 100 l 5
 148 100 206 142 206 180 c 4
 206 218 148 258 80 258 c 5
 74 356 l 5
 172 352 l 5
 172 284 212 226 250 226 c 4
 288 226 328 284 328 352 c 5
 426 356 l 5
 420 258 l 5
 352 258 294 218 294 180 c 4
 294 142 352 100 420 100 c 5
 426 2 l 5
 328 8 l 5
 328 76 288 138 250 138 c 4
EndSplineSet
Fore
SplineSet
250 138 m 0
 212 138 176 78 176 8 c 1
 74 2 l 1
 80 104 l 1
 150 104 206 142 206 180 c 0
 206 218 150 254 80 254 c 1
 74 356 l 1
 176 352 l 1
 176 282 212 226 250 226 c 0
 288 226 324 282 324 352 c 1
 426 356 l 1
 420 254 l 1
 350 254 294 218 294 180 c 0
 294 142 350 104 420 104 c 1
 426 2 l 1
 324 8 l 1
 324 78 288 138 250 138 c 0
EndSplineSet
Validated: 1
Position2: "forward2 subtable" dx=1000 dy=0 dh=0 dv=0
Position2: "forward1 subtable" dx=500 dy=0 dh=0 dv=0
Position2: "back2 subtable" dx=-1000 dy=0 dh=0 dv=0
Position2: "back1 subtable" dx=-500 dy=0 dh=0 dv=0
Position2: "up1 subtable" dx=0 dy=200 dh=0 dv=0
Position2: "nudgeDown1 subtable" dx=0 dy=-100 dh=0 dv=0
Position2: "layer5 subtable" dx=0 dy=-2920 dh=0 dv=0
Position2: "layer4 subtable" dx=0 dy=-2190 dh=0 dv=0
Position2: "layer3 subtable" dx=0 dy=-1460 dh=0 dv=0
Position2: "layer2 subtable" dx=0 dy=-730 dh=0 dv=0
MultipleSubs2: "addSepRight subtable" x sep
EndChar

StartChar: quotedbl
Encoding: 34 34 15
Width: 1000
VWidth: 0
LayerCount: 4
Back
SplineSet
88 198 m 0x78
 88 180 77 168 60 168 c 0
 42 168 26 183 26 207 c 0
 26 244 64 285 124 285 c 0
 174 285 217 255 217 209 c 0
 217 161 176 143 141 121 c 0
 119 107 99 91 82 71 c 0
 75 64 79 52 88 52 c 0x78
 109 51 133 43 158 43 c 0
 180 43 194 59 196 84 c 1
 214 84 l 1
 221 52 213 -4 155 -4 c 0xb4
 115 -4 100 21 72 21 c 0
 58 21 47 12 43 0 c 1
 25 0 l 1
 28 42 66 95 98 119 c 0
 146 156 165 181 165 211 c 0
 165 248 139 266 109 266 c 0
 92 266 76 258 64 247 c 0
 60 242 59 239 59 236 c 0
 59 226 88 230 88 198 c 0x78
EndSplineSet
Fore
Validated: 1
EndChar

StartChar: percent
Encoding: 37 37 16
Width: 1000
VWidth: 0
LayerCount: 4
Back
SplineSet
94 15 m 7xf4
 124 15 149 33 149 86 c 4
 149 125 129 146 103 146 c 4
 83 146 64 136 52 117 c 5
 40 122 l 13
 40 281 l 5
 206 281 l 5
 193 237 114 225 60 234 c 13
 60 151 l 21xec
 75 159 90 166 117 166 c 4
 160 166 204 141 204 86 c 4
 204 31 157 -4 106 -4 c 7
 58 -4 25 17 25 50 c 4
 25 67 38 81 55 81 c 4
 72 81 84 67 84 50 c 4
 84 39 73 32 73 23 c 4
 73 19 78 15 94 15 c 7xf4
EndSplineSet
Fore
Validated: 1
EndChar

StartChar: numbersign
Encoding: 35 35 17
Width: 0
VWidth: 0
Flags: HMW
LayerCount: 4
Back
SplineSet
152 648 m 5
 192 648 l 5
 192 452 l 5
 308 488 l 5
 308 688 l 5
 348 688 l 5
 348 504 l 5
 406 524 l 5
 406 410 l 5
 348 390 l 5
 348 212 l 5
 406 232 l 5
 406 120 l 5
 348 98 l 5
 348 -106 l 5
 308 -106 l 5
 308 84 l 5
 192 48 l 5
 192 -150 l 5
 152 -150 l 5
 152 34 l 5
 94 14 l 5
 94 126 l 5
 152 146 l 5
 152 324 l 5
 94 304 l 5
 94 418 l 5
 152 436 l 5
 152 648 l 5
308 376 m 5
 192 340 l 5
 192 160 l 5
 308 196 l 5
 308 376 l 5
EndSplineSet
Fore
SplineSet
148 666 m 1
 188 666 l 1
 188 462 l 1
 312 498 l 1
 312 708 l 1
 352 708 l 1
 352 516 l 1
 414 536 l 1
 414 418 l 1
 352 396 l 1
 352 210 l 1
 414 230 l 1
 414 112 l 1
 352 90 l 1
 352 -124 l 1
 312 -124 l 1
 312 74 l 1
 188 36 l 1
 188 -170 l 1
 148 -170 l 1
 148 22 l 1
 86 2 l 1
 86 118 l 1
 148 140 l 1
 148 326 l 1
 86 306 l 1
 86 426 l 1
 148 444 l 1
 148 666 l 1
312 382 m 1
 188 344 l 1
 188 154 l 1
 312 192 l 1
 312 382 l 1
EndSplineSet
Validated: 1
Position2: "Single Positioning lookup 134 subtable" dx=-330 dy=-15 dh=0 dv=0
Position2: "Single Positioning lookup 133 subtable" dx=0 dy=15 dh=0 dv=0
Position2: "Single Positioning lookup 131 subtable" dx=0 dy=0 dh=0 dv=0
Position2: "Single Positioning lookup 129 subtable" dx=0 dy=50 dh=0 dv=0
Position2: "Single Positioning lookup 128 subtable" dx=10 dy=-10 dh=0 dv=0
Position2: "Single Positioning lookup 122 subtable" dx=-170 dy=-40 dh=0 dv=0
Position2: "Single Positioning lookup 115 subtable" dx=310 dy=0 dh=0 dv=0
Position2: "Single Positioning lookup 114 subtable" dx=0 dy=0 dh=0 dv=0
Position2: "Single Positioning lookup 112 subtable" dx=170 dy=0 dh=0 dv=0
Position2: "Single Positioning lookup 110 subtable" dx=160 dy=50 dh=0 dv=0
Position2: "Single Positioning lookup 109 subtable" dx=120 dy=-10 dh=0 dv=0
Position2: "Single Positioning lookup 103 subtable" dx=0 dy=-20 dh=0 dv=0
Position2: "Single Positioning lookup 97 subtable" dx=0 dy=-30 dh=0 dv=0
Position2: "Single Positioning lookup 96 subtable" dx=310 dy=0 dh=0 dv=0
Position2: "Single Positioning lookup 95 subtable" dx=0 dy=30 dh=0 dv=0
Position2: "Single Positioning lookup 93 subtable" dx=310 dy=0 dh=0 dv=0
Position2: "Single Positioning lookup 92 subtable" dx=0 dy=20 dh=0 dv=0
Position2: "Single Positioning lookup 90 subtable" dx=310 dy=0 dh=0 dv=0
Position2: "Single Positioning lookup 89 subtable" dx=0 dy=0 dh=0 dv=0
Position2: "Single Positioning lookup 88 subtable" dx=120 dy=-10 dh=0 dv=0
Position2: "Single Positioning lookup 86 subtable" dx=180 dy=20 dh=0 dv=0
Position2: "Single Positioning lookup 83 subtable" dx=170 dy=0 dh=0 dv=0
Position2: "Single Positioning lookup 80 subtable" dx=360 dy=100 dh=0 dv=0
Position2: "Single Positioning lookup 79 subtable" dx=0 dy=-20 dh=0 dv=0
Position2: "Single Positioning lookup 77 subtable" dx=0 dy=20 dh=0 dv=0
Position2: "Single Positioning lookup 74 subtable" dx=230 dy=100 dh=0 dv=0
Position2: "Single Positioning lookup 71 subtable" dx=310 dy=100 dh=0 dv=0
Position2: "Single Positioning lookup 70 subtable" dx=430 dy=0 dh=0 dv=0
Position2: "Single Positioning lookup 69 subtable" dx=120 dy=0 dh=0 dv=0
Position2: "Single Positioning lookup 66 subtable" dx=170 dy=0 dh=0 dv=0
Position2: "Single Positioning lookup 63 subtable" dx=160 dy=20 dh=0 dv=0
Position2: "Single Positioning lookup 61 subtable" dx=120 dy=-10 dh=0 dv=0
Position2: "Single Positioning lookup 52 subtable" dx=20 dy=-20 dh=0 dv=0
Position2: "Single Positioning lookup 43 subtable" dx=330 dy=0 dh=0 dv=0
Position2: "Single Positioning lookup 42 subtable" dx=0 dy=-20 dh=0 dv=0
Position2: "Single Positioning lookup 39 subtable" dx=170 dy=0 dh=0 dv=0
Position2: "Single Positioning lookup 36 subtable" dx=160 dy=0 dh=0 dv=0
Position2: "Single Positioning lookup 34 subtable" dx=120 dy=-10 dh=0 dv=0
Position2: "Single Positioning lookup 25 subtable" dx=0 dy=-20 dh=0 dv=0
Position2: "forward2 subtable" dx=1000 dy=0 dh=0 dv=0
Position2: "forward1 subtable" dx=500 dy=0 dh=0 dv=0
Position2: "back2 subtable" dx=-1000 dy=0 dh=0 dv=0
Position2: "back1 subtable" dx=-500 dy=0 dh=0 dv=0
Position2: "up1 subtable" dx=0 dy=200 dh=0 dv=0
Position2: "nudgeDown1 subtable" dx=0 dy=-100 dh=0 dv=0
Position2: "layer5 subtable" dx=0 dy=-2920 dh=0 dv=0
Position2: "layer4 subtable" dx=0 dy=-2190 dh=0 dv=0
Position2: "layer3 subtable" dx=0 dy=-1460 dh=0 dv=0
Position2: "layer2 subtable" dx=0 dy=-730 dh=0 dv=0
MultipleSubs2: "addSepRight subtable" numbersign sep
EndChar

StartChar: hyphen
Encoding: 45 45 18
Width: 0
VWidth: 2000
Flags: HMW
LayerCount: 4
Fore
SplineSet
0 246 m 1
 0 302 l 1
 500 302 l 1
 500 246 l 1
 0 246 l 1
EndSplineSet
Validated: 1
Position2: "forward2 subtable" dx=1000 dy=0 dh=0 dv=0
Position2: "forward1 subtable" dx=500 dy=0 dh=0 dv=0
Position2: "back2 subtable" dx=-1000 dy=0 dh=0 dv=0
Position2: "back1 subtable" dx=-500 dy=0 dh=0 dv=0
Position2: "up1 subtable" dx=0 dy=200 dh=0 dv=0
Position2: "nudgeDown1 subtable" dx=0 dy=-100 dh=0 dv=0
Position2: "layer5 subtable" dx=0 dy=-2920 dh=0 dv=0
Position2: "layer4 subtable" dx=0 dy=-2190 dh=0 dv=0
Position2: "layer3 subtable" dx=0 dy=-1460 dh=0 dv=0
Position2: "layer2 subtable" dx=0 dy=-730 dh=0 dv=0
MultipleSubs2: "addSepRight subtable" hyphen sep
EndChar

StartChar: uni001A
Encoding: 26 26 19
Width: 0
LayerCount: 4
Back
SplineSet
0 208 m 4
 0 216 1 216 16 216 c 4
 29 216 30 216 30 208 c 4
 30 121 l 4
 30 92 36 91 58 97 c 4
 117 114 l 4
 136 119 141 118 141 103 c 4
 141 -207 l 4
 141 -215 139 -216 125 -216 c 4
 110 -216 111 -215 111 -206 c 4
 111 -120 l 4
 111 -92 107 -91 83 -97 c 4
 25 -114 l 4
 3 -120 0 -119 0 -103 c 4
 0 208 l 4
113 29 m 4
 113 54 105 54 86 48 c 4
 51 37 l 4
 29 31 28 27 28 -2 c 4
 28 -29 l 4
 28 -53 35 -53 54 -47 c 4
 90 -37 l 4
 111 -31 113 -25 113 3 c 4
 113 29 l 4
EndSplineSet
Fore
Validated: 1
EndChar

StartChar: parenleft
Encoding: 40 40 20
Width: 0
VWidth: 2280
Flags: HMW
LayerCount: 4
Back
SplineSet
223 260 m 4
 223 100 289 -30 371 -114 c 5
 345 -140 l 5
 231 -48 161 106 161 260 c 4
 161 414 231 568 345 660 c 5
 371 634 l 5
 297 558 223 420 223 260 c 4
EndSplineSet
Fore
SplineSet
218 260 m 4
 218 124 270 16 340 -56 c 5
 318 -80 l 5
 222 -2 162 130 162 260 c 4
 162 390 222 522 318 600 c 5
 340 576 l 5
 278 512 218 396 218 260 c 4
EndSplineSet
Validated: 1
Position2: "forward2 subtable" dx=1000 dy=0 dh=0 dv=0
Position2: "forward1 subtable" dx=500 dy=0 dh=0 dv=0
Position2: "back2 subtable" dx=-1000 dy=0 dh=0 dv=0
Position2: "back1 subtable" dx=-500 dy=0 dh=0 dv=0
Position2: "up1 subtable" dx=0 dy=200 dh=0 dv=0
Position2: "nudgeDown1 subtable" dx=0 dy=-100 dh=0 dv=0
Position2: "layer5 subtable" dx=0 dy=-2920 dh=0 dv=0
Position2: "layer4 subtable" dx=0 dy=-2190 dh=0 dv=0
Position2: "layer3 subtable" dx=0 dy=-1460 dh=0 dv=0
Position2: "layer2 subtable" dx=0 dy=-730 dh=0 dv=0
Substitution2: "parenP4 subtable" parenleft.p4
Substitution2: "parenP3 subtable" parenleft.p3
Substitution2: "parenP2 subtable" parenleft.p2
Substitution2: "parenP1 subtable" parenleft.p1
EndChar

StartChar: asciicircum
Encoding: 94 94 22
Width: 1000
VWidth: 0
LayerCount: 4
Back
SplineSet
92 150 m 0xf8
 101 157 118 165 137 165 c 0xf8
 187 165 212 132 212 88 c 0xf4
 212 36 176 -4 120 -4 c 0
 51 -4 25 61 25 131 c 0
 25 228 76 285 137 285 c 0
 167 285 199 267 199 238 c 0
 199 220 184 205 167 205 c 0
 150 205 137 218 137 235 c 0
 137 250 142 252 142 259 c 0
 142 265 138 267 134 267 c 0
 104 267 77 217 75 156 c 0
 75 149 83 142 92 150 c 0xf8
129 146 m 0
 99 146 78 115 78 78 c 3
 78 46 93 14 120 14 c 0
 152 14 163 39 163 87 c 0xf4
 163 119 161 146 129 146 c 0
EndSplineSet
Fore
Validated: 1
EndChar

StartChar: uni001D
Encoding: 29 29 23
Width: 0
VWidth: 0
LayerCount: 4
Back
SplineSet
46 339 m 5
 46 297 43 195 43 148 c 4
 43 145 43 142 46 142 c 4
 50 142 73 169 101 169 c 4
 127 169 154 153 154 115 c 4
 154 99 148 79 144 73 c 4
 141 68 136 61 126 51 c 4
 115 40 83 24 64 10 c 4
 50 -1 31 -19 23 -19 c 4
 21 -19 20 -18 20 -14 c 4
 20 104 20 230 19 340 c 5
 19 340 24 342 32 342 c 4
 48 342 46 339 46 339 c 5
41 15 m 5
 69 41 103 56 103 105 c 4
 103 125 91 139 76 139 c 4
 57 139 43 109 43 109 c 5
 43 109 41 89 41 72 c 6
 41 15 l 5
EndSplineSet
Fore
Validated: 1
EndChar

StartChar: uni001E
Encoding: 30 30 24
Width: 0
VWidth: 0
LayerCount: 4
Back
SplineSet
55 271 m 5
 55 271 60 271 65 271 c 4
 71 271 76 270 76 270 c 5
 76 259 76 207 76 196 c 4
 76 186 75 180 82 180 c 4
 86 180 100 184 105 186 c 4
 113 189 128 190 128 204 c 4
 128 226 126 267 126 289 c 5
 126 289 130 291 135 291 c 4
 142 291 148 289 148 289 c 5
 148 286 147 267 147 256 c 4
 147 207 148 203 156 203 c 4
 164 203 168 207 169 207 c 4
 170 207 175 206 175 204 c 6
 175 156 l 6
 175 152 173 151 161 147 c 4
 152 145 147 142 147 138 c 6
 147 60 l 6
 147 56 150 51 155 51 c 4
 163 51 168 55 172 55 c 4
 174 55 175 55 175 52 c 6
 175 1 l 6
 175 -1 153 -6 147 -11 c 5
 148 -107 l 5
 148 -107 146 -109 138 -109 c 4
 130 -109 127 -107 127 -107 c 5
 127 -107 128 -53 128 -27 c 6
 128 -21 l 5
 128 -21 126 -18 120 -18 c 4
 113 -18 75 -32 75 -32 c 5
 75 -75 l 6
 75 -103 76 -126 76 -126 c 5
 76 -126 76 -128 68 -128 c 4
 62 -128 55 -127 55 -127 c 5
 55 -127 56 -95 56 -75 c 4
 56 -43 55 -42 49 -42 c 4
 42 -42 36 -45 34 -45 c 4
 32 -45 29 -41 29 -39 c 6
 29 9 l 6
 29 13 56 15 56 24 c 6
 56 94 l 6
 56 108 50 110 47 110 c 4
 43 110 36 107 35 107 c 4
 33 107 29 110 29 112 c 6
 29 157 l 6
 29 161 36 164 45 167 c 4
 53 169 56 171 56 201 c 4
 56 220 55 257 55 271 c 5
75 46 m 4
 75 38 77 30 85 30 c 4
 106 30 128 43 128 48 c 6
 128 127 l 6
 128 130 119 131 115 131 c 4
 103 131 77 120 76 113 c 4
 75 107 75 65 75 46 c 4
EndSplineSet
Fore
Validated: 1
EndChar

StartChar: slash
Encoding: 47 47 25
Width: 0
VWidth: 2290
Flags: HMW
LayerCount: 4
Fore
SplineSet
32 -136 m 1
 -14 -124 l 1
 224 648 l 1
 270 636 l 1
 32 -136 l 1
EndSplineSet
Validated: 1
EndChar

StartChar: plus
Encoding: 43 43 26
Width: 0
VWidth: 0
Flags: HMW
AnchorPoint: "chain" 0 730 basemark 0
AnchorPoint: "chain" 0 730 mark 0
LayerCount: 4
Fore
SplineSet
227 474 m 1
 273 474 l 1
 273 277 l 1
 470 277 l 1
 470 231 l 1
 273 231 l 1
 273 34 l 1
 227 34 l 1
 227 231 l 1
 30 231 l 1
 30 277 l 1
 227 277 l 1
 227 474 l 1
EndSplineSet
Validated: 1
Position2: "forward2 subtable" dx=1000 dy=0 dh=0 dv=0
Position2: "forward1 subtable" dx=500 dy=0 dh=0 dv=0
Position2: "back2 subtable" dx=-1000 dy=0 dh=0 dv=0
Position2: "back1 subtable" dx=-500 dy=0 dh=0 dv=0
Position2: "up1 subtable" dx=0 dy=200 dh=0 dv=0
Position2: "nudgeDown1 subtable" dx=0 dy=-100 dh=0 dv=0
Position2: "layer5 subtable" dx=0 dy=-2920 dh=0 dv=0
Position2: "layer4 subtable" dx=0 dy=-2190 dh=0 dv=0
Position2: "layer3 subtable" dx=0 dy=-1460 dh=0 dv=0
Position2: "layer2 subtable" dx=0 dy=-730 dh=0 dv=0
MultipleSubs2: "addSepRight subtable" plus sep
EndChar

StartChar: two_slash
Encoding: 57344 57344 27
Width: 0
VWidth: 0
UnlinkRmOvrlpSave: 1
Flags: HMW
LayerCount: 4
Fore
Refer: 26 43 N 1 0 0 1 401 -113 2
Refer: 2 50 N 1 0 0 1 0 0 2
Layer: 2
SplineSet
462 158 m 1
 462 72 426 -8 346 -8 c 0
 274 -8 218 56 158 56 c 0
 120 56 104 36 90 0 c 1
 50 0 l 1
 58 84 142 190 214 236 c 0
 318 308 348 358 348 418 c 0
 348 492 310 526 254 526 c 0
 198 526 164 500 164 472 c 0
 164 448 194 440 194 396 c 0
 194 366 172 342 136 342 c 0
 96 342 70 370 70 414 c 0
 70 480 142 570 266 570 c 0
 374 570 462 506 462 414 c 0
 462 318 382 280 306 238 c 0
 286 226 202 180 156 110 c 1
 246 110 264 90 338 90 c 0
 388 90 412 114 426 164 c 1
 462 158 l 1
846 164 m 1xe4
 846 118 l 1
 426 118 l 1
 426 164 l 1
 846 164 l 1xe4
666 -70 m 1xe4
 620 -70 l 1
 620 350 l 1
 666 350 l 1
 666 -70 l 1xe4
EndSplineSet
Position2: "forward2 subtable" dx=1000 dy=0 dh=0 dv=0
Position2: "forward1 subtable" dx=500 dy=0 dh=0 dv=0
Position2: "back2 subtable" dx=-1000 dy=0 dh=0 dv=0
Position2: "back1 subtable" dx=-500 dy=0 dh=0 dv=0
Position2: "up1 subtable" dx=0 dy=200 dh=0 dv=0
Position2: "nudgeDown1 subtable" dx=0 dy=-100 dh=0 dv=0
Position2: "layer5 subtable" dx=0 dy=-2920 dh=0 dv=0
Position2: "layer4 subtable" dx=0 dy=-2190 dh=0 dv=0
Position2: "layer3 subtable" dx=0 dy=-1460 dh=0 dv=0
Position2: "layer2 subtable" dx=0 dy=-730 dh=0 dv=0
MultipleSubs2: "addSepRight subtable" two_slash sep
Ligature2: "LIGA_slashedFigures subtable" two plus
Ligature2: "LIGA_slashedFigures subtable" two slash
LCarets2: 1 0
EndChar

StartChar: four_slash
Encoding: 57345 57345 28
Width: 0
VWidth: 0
UnlinkRmOvrlpSave: 1
Flags: HMW
LayerCount: 4
Fore
Refer: 26 43 N 1 0 0 1 355 -65 2
Refer: 4 52 N 1 0 0 1 0 0 2
Layer: 2
SplineSet
628 -14 m 5xe4
 582 -14 l 5
 582 406 l 5
 628 406 l 5
 628 -14 l 5xe4
378 166 m 5
 378 96 l 6
 378 58 418 40 446 40 c 5
 446 0 l 5
 194 0 l 5
 194 40 l 5
 214 40 l 6
 242 40 286 54 286 96 c 6
 286 166 l 5
 24 166 l 5
 24 206 l 5
 94 322 130 430 164 562 c 5
 306 562 l 5
 242 432 186 364 84 212 c 5
 286 212 l 5
 286 324 l 5
 378 422 l 5
 378 212 l 5
 800 212 l 5
 800 166 l 5
 378 166 l 5
EndSplineSet
Position2: "forward2 subtable" dx=1000 dy=0 dh=0 dv=0
Position2: "forward1 subtable" dx=500 dy=0 dh=0 dv=0
Position2: "back2 subtable" dx=-1000 dy=0 dh=0 dv=0
Position2: "back1 subtable" dx=-500 dy=0 dh=0 dv=0
Position2: "up1 subtable" dx=0 dy=200 dh=0 dv=0
Position2: "nudgeDown1 subtable" dx=0 dy=-100 dh=0 dv=0
Position2: "layer5 subtable" dx=0 dy=-2920 dh=0 dv=0
Position2: "layer4 subtable" dx=0 dy=-2190 dh=0 dv=0
Position2: "layer3 subtable" dx=0 dy=-1460 dh=0 dv=0
Position2: "layer2 subtable" dx=0 dy=-730 dh=0 dv=0
MultipleSubs2: "addSepRight subtable" four_slash sep
Ligature2: "LIGA_slashedFigures subtable" four plus
Ligature2: "LIGA_slashedFigures subtable" four slash
LCarets2: 1 0
EndChar

StartChar: five_slash
Encoding: 57346 57346 29
Width: 0
VWidth: 0
Flags: HMW
LayerCount: 4
Fore
SplineSet
344 186 m 0
 342 276 300 310 228 312 c 0
 182 312 146 298 118 272 c 1
 92 286 l 1
 96 562 l 1
 154 556 200 552 248 552 c 0
 294 552 320 554 376 558 c 1
 530 558 l 1
 530 744 l 1
 576 744 l 1
 576 558 l 1
 756 558 l 1
 756 512 l 1
 576 512 l 1
 576 324 l 1
 530 324 l 1
 530 512 l 1
 380 512 l 1
 348 476 304 454 234 454 c 0
 202 454 174 458 138 462 c 1
 136 336 l 1
 166 348 188 360 246 360 c 0
 348 360 448 300 450 184 c 0
 450 68 358 -8 240 -8 c 0
 124 -8 48 70 48 132 c 0
 48 178 76 204 116 204 c 0
 156 204 178 176 178 138 c 0
 178 96 158 98 158 74 c 0
 158 58 176 36 224 36 c 0
 296 36 344 86 344 186 c 0
EndSplineSet
Validated: 1
Layer: 2
SplineSet
344 186 m 0
 342 276 300 310 228 312 c 0
 182 312 146 298 118 272 c 1
 92 286 l 9
 96 562 l 1
 154 556 200 552 248 552 c 0
 294 552 320 554 376 558 c 1
 406 548 l 1
 372 492 326 454 234 454 c 3
 202 454 174 458 138 462 c 9
 136 336 l 17
 166 348 188 360 246 360 c 0
 348 360 448 300 450 184 c 0
 450 68 358 -8 240 -8 c 0
 124 -8 48 70 48 132 c 0
 48 178 76 204 116 204 c 0
 156 204 178 176 178 138 c 0
 178 96 158 98 158 74 c 0
 158 58 176 36 224 36 c 0
 296 36 344 86 344 186 c 0
756 558 m 1xe4
 756 512 l 1
 336 512 l 1
 376 558 l 1
 756 558 l 1xe4
576 324 m 1xe4
 530 324 l 1
 530 744 l 1
 576 744 l 1
 576 324 l 1xe4
EndSplineSet
Position2: "forward2 subtable" dx=1000 dy=0 dh=0 dv=0
Position2: "forward1 subtable" dx=500 dy=0 dh=0 dv=0
Position2: "back2 subtable" dx=-1000 dy=0 dh=0 dv=0
Position2: "back1 subtable" dx=-500 dy=0 dh=0 dv=0
Position2: "up1 subtable" dx=0 dy=200 dh=0 dv=0
Position2: "nudgeDown1 subtable" dx=0 dy=-100 dh=0 dv=0
Position2: "layer5 subtable" dx=0 dy=-2920 dh=0 dv=0
Position2: "layer4 subtable" dx=0 dy=-2190 dh=0 dv=0
Position2: "layer3 subtable" dx=0 dy=-1460 dh=0 dv=0
Position2: "layer2 subtable" dx=0 dy=-730 dh=0 dv=0
MultipleSubs2: "addSepRight subtable" five_slash sep
Ligature2: "LIGA_slashedFigures subtable" five slash
Ligature2: "LIGA_slashedFigures subtable" five plus
LCarets2: 1 0
EndChar

StartChar: six_slash
Encoding: 57347 57347 30
Width: 0
VWidth: 0
Flags: HMW
LayerCount: 4
Fore
SplineSet
263 270 m 0
 195 270 151 212 151 146 c 0
 151 82 185 36 247 36 c 0
 319 36 351 96 351 160 c 0
 351 224 325 270 263 270 c 0
141 256 m 1
 169 290 225 316 281 316 c 0
 391 316 453 242 453 162 c 0
 453 70 369 -8 259 -8 c 0
 109 -8 47 132 47 256 c 0
 47 366 93 446 165 500 c 1
 3 620 l 1
 29 658 l 1
 205 526 l 1
 261 556 327 570 393 570 c 1
 397 528 l 1
 341 524 291 514 251 492 c 1
 385 392 l 1
 359 354 l 1
 211 464 l 1
 167 422 141 358 141 256 c 1
EndSplineSet
Validated: 1
Layer: 2
SplineSet
3 620 m 5
 29 658 l 5
 385 392 l 5
 359 354 l 5
 3 620 l 5
141 256 m 5
 169 290 225 316 281 316 c 4
 391 316 453 242 453 162 c 4
 453 70 369 -8 259 -8 c 4
 109 -8 47 132 47 256 c 4
 47 462 213 570 393 570 c 5
 397 528 l 5
 245 518 141 460 141 256 c 5
263 270 m 4
 195 270 151 212 151 146 c 7
 151 82 185 36 247 36 c 4
 319 36 351 96 351 160 c 4
 351 224 325 270 263 270 c 4
EndSplineSet
Position2: "forward2 subtable" dx=1000 dy=0 dh=0 dv=0
Position2: "forward1 subtable" dx=500 dy=0 dh=0 dv=0
Position2: "back2 subtable" dx=-1000 dy=0 dh=0 dv=0
Position2: "back1 subtable" dx=-500 dy=0 dh=0 dv=0
Position2: "up1 subtable" dx=0 dy=200 dh=0 dv=0
Position2: "nudgeDown1 subtable" dx=0 dy=-100 dh=0 dv=0
Position2: "layer5 subtable" dx=0 dy=-2920 dh=0 dv=0
Position2: "layer4 subtable" dx=0 dy=-2190 dh=0 dv=0
Position2: "layer3 subtable" dx=0 dy=-1460 dh=0 dv=0
Position2: "layer2 subtable" dx=0 dy=-730 dh=0 dv=0
MultipleSubs2: "addSepRight subtable" six_slash sep
Ligature2: "LIGA_slashedFigures subtable" six slash
Ligature2: "LIGA_slashedFigures subtable" six plus
LCarets2: 1 0
EndChar

StartChar: seven_slash
Encoding: 57348 57348 31
Width: 0
VWidth: 0
Flags: HMW
LayerCount: 4
Fore
SplineSet
106 562 m 1
 106 538 106 526 120 526 c 0
 138 526 160 570 218 570 c 0
 244 570 262 562 276 552 c 1
 374 708 l 1
 416 686 l 1
 314 526 l 1
 324 520 334 516 346 516 c 0
 374 516 394 536 402 562 c 1
 446 562 l 1
 406 376 294 250 280 70 c 0
 276 16 246 -6 216 -6 c 0
 186 -6 160 18 160 60 c 0
 160 170 270 278 368 446 c 1
 346 448 312 458 278 466 c 1
 146 258 l 1
 106 280 l 1
 230 476 l 1
 208 482 190 484 178 484 c 0
 148 484 104 468 92 360 c 1
 54 360 l 1
 66 562 l 1
 106 562 l 1
EndSplineSet
Validated: 1
Layer: 2
SplineSet
104 560 m 7
 104 538 106 526 120 526 c 7
 138 526 160 570 218 570 c 4
 288 570 298 516 348 516 c 4
 376 516 395 534 404 557 c 4
 405 561 412 563 423 563 c 4
 434 563 445 558 444 553 c 4
 402 372 294 247 280 70 c 4
 276 16 246 -6 216 -6 c 4
 186 -6 156 18 156 60 c 4
 156 169 262.869116594 267.84535512 372 453 c 4
 373.830783292 456.106160417 374 459 368 457 c 4
 275 442 225 482 172 482 c 7
 142 482 104.461739066 473.578570896 91 363 c 4
 90.5017353712 358.907111978 81 357 72 357 c 7
 63 357 54 361 54 364 c 13
 66 562 l 6
 66 564 79 565 86 565 c 4
 91 565 104 562 104 560 c 7
146 258 m 5
 106 280 l 5
 374 708 l 5
 416 686 l 5
 146 258 l 5
EndSplineSet
Position2: "forward2 subtable" dx=1000 dy=0 dh=0 dv=0
Position2: "forward1 subtable" dx=500 dy=0 dh=0 dv=0
Position2: "back2 subtable" dx=-1000 dy=0 dh=0 dv=0
Position2: "back1 subtable" dx=-500 dy=0 dh=0 dv=0
Position2: "up1 subtable" dx=0 dy=200 dh=0 dv=0
Position2: "nudgeDown1 subtable" dx=0 dy=-100 dh=0 dv=0
Position2: "layer5 subtable" dx=0 dy=-2920 dh=0 dv=0
Position2: "layer4 subtable" dx=0 dy=-2190 dh=0 dv=0
Position2: "layer3 subtable" dx=0 dy=-1460 dh=0 dv=0
Position2: "layer2 subtable" dx=0 dy=-730 dh=0 dv=0
MultipleSubs2: "addSepRight subtable" seven_slash sep
Ligature2: "LIGA_slashedFigures subtable" seven plus
Ligature2: "LIGA_slashedFigures subtable" seven slash
LCarets2: 1 0
EndChar

StartChar: nine_slash
Encoding: 57349 57349 32
Width: 0
VWidth: 0
Flags: HMW
LayerCount: 4
Fore
SplineSet
235 292 m 0
 299 292 349 348 349 418 c 0
 349 476 315 526 253 526 c 0
 183 526 149 468 149 412 c 0
 149 340 173 292 235 292 c 0
357 300 m 1
 329 272 279 246 223 246 c 0
 107 246 47 322 47 410 c 0
 47 490 131 570 241 570 c 0
 383 570 453 462 453 342 c 0
 453 232 405 136 323 72 c 1
 477 -16 l 1
 455 -54 l 1
 283 46 l 1
 225 12 153 -8 73 -8 c 1
 71 34 l 1
 137 36 189 52 231 74 c 1
 67 170 l 1
 89 208 l 1
 271 102 l 1
 331 152 357 224 357 300 c 1
EndSplineSet
Validated: 1
Layer: 2
SplineSet
67 170 m 5
 89 208 l 5
 477 -16 l 5
 455 -54 l 5
 67 170 l 5
357 300 m 5
 329 272 279 246 223 246 c 4
 107 246 47 322 47 410 c 4
 47 490 131 570 241 570 c 4
 383 570 453 462 453 342 c 4
 453 142 295 -8 73 -8 c 5
 71 34 l 5
 271 42 357 164 357 300 c 5
235 292 m 4
 299 292 349 348 349 418 c 7
 349 476 315 526 253 526 c 4
 183 526 149 468 149 412 c 4
 149 340 173 292 235 292 c 4
EndSplineSet
Position2: "forward2 subtable" dx=1000 dy=0 dh=0 dv=0
Position2: "forward1 subtable" dx=500 dy=0 dh=0 dv=0
Position2: "back2 subtable" dx=-1000 dy=0 dh=0 dv=0
Position2: "back1 subtable" dx=-500 dy=0 dh=0 dv=0
Position2: "up1 subtable" dx=0 dy=200 dh=0 dv=0
Position2: "nudgeDown1 subtable" dx=0 dy=-100 dh=0 dv=0
Position2: "layer5 subtable" dx=0 dy=-2920 dh=0 dv=0
Position2: "layer4 subtable" dx=0 dy=-2190 dh=0 dv=0
Position2: "layer3 subtable" dx=0 dy=-1460 dh=0 dv=0
Position2: "layer2 subtable" dx=0 dy=-730 dh=0 dv=0
MultipleSubs2: "addSepRight subtable" nine_slash sep
Ligature2: "LIGA_slashedFigures subtable" nine plus
Ligature2: "LIGA_slashedFigures subtable" nine slash
LCarets2: 1 0
EndChar

StartChar: b_b
Encoding: 57350 57350 33
Width: 0
VWidth: 0
Flags: HMW
LayerCount: 4
Back
SplineSet
275 716 m 5
 275 286 l 5
 299 312 337 354 393 354 c 4
 447 354 499 320 499 240 c 4
 499 84 359 70 251 -46 c 5
 231 -46 l 5
 231 716 l 5
 275 716 l 5
275 26 m 5
 341 88 411 128 411 208 c 4
 411 264 387 290 355 290 c 4
 309 290 277 230 277 230 c 5
 275 26 l 5
45 716 m 5
 45 286 l 5
 69 312 103 354 157 354 c 4
 209 354 257 320 257 240 c 4
 257 84 129 70 21 -46 c 5
 1 -46 l 5
 1 716 l 5
 45 716 l 5
45 26 m 5
 111 88 181 128 181 208 c 4
 181 264 157 290 125 290 c 4
 79 290 47 230 47 230 c 5
 45 26 l 5
EndSplineSet
Fore
SplineSet
45 26 m 1
 111 88 181 128 181 208 c 0
 181 264 157 290 125 290 c 0
 79 290 47 230 47 230 c 1
 45 26 l 1
45 756 m 1
 45 286 l 1
 69 312 103 354 157 354 c 0
 185 354 213 344 231 322 c 1
 231 756 l 1
 275 756 l 1
 275 286 l 1
 299 312 337 354 393 354 c 0
 447 354 499 320 499 240 c 0
 499 84 359 70 251 -46 c 1
 231 -46 l 1
 231 138 l 1
 189 68 99 38 21 -46 c 1
 1 -46 l 1
 1 756 l 1
 45 756 l 1
275 26 m 1
 341 88 411 128 411 208 c 0
 411 264 387 290 355 290 c 0
 309 290 277 230 277 230 c 1
 275 26 l 1
EndSplineSet
Validated: 1
Layer: 2
SplineSet
275 656 m 5
 275 286 l 5
 299 312 337 354 393 354 c 4
 447 354 499 320 499 240 c 4
 499 84 359 70 251 -46 c 5
 231 -46 l 5
 231 656 l 5
 275 656 l 5
275 26 m 5
 341 88 417 132 417 212 c 4
 417 268 393 294 361 294 c 4
 315 294 277 230 277 230 c 5
 275 26 l 5
45 656 m 5
 45 286 l 5
 69 312 103 354 157 354 c 4
 209 354 257 320 257 240 c 4
 257 84 129 70 21 -46 c 5
 1 -46 l 5
 1 656 l 5
 45 656 l 5
45 26 m 5
 111 88 187 132 187 212 c 4
 187 268 163 294 131 294 c 4
 85 294 47 230 47 230 c 5
 45 26 l 5
EndSplineSet
Position2: "forward2 subtable" dx=1000 dy=0 dh=0 dv=0
Position2: "forward1 subtable" dx=500 dy=0 dh=0 dv=0
Position2: "back2 subtable" dx=-1000 dy=0 dh=0 dv=0
Position2: "back1 subtable" dx=-500 dy=0 dh=0 dv=0
Position2: "up1 subtable" dx=0 dy=200 dh=0 dv=0
Position2: "nudgeDown1 subtable" dx=0 dy=-100 dh=0 dv=0
Position2: "layer5 subtable" dx=0 dy=-2920 dh=0 dv=0
Position2: "layer4 subtable" dx=0 dy=-2190 dh=0 dv=0
Position2: "layer3 subtable" dx=0 dy=-1460 dh=0 dv=0
Position2: "layer2 subtable" dx=0 dy=-730 dh=0 dv=0
MultipleSubs2: "addSepRight subtable" b_b sep
Ligature2: "LIGA_accidentals subtable" b b
LCarets2: 1 0
EndChar

StartChar: parenleft_s_parenright
Encoding: 57357 57357 37
Width: 0
VWidth: 2280
Flags: W
VStem: -142 54<151.717 387.011> 588 54<152.989 388.283>
LayerCount: 4
Fore
SplineSet
588 270 m 0
 588 386 542 476 478 538 c 1
 498 558 l 1
 586 492 642 380 642 270 c 0
 642 160 586 48 498 -18 c 1
 478 2 l 1
 536 56 588 154 588 270 c 0
-88 270 m 0
 -88 154 -42 64 22 2 c 1
 2 -18 l 1
 -86 48 -142 160 -142 270 c 0
 -142 380 -86 492 2 558 c 1
 22 538 l 1
 -36 484 -88 386 -88 270 c 0
EndSplineSet
Refer: 17 35 N 1 0 0 1 0 0 2
Validated: 1
Position2: "forward2 subtable" dx=1000 dy=0 dh=0 dv=0
Position2: "forward1 subtable" dx=500 dy=0 dh=0 dv=0
Position2: "back2 subtable" dx=-1000 dy=0 dh=0 dv=0
Position2: "back1 subtable" dx=-500 dy=0 dh=0 dv=0
Position2: "up1 subtable" dx=0 dy=200 dh=0 dv=0
Position2: "nudgeDown1 subtable" dx=0 dy=-100 dh=0 dv=0
Position2: "layer5 subtable" dx=0 dy=-2920 dh=0 dv=0
Position2: "layer4 subtable" dx=0 dy=-2190 dh=0 dv=0
Position2: "layer3 subtable" dx=0 dy=-1460 dh=0 dv=0
Position2: "layer2 subtable" dx=0 dy=-730 dh=0 dv=0
MultipleSubs2: "addSepRight subtable" parenleft_s_parenright sep
Ligature2: "LIGA_parenthesizedAccidentals subtable" parenleft s parenright
Ligature2: "LIGA_parenthesizedAccidentals subtable" parenleft numbersign parenright
LCarets2: 2 0 0
EndChar

StartChar: parenleft_b_parenright
Encoding: 57358 57358 38
Width: 0
VWidth: 2280
Flags: W
VStem: -112 54<141.717 377.011> 558 54<142.989 378.283>
LayerCount: 4
Fore
SplineSet
558 260 m 0
 558 376 512 466 448 528 c 1
 468 548 l 1
 556 482 612 370 612 260 c 0
 612 150 556 38 468 -28 c 1
 448 -8 l 1
 506 46 558 144 558 260 c 0
-58 260 m 0
 -58 144 -12 54 52 -8 c 1
 32 -28 l 1
 -56 38 -112 150 -112 260 c 0
 -112 370 -56 482 32 548 c 1
 52 528 l 1
 -6 474 -58 376 -58 260 c 0
EndSplineSet
Refer: 12 98 S 1 0 0 1 32 0 2
Validated: 1
Position2: "forward2 subtable" dx=1000 dy=0 dh=0 dv=0
Position2: "forward1 subtable" dx=500 dy=0 dh=0 dv=0
Position2: "back2 subtable" dx=-1000 dy=0 dh=0 dv=0
Position2: "back1 subtable" dx=-500 dy=0 dh=0 dv=0
Position2: "up1 subtable" dx=0 dy=200 dh=0 dv=0
Position2: "nudgeDown1 subtable" dx=0 dy=-100 dh=0 dv=0
Position2: "layer5 subtable" dx=0 dy=-2920 dh=0 dv=0
Position2: "layer4 subtable" dx=0 dy=-2190 dh=0 dv=0
Position2: "layer3 subtable" dx=0 dy=-1460 dh=0 dv=0
Position2: "layer2 subtable" dx=0 dy=-730 dh=0 dv=0
MultipleSubs2: "addSepRight subtable" parenleft_b_parenright sep
Ligature2: "LIGA_parenthesizedAccidentals subtable" parenleft b parenright
LCarets2: 2 0 0
EndChar

StartChar: parenleft_n_parenright
Encoding: 57359 57359 39
Width: 0
VWidth: 2280
Flags: W
VStem: -119 54<121.717 357.011> 565 54<122.989 358.283>
LayerCount: 4
Fore
SplineSet
565 240 m 0
 565 356 519 446 455 508 c 1
 475 528 l 1
 563 462 619 350 619 240 c 0
 619 130 563 18 475 -48 c 1
 455 -28 l 1
 513 26 565 124 565 240 c 0
-65 240 m 0
 -65 124 -19 34 45 -28 c 1
 25 -48 l 1
 -63 18 -119 130 -119 240 c 0
 -119 350 -63 462 25 528 c 1
 45 508 l 1
 -13 454 -65 356 -65 240 c 0
EndSplineSet
Refer: 13 110 N 1 0 0 1 0 0 2
Validated: 1
Position2: "forward2 subtable" dx=1000 dy=0 dh=0 dv=0
Position2: "forward1 subtable" dx=500 dy=0 dh=0 dv=0
Position2: "back2 subtable" dx=-1000 dy=0 dh=0 dv=0
Position2: "back1 subtable" dx=-500 dy=0 dh=0 dv=0
Position2: "up1 subtable" dx=0 dy=200 dh=0 dv=0
Position2: "nudgeDown1 subtable" dx=0 dy=-100 dh=0 dv=0
Position2: "layer5 subtable" dx=0 dy=-2920 dh=0 dv=0
Position2: "layer4 subtable" dx=0 dy=-2190 dh=0 dv=0
Position2: "layer3 subtable" dx=0 dy=-1460 dh=0 dv=0
Position2: "layer2 subtable" dx=0 dy=-730 dh=0 dv=0
MultipleSubs2: "addSepRight subtable" parenleft_n_parenright sep
Ligature2: "LIGA_parenthesizedAccidentals subtable" parenleft n parenright
LCarets2: 2 0 0
EndChar

StartChar: parenleft_x_parenright
Encoding: 57360 57360 40
Width: 0
VWidth: 2280
Flags: W
VStem: -132 50<107.217 331.678> 582 50<108.322 332.783>
LayerCount: 4
Fore
SplineSet
582 220 m 0
 582 322 538 400 478 454 c 1
 500 476 l 1
 582 418 632 318 632 220 c 0
 632 122 582 22 500 -36 c 1
 478 -14 l 1
 530 34 582 118 582 220 c 0
-82 220 m 0
 -82 118 -38 40 22 -14 c 1
 0 -36 l 1
 -82 22 -132 122 -132 220 c 0
 -132 318 -82 418 0 476 c 1
 22 454 l 1
 -30 406 -82 322 -82 220 c 0
EndSplineSet
Refer: 14 120 N 1 0 0 1 0 40 2
Validated: 1
Position2: "forward2 subtable" dx=1000 dy=0 dh=0 dv=0
Position2: "forward1 subtable" dx=500 dy=0 dh=0 dv=0
Position2: "back2 subtable" dx=-1000 dy=0 dh=0 dv=0
Position2: "back1 subtable" dx=-500 dy=0 dh=0 dv=0
Position2: "up1 subtable" dx=0 dy=200 dh=0 dv=0
Position2: "nudgeDown1 subtable" dx=0 dy=-100 dh=0 dv=0
Position2: "layer5 subtable" dx=0 dy=-2920 dh=0 dv=0
Position2: "layer4 subtable" dx=0 dy=-2190 dh=0 dv=0
Position2: "layer3 subtable" dx=0 dy=-1460 dh=0 dv=0
Position2: "layer2 subtable" dx=0 dy=-730 dh=0 dv=0
MultipleSubs2: "addSepRight subtable" parenleft_x_parenright sep
Ligature2: "LIGA_parenthesizedAccidentals subtable" parenleft x parenright
LCarets2: 2 0 0
EndChar

StartChar: parenleft_b_b_parenright
Encoding: 57361 57361 41
Width: 0
VWidth: 2280
Flags: W
VStem: -212 54<141.717 377.011> 658 54<142.989 378.283>
LayerCount: 4
Fore
SplineSet
658 260 m 0
 658 376 612 466 548 528 c 1
 568 548 l 1
 656 482 712 370 712 260 c 0
 712 150 656 38 568 -28 c 1
 548 -8 l 1
 606 46 658 144 658 260 c 0
-158 260 m 0
 -158 144 -112 54 -48 -8 c 1
 -68 -28 l 1
 -156 38 -212 150 -212 260 c 0
 -212 370 -156 482 -68 548 c 1
 -48 528 l 1
 -106 474 -158 376 -158 260 c 0
EndSplineSet
Refer: 33 57350 N 1 0 0 1 28 0 2
Validated: 1
Position2: "forward2 subtable" dx=1000 dy=0 dh=0 dv=0
Position2: "forward1 subtable" dx=500 dy=0 dh=0 dv=0
Position2: "back2 subtable" dx=-1000 dy=0 dh=0 dv=0
Position2: "back1 subtable" dx=-500 dy=0 dh=0 dv=0
Position2: "up1 subtable" dx=0 dy=200 dh=0 dv=0
Position2: "nudgeDown1 subtable" dx=0 dy=-100 dh=0 dv=0
Position2: "layer5 subtable" dx=0 dy=-2920 dh=0 dv=0
Position2: "layer4 subtable" dx=0 dy=-2190 dh=0 dv=0
Position2: "layer3 subtable" dx=0 dy=-1460 dh=0 dv=0
Position2: "layer2 subtable" dx=0 dy=-730 dh=0 dv=0
MultipleSubs2: "addSepRight subtable" parenleft_b_b_parenright sep
Ligature2: "LIGA_parenthesizedAccidentals subtable" parenleft b_b parenright
Ligature2: "LIGA_parenthesizedAccidentals subtable" parenleft b b parenright
LCarets2: 3 0 0 0
EndChar

StartChar: bracketleft_s_bracketright
Encoding: 57362 57362 42
Width: 0
VWidth: 2280
Flags: W
HStem: -42 48<-87 5 495 587> 518 48<-87 5 495 587>
VStem: -135 140<-42 6 518 566> -135 48<6 518> 495 140<-42 6 518 566> 587 48<6 518>
LayerCount: 4
Fore
SplineSet
587 518 m 1xc4
 495 518 l 1
 495 566 l 1
 635 566 l 1
 635 -42 l 1
 495 -42 l 1
 495 6 l 1xc8
 587 6 l 1
 587 518 l 1xc4
-87 6 m 1xd0
 5 6 l 1
 5 -42 l 1
 -135 -42 l 1
 -135 566 l 1
 5 566 l 1
 5 518 l 1xe0
 -87 518 l 1
 -87 6 l 1xd0
EndSplineSet
Refer: 17 35 N 1 0 0 1 0 0 2
Validated: 1
Position2: "forward2 subtable" dx=1000 dy=0 dh=0 dv=0
Position2: "forward1 subtable" dx=500 dy=0 dh=0 dv=0
Position2: "back2 subtable" dx=-1000 dy=0 dh=0 dv=0
Position2: "back1 subtable" dx=-500 dy=0 dh=0 dv=0
Position2: "up1 subtable" dx=0 dy=200 dh=0 dv=0
Position2: "nudgeDown1 subtable" dx=0 dy=-100 dh=0 dv=0
Position2: "layer5 subtable" dx=0 dy=-2920 dh=0 dv=0
Position2: "layer4 subtable" dx=0 dy=-2190 dh=0 dv=0
Position2: "layer3 subtable" dx=0 dy=-1460 dh=0 dv=0
Position2: "layer2 subtable" dx=0 dy=-730 dh=0 dv=0
MultipleSubs2: "addSepRight subtable" bracketleft_s_bracketright sep
Ligature2: "LIGA_parenthesizedAccidentals subtable" bracketleft numbersign bracketright
Ligature2: "LIGA_parenthesizedAccidentals subtable" bracketleft s bracketright
LCarets2: 2 0 0
EndChar

StartChar: bracketleft_b_bracketright
Encoding: 57363 57363 43
Width: 0
VWidth: 2280
Flags: W
HStem: -32 48<-62 30 470 562> 528 48<-62 30 470 562>
VStem: -110 140<-32 16 528 576> -110 48<16 528> 470 140<-32 16 528 576> 562 48<16 528>
LayerCount: 4
Fore
SplineSet
562 528 m 1xc4
 470 528 l 1
 470 576 l 1
 610 576 l 1
 610 -32 l 1
 470 -32 l 1
 470 16 l 1xc8
 562 16 l 1
 562 528 l 1xc4
-62 16 m 1xd0
 30 16 l 1
 30 -32 l 1
 -110 -32 l 1
 -110 576 l 1
 30 576 l 1
 30 528 l 1xe0
 -62 528 l 1
 -62 16 l 1xd0
EndSplineSet
Refer: 12 98 N 1 0 0 1 28 0 2
Validated: 1
Position2: "forward2 subtable" dx=1000 dy=0 dh=0 dv=0
Position2: "forward1 subtable" dx=500 dy=0 dh=0 dv=0
Position2: "back2 subtable" dx=-1000 dy=0 dh=0 dv=0
Position2: "back1 subtable" dx=-500 dy=0 dh=0 dv=0
Position2: "up1 subtable" dx=0 dy=200 dh=0 dv=0
Position2: "nudgeDown1 subtable" dx=0 dy=-100 dh=0 dv=0
Position2: "layer5 subtable" dx=0 dy=-2920 dh=0 dv=0
Position2: "layer4 subtable" dx=0 dy=-2190 dh=0 dv=0
Position2: "layer3 subtable" dx=0 dy=-1460 dh=0 dv=0
Position2: "layer2 subtable" dx=0 dy=-730 dh=0 dv=0
MultipleSubs2: "addSepRight subtable" bracketleft_b_bracketright sep
Ligature2: "LIGA_parenthesizedAccidentals subtable" bracketleft b bracketright
LCarets2: 2 0 0
EndChar

StartChar: bracketleft_n_bracketright
Encoding: 57364 57364 44
Width: 0
VWidth: 2280
Flags: W
HStem: -52 48<-63 29 471 563> 508 48<-63 29 471 563>
VStem: -111 140<-52 -4 508 556> -111 48<-4 508> 471 140<-52 -4 508 556> 563 48<-4 508>
LayerCount: 4
Fore
SplineSet
563 508 m 1xc4
 471 508 l 1
 471 556 l 1
 611 556 l 1
 611 -52 l 1
 471 -52 l 1
 471 -4 l 1xc8
 563 -4 l 1
 563 508 l 1xc4
-63 -4 m 1xd0
 29 -4 l 1
 29 -52 l 1
 -111 -52 l 1
 -111 556 l 1
 29 556 l 1
 29 508 l 1xe0
 -63 508 l 1
 -63 -4 l 1xd0
EndSplineSet
Refer: 13 110 N 1 0 0 1 0 0 2
Validated: 1
Position2: "forward2 subtable" dx=1000 dy=0 dh=0 dv=0
Position2: "forward1 subtable" dx=500 dy=0 dh=0 dv=0
Position2: "back2 subtable" dx=-1000 dy=0 dh=0 dv=0
Position2: "back1 subtable" dx=-500 dy=0 dh=0 dv=0
Position2: "up1 subtable" dx=0 dy=200 dh=0 dv=0
Position2: "nudgeDown1 subtable" dx=0 dy=-100 dh=0 dv=0
Position2: "layer5 subtable" dx=0 dy=-2920 dh=0 dv=0
Position2: "layer4 subtable" dx=0 dy=-2190 dh=0 dv=0
Position2: "layer3 subtable" dx=0 dy=-1460 dh=0 dv=0
Position2: "layer2 subtable" dx=0 dy=-730 dh=0 dv=0
MultipleSubs2: "addSepRight subtable" bracketleft_n_bracketright sep
Ligature2: "LIGA_parenthesizedAccidentals subtable" bracketleft n bracketright
LCarets2: 2 0 0
EndChar

StartChar: bracketleft_x_bracketright
Encoding: 57365 57365 45
Width: 0
VWidth: 2280
Flags: W
HStem: -22 48<-83 -11 511 583> 378 48<-83 -11 511 583>
VStem: -131 120<-22 26 378 426> -131 48<26 378> 511 120<-22 26 378 426> 583 48<26 378>
LayerCount: 4
Fore
SplineSet
583 378 m 1xc4
 511 378 l 1
 511 426 l 1
 631 426 l 1
 631 -22 l 1
 511 -22 l 1
 511 26 l 1xc8
 583 26 l 1
 583 378 l 1xc4
-83 26 m 1xd0
 -11 26 l 1
 -11 -22 l 1
 -131 -22 l 1
 -131 426 l 1
 -11 426 l 1
 -11 378 l 1xe0
 -83 378 l 1
 -83 26 l 1xd0
EndSplineSet
Refer: 14 120 N 1 0 0 1 1 20 2
Validated: 1
Position2: "forward2 subtable" dx=1000 dy=0 dh=0 dv=0
Position2: "forward1 subtable" dx=500 dy=0 dh=0 dv=0
Position2: "back2 subtable" dx=-1000 dy=0 dh=0 dv=0
Position2: "back1 subtable" dx=-500 dy=0 dh=0 dv=0
Position2: "up1 subtable" dx=0 dy=200 dh=0 dv=0
Position2: "nudgeDown1 subtable" dx=0 dy=-100 dh=0 dv=0
Position2: "layer5 subtable" dx=0 dy=-2920 dh=0 dv=0
Position2: "layer4 subtable" dx=0 dy=-2190 dh=0 dv=0
Position2: "layer3 subtable" dx=0 dy=-1460 dh=0 dv=0
Position2: "layer2 subtable" dx=0 dy=-730 dh=0 dv=0
MultipleSubs2: "addSepRight subtable" bracketleft_x_bracketright sep
Ligature2: "LIGA_parenthesizedAccidentals subtable" bracketleft x bracketright
LCarets2: 2 0 0
EndChar

StartChar: bracketleft_b_b_bracketright
Encoding: 57366 57366 46
Width: 0
VWidth: 2280
Flags: W
HStem: -32 48<-157 -65 565 657> 528 48<-157 -65 565 657>
VStem: -205 140<-32 16 528 576> -205 48<16 528> 565 140<-32 16 528 576> 657 48<16 528>
LayerCount: 4
Fore
SplineSet
657 528 m 1xc4
 565 528 l 1
 565 576 l 1
 705 576 l 1
 705 -32 l 1
 565 -32 l 1
 565 16 l 1xc8
 657 16 l 1
 657 528 l 1xc4
-157 16 m 1xd0
 -65 16 l 1
 -65 -32 l 1
 -205 -32 l 1
 -205 576 l 1
 -65 576 l 1
 -65 528 l 1xe0
 -157 528 l 1
 -157 16 l 1xd0
EndSplineSet
Refer: 33 57350 N 1 0 0 1 25 0 2
Validated: 1
Position2: "forward2 subtable" dx=1000 dy=0 dh=0 dv=0
Position2: "forward1 subtable" dx=500 dy=0 dh=0 dv=0
Position2: "back2 subtable" dx=-1000 dy=0 dh=0 dv=0
Position2: "back1 subtable" dx=-500 dy=0 dh=0 dv=0
Position2: "up1 subtable" dx=0 dy=200 dh=0 dv=0
Position2: "nudgeDown1 subtable" dx=0 dy=-100 dh=0 dv=0
Position2: "layer5 subtable" dx=0 dy=-2920 dh=0 dv=0
Position2: "layer4 subtable" dx=0 dy=-2190 dh=0 dv=0
Position2: "layer3 subtable" dx=0 dy=-1460 dh=0 dv=0
Position2: "layer2 subtable" dx=0 dy=-730 dh=0 dv=0
MultipleSubs2: "addSepRight subtable" bracketleft_b_b_bracketright sep
Ligature2: "LIGA_parenthesizedAccidentals subtable" bracketleft b_b bracketright
Ligature2: "LIGA_parenthesizedAccidentals subtable" bracketleft b b bracketright
LCarets2: 3 0 0 0
EndChar

StartChar: comma
Encoding: 44 44 47
Width: 0
VWidth: 0
Flags: W
LayerCount: 4
Back
SplineSet
226 848 m 1
 274 848 l 1
 274 736 l 1
 226 736 l 1
 226 848 l 1
226 448 m 1
 274 448 l 1
 274 336 l 1
 226 336 l 1
 226 448 l 1
226 248 m 1
 274 248 l 1
 274 136 l 1
 226 136 l 1
 226 248 l 1
226 48 m 1
 274 48 l 1
 274 -64 l 1
 226 -64 l 1
 226 48 l 1
226 648 m 1
 274 648 l 1
 274 536 l 1
 226 536 l 1
 226 648 l 1
226 -152 m 1
 274 -152 l 1
 274 -264 l 1
 226 -264 l 1
 226 -152 l 1
EndSplineSet
Fore
Validated: 1
Substitution2: "sep5 subtable" sep.5
Substitution2: "sep4 subtable" sep.4
Substitution2: "sep3 subtable" sep.3
Substitution2: "sep2 subtable" sep.2
Substitution2: "sep1 subtable" sep.1
MultipleSubs2: "addSepRight subtable" comma sep
EndChar

StartChar: i_zero
Encoding: 57380 57380 50
Width: 0
VWidth: 0
Flags: HMW
LayerCount: 4
Fore
SplineSet
30 202 m 0
 30 400 172 572 304 572 c 0
 412 572 470 476 470 358 c 0
 470 160 328 -10 196 -10 c 0
 88 -10 30 84 30 202 c 0
374 424 m 0
 374 482 356 526 304 526 c 0
 238 526 180 412 156 316 c 0
 138 248 124 186 124 138 c 0
 124 78 144 34 196 34 c 0
 262 34 308 126 340 242 c 0
 356 296 374 372 374 424 c 0
EndSplineSet
Validated: 1
Ligature2: "LIGA_italicFigures subtable" i zero
LCarets2: 1 0
EndChar

StartChar: i_one
Encoding: 57381 57381 51
Width: 0
VWidth: 0
Flags: HMW
LayerCount: 4
Fore
SplineSet
278 112 m 2
 276 106 276 98 276 92 c 0
 276 90 276 90 276 88 c 0
 276 56 306 42 336 42 c 2
 362 42 l 17
 356 0 l 9
 60 0 l 17
 66 42 l 9
 112 42 l 2
 148 42 174 64 188 114 c 2
 274 438 l 2
 274 442 276 444 276 448 c 0
 276 456 270 460 260 460 c 0
 254 460 244 458 232 454 c 2
 166 430 l 1
 154 464 l 9
 328 562 l 17
 398 562 l 9
 278 112 l 2
EndSplineSet
Validated: 1
Ligature2: "LIGA_italicFigures subtable" i one
LCarets2: 1 0
EndChar

StartChar: i_two
Encoding: 57382 57382 52
Width: 0
VWidth: 0
Flags: HMW
LayerCount: 4
Fore
SplineSet
169 342 m 0
 133 342 109 376 109 414 c 0
 109 492 197 568 313 568 c 0
 415 568 493 500 493 420 c 0
 493 300 385 276 297 236 c 0
 275 224 191 182 129 114 c 1
 221 110 231 88 309 88 c 0
 357 88 391 110 401 158 c 1
 435 152 l 1
 433 70 383 -10 303 -10 c 0
 227 -10 179 60 113 60 c 0
 79 60 65 44 47 6 c 1
 7 8 l 1
 35 110 135 194 205 238 c 0
 333 320 379 352 379 440 c 0
 379 492 349 524 289 524 c 0
 239 524 205 500 203 470 c 0
 203 450 233 446 233 408 c 0
 233 376 209 342 169 342 c 0
EndSplineSet
Validated: 1
Ligature2: "LIGA_italicFigures subtable" i two
LCarets2: 1 0
EndChar

StartChar: i_three
Encoding: 57383 57383 53
Width: 0
VWidth: 0
Flags: HMW
LayerCount: 4
Fore
SplineSet
90 210 m 0
 126 210 144 186 144 156 c 0
 144 114 108 98 108 74 c 0
 108 50 152 36 198 36 c 0
 268 36 318 88 318 174 c 0
 318 226 288 264 194 268 c 1
 186 268 l 1
 190 310 l 1
 198 310 l 2
 314 310 378 346 378 446 c 0
 378 496 350 528 290 528 c 0
 242 528 208 508 208 488 c 0
 208 474 238 464 238 430 c 0
 238 400 222 372 182 372 c 0
 152 372 122 392 122 434 c 0
 122 502 200 568 304 568 c 0
 400 568 480 508 480 434 c 0
 480 356 418 316 356 298 c 0
 348 296 338 296 338 286 c 0
 338 282 342 282 348 278 c 0
 398 256 426 212 426 162 c 0
 426 62 330 -6 208 -6 c 0
 92 -6 20 60 20 124 c 0
 20 176 58 210 90 210 c 0
EndSplineSet
Validated: 1
Ligature2: "LIGA_italicFigures subtable" i three
LCarets2: 1 0
EndChar

StartChar: i_four
Encoding: 57384 57384 54
Width: 0
VWidth: 0
Flags: HMW
LayerCount: 4
Fore
SplineSet
372 166 m 1
 352 96 l 2
 350 92 350 88 350 84 c 0
 350 54 386 40 412 40 c 1
 404 0 l 1
 152 0 l 1
 160 40 l 1
 180 40 l 2
 208 40 250 54 260 96 c 2
 280 166 l 1
 32 166 l 1
 38 206 l 1
 138 322 212 430 280 562 c 1
 422 562 l 1
 324 432 240 364 98 212 c 1
 290 212 l 1
 320 324 l 1
 440 422 l 1
 382 212 l 1
 474 212 l 1
 468 166 l 1
 372 166 l 1
EndSplineSet
Validated: 1
Ligature2: "LIGA_italicFigures subtable" i four
LCarets2: 1 0
EndChar

StartChar: i_five
Encoding: 57385 57385 55
Width: 0
VWidth: 0
Flags: HMW
LayerCount: 4
Fore
SplineSet
193 -6 m 0
 79 -6 13 66 13 128 c 0
 13 180 45 210 85 210 c 0
 125 210 145 188 145 154 c 0
 145 104 113 100 113 72 c 0
 113 56 135 38 181 38 c 0
 257 38 331 118 331 222 c 0
 331 280 295 312 235 312 c 0
 193 312 157 298 125 276 c 1
 103 292 l 9
 181 564 l 1
 255 554 309 548 383 548 c 0
 413 548 445 550 481 554 c 1
 487 540 l 1
 441 488 387 452 303 452 c 0
 263 452 235 458 195 464 c 9
 161 340 l 17
 191 350 211 360 261 360 c 0
 357 360 435 302 435 206 c 0
 435 76 307 -6 193 -6 c 0
EndSplineSet
Validated: 1
Ligature2: "LIGA_italicFigures subtable" i five
LCarets2: 1 0
EndChar

StartChar: i_six
Encoding: 57386 57386 56
Width: 0
VWidth: 0
Flags: HMW
LayerCount: 4
Fore
SplineSet
399 372 m 0
 359 372 341 400 341 430 c 0
 341 460 361 470 361 498 c 0
 361 512 347 526 313 526 c 0
 205 526 175 396 143 280 c 1
 181 316 213 336 267 336 c 0
 365 336 415 262 415 186 c 0
 415 76 315 -6 207 -6 c 0
 85 -6 35 92 35 206 c 0
 35 240 39 274 49 306 c 0
 97 490 209 568 317 568 c 0
 411 568 465 504 465 448 c 0
 465 406 435 372 399 372 c 0
205 36 m 0
 267 36 315 102 315 194 c 0
 315 248 295 290 245 290 c 0
 181 290 145 236 127 160 c 0
 125 148 123 136 123 126 c 0
 123 68 155 36 205 36 c 0
EndSplineSet
Validated: 1
Ligature2: "LIGA_italicFigures subtable" i six
LCarets2: 1 0
EndChar

StartChar: i_seven
Encoding: 57387 57387 57
Width: 0
VWidth: 0
Flags: HMW
LayerCount: 4
Fore
SplineSet
396 436 m 1
 346 446 266 478 216 478 c 0
 176 478 144 462 110 354 c 1
 72 356 l 1
 126 568 l 1
 166 566 l 1
 164 554 162 546 162 540 c 0
 162 534 164 530 172 530 c 0
 190 530 220 570 276 570 c 0
 348 570 350 514 398 512 c 0
 426 512 450 530 462 556 c 1
 500 552 l 1
 424 368 282 244 234 66 c 0
 220 14 188 -8 160 -8 c 0
 130 -8 106 12 106 46 c 0
 106 50 108 54 108 60 c 0
 130 170 276 286 396 436 c 1
EndSplineSet
Validated: 1
Ligature2: "LIGA_italicFigures subtable" i seven
EndChar

StartChar: i_eight
Encoding: 57388 57388 58
Width: 0
VWidth: 3220
Flags: HMW
LayerCount: 4
Fore
SplineSet
297 524 m 0
 245 524 197 500 197 448 c 0
 197 396 257 350 311 312 c 1
 381 334 417 378 417 432 c 0
 417 486 369 524 297 524 c 0
223 32 m 0
 289 32 339 70 339 122 c 0
 339 182 261 226 211 260 c 1
 153 254 87 212 87 142 c 0
 87 92 137 32 223 32 c 0
23 136 m 0
 23 222 97 276 167 296 c 1
 139 320 113 356 113 406 c 0
 113 504 201 572 303 572 c 0
 411 572 477 504 477 428 c 0
 477 350 427 314 357 282 c 1
 393 250 423 212 423 160 c 0
 423 48 319 -14 227 -14 c 0
 107 -14 23 58 23 136 c 0
EndSplineSet
Validated: 1
Ligature2: "LIGA_italicFigures subtable" i eight
EndChar

StartChar: i_nine
Encoding: 57389 57389 59
Width: 0
VWidth: 0
Flags: HMW
LayerCount: 4
Fore
SplineSet
28 96 m 0
 28 136 54 166 90 166 c 0
 128 166 150 138 150 100 c 0
 150 60 156 42 186 42 c 0
 302 42 348 210 364 272 c 1
 326 244 288 228 238 228 c 0
 136 228 76 290 76 370 c 0
 76 484 174 568 290 568 c 0
 416 568 472 466 472 356 c 0
 472 136 302 -4 170 -4 c 0
 74 -4 28 50 28 96 c 0
178 356 m 0
 178 302 202 272 256 272 c 0
 324 272 386 332 386 426 c 0
 386 486 350 524 294 524 c 0
 216 524 178 440 178 356 c 0
EndSplineSet
Validated: 1
Ligature2: "LIGA_italicFigures subtable" i nine
EndChar

StartChar: sep
Encoding: 57600 57600 74
Width: 0
VWidth: 0
Flags: HMW
LayerCount: 4
Back
SplineSet
226 -208 m 1
 274 -208 l 1
 274 -260 l 1
 226 -260 l 1
 226 -208 l 1
226 -58 m 1
 274 -58 l 1
 274 -110 l 1
 226 -110 l 1
 226 -58 l 1
226 92 m 1
 274 92 l 1
 274 40 l 1
 226 40 l 1
 226 92 l 1
226 242 m 1
 274 242 l 1
 274 190 l 1
 226 190 l 1
 226 242 l 1
226 392 m 1
 274 392 l 1
 274 340 l 1
 226 340 l 1
 226 392 l 1
226 542 m 1
 274 542 l 1
 274 490 l 1
 226 490 l 1
 226 542 l 1
226 692 m 1
 274 692 l 1
 274 640 l 1
 226 640 l 1
 226 692 l 1
226 842 m 1
 274 842 l 1
 274 790 l 1
 226 790 l 1
 226 842 l 1
EndSplineSet
Fore
Validated: 1
Substitution2: "sep5 subtable" sep.5
Substitution2: "sep4 subtable" sep.4
Substitution2: "sep3 subtable" sep.3
Substitution2: "sep2 subtable" sep.2
Substitution2: "sep1 subtable" sep.1
EndChar

StartChar: sep.1
Encoding: 57601 57601 75
Width: 0
VWidth: 0
Flags: HMW
LayerCount: 4
Back
SplineSet
178 1038 m 5
 216.578125 1038 233.80859375 1044.46582031 238 1078 c 5
 270 1078 l 5
 270 810 l 5
 322 810 l 5
 322 780 l 5
 178 780 l 5
 178 810 l 5
 232 810 l 5
 232 1010 l 5
 178 1010 l 5
 178 1038 l 5
226 -208 m 5
 274 -208 l 5
 274 -260 l 5
 226 -260 l 5
 226 -208 l 5
226 -58 m 5
 274 -58 l 5
 274 -110 l 5
 226 -110 l 5
 226 -58 l 5
226 92 m 5
 274 92 l 5
 274 40 l 5
 226 40 l 5
 226 92 l 5
226 242 m 5
 274 242 l 5
 274 190 l 5
 226 190 l 5
 226 242 l 5
226 392 m 5
 274 392 l 5
 274 340 l 5
 226 340 l 5
 226 392 l 5
226 542 m 5
 274 542 l 5
 274 490 l 5
 226 490 l 5
 226 542 l 5
226 692 m 5
 274 692 l 5
 274 640 l 5
 226 640 l 5
 226 692 l 5
EndSplineSet
Fore
Validated: 1
Substitution2: "sepC subtable" sep.1.C
Substitution2: "sepB subtable" sep.1.B
Substitution2: "sepA subtable" sep.1.A
EndChar

StartChar: sep.2
Encoding: 57602 57602 76
Width: 0
VWidth: 0
Flags: HMW
LayerCount: 4
Back
SplineSet
240 1084 m 4
 294 1084 330 1056 330 1002 c 4
 330 962 314 940 296 916 c 4
 290 908 282 900 274 892 c 4
 262 878 248 862 232 848 c 4
 216 834 206 822 196 814 c 5
 342 814 l 5
 342 780 l 5
 158 780 l 5
 158 822 l 5
 184 846 206 870 230 894 c 4
 252 918 268 938 276 954 c 4
 284 970 288 984 288 1000 c 4
 288 1032 270 1050 238 1050 c 4
 224 1050 206 1044 196 1040 c 4
 190 1038 184 1036 178 1032 c 4
 172 1028 170 1026 166 1024 c 5
 164 1024 l 5
 164 1066 l 5
 180 1074 214 1084 240 1084 c 4
226 -208 m 5
 274 -208 l 5
 274 -260 l 5
 226 -260 l 5
 226 -208 l 5
226 -58 m 5
 274 -58 l 5
 274 -110 l 5
 226 -110 l 5
 226 -58 l 5
226 92 m 5
 274 92 l 5
 274 40 l 5
 226 40 l 5
 226 92 l 5
226 242 m 5
 274 242 l 5
 274 190 l 5
 226 190 l 5
 226 242 l 5
226 392 m 5
 274 392 l 5
 274 340 l 5
 226 340 l 5
 226 392 l 5
226 542 m 5
 274 542 l 5
 274 490 l 5
 226 490 l 5
 226 542 l 5
226 692 m 5
 274 692 l 5
 274 640 l 5
 226 640 l 5
 226 692 l 5
EndSplineSet
Fore
Validated: 1
Substitution2: "sepC subtable" sep.2.C
Substitution2: "sepB subtable" sep.2.B
Substitution2: "sepA subtable" sep.2.A
EndChar

StartChar: sep.3
Encoding: 57603 57603 77
Width: 0
VWidth: 0
Flags: HMW
LayerCount: 4
Back
SplineSet
294 1008 m 0
 294 1038 272 1050 242 1050 c 0
 220 1050 196 1040 182 1032 c 0
 178 1030 174 1026 170 1024 c 1
 168 1024 l 1
 168 1066 l 1
 186 1074 220 1084 246 1084 c 256
 298 1084 334 1064 334 1012 c 0
 334 976 310 954 280 946 c 1
 280 942 l 1
 294 938 310 934 320 924 c 256
 332 912 340 892 340 868 c 0
 340 838 330 818 314 802 c 0
 298 782 274 774 240 774 c 0
 226 774 210 776 196 780 c 0
 182 784 170 786 160 792 c 1
 160 834 l 1
 162 834 l 1
 178 822 210 808 238 808 c 0
 278 808 300 830 300 872 c 256
 300 912 278 924 238 924 c 2
 220 924 l 1
 220 958 l 1
 234 958 l 2
 252 958 266 962 278 970 c 0
 290 978 294 992 294 1008 c 0
226 -208 m 1
 274 -208 l 1
 274 -260 l 1
 226 -260 l 1
 226 -208 l 1
226 -58 m 1
 274 -58 l 1
 274 -110 l 1
 226 -110 l 1
 226 -58 l 1
226 92 m 1
 274 92 l 1
 274 40 l 1
 226 40 l 1
 226 92 l 1
226 242 m 1
 274 242 l 1
 274 190 l 1
 226 190 l 1
 226 242 l 1
226 392 m 1
 274 392 l 1
 274 340 l 1
 226 340 l 1
 226 392 l 1
226 542 m 1
 274 542 l 1
 274 490 l 1
 226 490 l 1
 226 542 l 1
226 692 m 1
 274 692 l 1
 274 640 l 1
 226 640 l 1
 226 692 l 1
EndSplineSet
Fore
Validated: 1
Substitution2: "sepC subtable" sep.3.C
Substitution2: "sepB subtable" sep.3.B
Substitution2: "sepA subtable" sep.3.A
EndChar

StartChar: sep.4
Encoding: 57604 57604 78
Width: 0
VWidth: 0
Flags: HMW
LayerCount: 4
Back
SplineSet
332 882 m 1
 296 882 l 1
 296 780 l 1
 260 780 l 1
 260 882 l 1
 128 882 l 1
 128 924 l 1
 260 1078 l 1
 296 1078 l 1
 296 914 l 1
 332 914 l 1
 332 882 l 1
260 914 m 1
 260 1030 l 1
 160 914 l 1
 260 914 l 1
226 -208 m 1
 274 -208 l 1
 274 -260 l 1
 226 -260 l 1
 226 -208 l 1
226 -58 m 1
 274 -58 l 1
 274 -110 l 1
 226 -110 l 1
 226 -58 l 1
226 92 m 1
 274 92 l 1
 274 40 l 1
 226 40 l 1
 226 92 l 1
226 242 m 1
 274 242 l 1
 274 190 l 1
 226 190 l 1
 226 242 l 1
226 392 m 1
 274 392 l 1
 274 340 l 1
 226 340 l 1
 226 392 l 1
226 542 m 1
 274 542 l 1
 274 490 l 1
 226 490 l 1
 226 542 l 1
226 692 m 1
 274 692 l 1
 274 640 l 1
 226 640 l 1
 226 692 l 1
EndSplineSet
Fore
Validated: 1
Substitution2: "sepC subtable" sep.4.C
Substitution2: "sepB subtable" sep.4.B
Substitution2: "sepA subtable" sep.4.A
EndChar

StartChar: sep.5
Encoding: 57605 57605 79
Width: 0
VWidth: 0
Flags: HMW
LayerCount: 4
Back
SplineSet
240 966 m 4
 302 966 338 938 338 874 c 4
 338 814 300 774 240 774 c 4
 210 774 180 782 162 790 c 5
 162 832 l 5
 164 832 l 5
 182 820 210 808 240 808 c 4
 278 808 298 836 298 876 c 4
 298 916 274 932 232 932 c 4
 214 932 188 928 174 924 c 5
 174 1078 l 5
 336 1078 l 5
 336 1042 l 5
 212 1042 l 5
 212 964 l 5
 220 964 230 966 240 966 c 4
226 -208 m 5
 274 -208 l 5
 274 -260 l 5
 226 -260 l 5
 226 -208 l 5
226 -58 m 5
 274 -58 l 5
 274 -110 l 5
 226 -110 l 5
 226 -58 l 5
226 92 m 5
 274 92 l 5
 274 40 l 5
 226 40 l 5
 226 92 l 5
226 242 m 5
 274 242 l 5
 274 190 l 5
 226 190 l 5
 226 242 l 5
226 392 m 5
 274 392 l 5
 274 340 l 5
 226 340 l 5
 226 392 l 5
226 542 m 5
 274 542 l 5
 274 490 l 5
 226 490 l 5
 226 542 l 5
226 692 m 5
 274 692 l 5
 274 640 l 5
 226 640 l 5
 226 692 l 5
EndSplineSet
Fore
Validated: 1
Substitution2: "sepC subtable" sep.5.C
Substitution2: "sepB subtable" sep.5.B
Substitution2: "sepA subtable" sep.5.A
EndChar

StartChar: sep.5.A
Encoding: 57618 57618 80
Width: 0
VWidth: 0
Flags: HMW
LayerCount: 4
Back
SplineSet
124 -640 m 5
 224 -342 l 5
 276 -342 l 5
 376 -640 l 5
 332 -640 l 5
 304 -556 l 5
 192 -556 l 5
 164 -640 l 5
 124 -640 l 5
296 -524 m 5
 248 -382 l 5
 204 -524 l 5
 296 -524 l 5
240 966 m 0
 302 966 338 938 338 874 c 0
 338 814 300 774 240 774 c 0
 210 774 180 782 162 790 c 1
 162 832 l 1
 164 832 l 1
 182 820 210 808 240 808 c 0
 278 808 298 836 298 876 c 0
 298 916 274 932 232 932 c 0
 214 932 188 928 174 924 c 1
 174 1078 l 1
 336 1078 l 1
 336 1042 l 1
 212 1042 l 1
 212 964 l 1
 220 964 230 966 240 966 c 0
226 -208 m 1
 274 -208 l 1
 274 -260 l 1
 226 -260 l 1
 226 -208 l 1
226 -58 m 1
 274 -58 l 1
 274 -110 l 1
 226 -110 l 1
 226 -58 l 1
226 92 m 1
 274 92 l 1
 274 40 l 1
 226 40 l 1
 226 92 l 1
226 242 m 1
 274 242 l 1
 274 190 l 1
 226 190 l 1
 226 242 l 1
226 392 m 1
 274 392 l 1
 274 340 l 1
 226 340 l 1
 226 392 l 1
226 542 m 1
 274 542 l 1
 274 490 l 1
 226 490 l 1
 226 542 l 1
226 692 m 1
 274 692 l 1
 274 640 l 1
 226 640 l 1
 226 692 l 1
EndSplineSet
Fore
Validated: 1
EndChar

StartChar: sep.1.B
Encoding: 57607 57607 81
Width: 0
VWidth: 0
Flags: HMW
LayerCount: 4
Back
SplineSet
352 -548 m 0
 352 -598 320 -622 284 -634 c 0
 272 -638 256 -640 236 -640 c 2
 148 -640 l 1
 148 -342 l 1
 228 -342 l 2
 250 -342 266 -342 276 -344 c 0
 298 -348 320 -356 328 -376 c 0
 332 -386 336 -398 336 -410 c 0
 336 -424 336 -436 328 -448 c 0
 320 -460 310 -466 296 -472 c 1
 296 -474 l 1
 314 -478 326 -488 336 -500 c 0
 346 -512 352 -528 352 -548 c 0
232 -464 m 2
 272 -464 296 -454 296 -416 c 0
 296 -394 282 -378 260 -378 c 0
 252 -378 242 -376 228 -376 c 2
 188 -376 l 1
 188 -464 l 1
 232 -464 l 2
312 -550 m 0
 312 -526 300 -514 284 -504 c 0
 278 -500 272 -498 264 -498 c 0
 256 -498 246 -496 232 -496 c 2
 188 -496 l 1
 188 -606 l 1
 220 -606 l 2
 252 -606 270 -606 288 -594 c 0
 302 -584 312 -570 312 -550 c 0
178 1038 m 1
 216.578125 1038 233.80859375 1044.46582031 238 1078 c 1
 270 1078 l 1
 270 810 l 1
 322 810 l 1
 322 780 l 1
 178 780 l 1
 178 810 l 1
 232 810 l 1
 232 1010 l 1
 178 1010 l 1
 178 1038 l 1
226 -208 m 1
 274 -208 l 1
 274 -260 l 1
 226 -260 l 1
 226 -208 l 1
226 -58 m 1
 274 -58 l 1
 274 -110 l 1
 226 -110 l 1
 226 -58 l 1
226 92 m 1
 274 92 l 1
 274 40 l 1
 226 40 l 1
 226 92 l 1
226 242 m 1
 274 242 l 1
 274 190 l 1
 226 190 l 1
 226 242 l 1
226 392 m 1
 274 392 l 1
 274 340 l 1
 226 340 l 1
 226 392 l 1
226 542 m 1
 274 542 l 1
 274 490 l 1
 226 490 l 1
 226 542 l 1
226 692 m 1
 274 692 l 1
 274 640 l 1
 226 640 l 1
 226 692 l 1
EndSplineSet
Fore
Validated: 1
Substitution2: "sepP4 subtable" sep.1.B.p4
Substitution2: "sepP3 subtable" sep.1.B.p3
Substitution2: "sepP2 subtable" sep.1.B.p2
Substitution2: "sepP1B subtable" sep.1.B.p1.B
EndChar

StartChar: sep.2.B
Encoding: 57610 57610 82
Width: 0
VWidth: 0
Flags: HMW
LayerCount: 4
Back
SplineSet
352 -548 m 4
 352 -598 320 -622 284 -634 c 4
 272 -638 256 -640 236 -640 c 6
 148 -640 l 5
 148 -342 l 5
 228 -342 l 6
 250 -342 266 -342 276 -344 c 4
 298 -348 320 -356 328 -376 c 4
 332 -386 336 -398 336 -410 c 4
 336 -424 336 -436 328 -448 c 4
 320 -460 310 -466 296 -472 c 5
 296 -474 l 5
 314 -478 326 -488 336 -500 c 4
 346 -512 352 -528 352 -548 c 4
232 -464 m 6
 272 -464 296 -454 296 -416 c 4
 296 -394 282 -378 260 -378 c 4
 252 -378 242 -376 228 -376 c 6
 188 -376 l 5
 188 -464 l 5
 232 -464 l 6
312 -550 m 4
 312 -526 300 -514 284 -504 c 4
 278 -500 272 -498 264 -498 c 4
 256 -498 246 -496 232 -496 c 6
 188 -496 l 5
 188 -606 l 5
 220 -606 l 6
 252 -606 270 -606 288 -594 c 4
 302 -584 312 -570 312 -550 c 4
240 1084 m 0
 294 1084 330 1056 330 1002 c 0
 330 962 314 940 296 916 c 0
 290 908 282 900 274 892 c 0
 262 878 248 862 232 848 c 0
 216 834 206 822 196 814 c 1
 342 814 l 1
 342 780 l 1
 158 780 l 1
 158 822 l 1
 184 846 206 870 230 894 c 0
 252 918 268 938 276 954 c 0
 284 970 288 984 288 1000 c 0
 288 1032 270 1050 238 1050 c 0
 224 1050 206 1044 196 1040 c 0
 190 1038 184 1036 178 1032 c 0
 172 1028 170 1026 166 1024 c 1
 164 1024 l 1
 164 1066 l 1
 180 1074 214 1084 240 1084 c 0
226 -208 m 1
 274 -208 l 1
 274 -260 l 1
 226 -260 l 1
 226 -208 l 1
226 -58 m 1
 274 -58 l 1
 274 -110 l 1
 226 -110 l 1
 226 -58 l 1
226 92 m 1
 274 92 l 1
 274 40 l 1
 226 40 l 1
 226 92 l 1
226 242 m 1
 274 242 l 1
 274 190 l 1
 226 190 l 1
 226 242 l 1
226 392 m 1
 274 392 l 1
 274 340 l 1
 226 340 l 1
 226 392 l 1
226 542 m 1
 274 542 l 1
 274 490 l 1
 226 490 l 1
 226 542 l 1
226 692 m 1
 274 692 l 1
 274 640 l 1
 226 640 l 1
 226 692 l 1
EndSplineSet
Fore
Validated: 1
Substitution2: "sepP4 subtable" sep.2.B.p4
Substitution2: "sepP3 subtable" sep.2.B.p3
Substitution2: "sepP2 subtable" sep.2.B.p2
Substitution2: "sepP1B subtable" sep.2.B.p1.B
EndChar

StartChar: sep.3.B
Encoding: 57613 57613 83
Width: 0
VWidth: 0
Flags: HMW
LayerCount: 4
Back
SplineSet
352 -548 m 4
 352 -598 320 -622 284 -634 c 4
 272 -638 256 -640 236 -640 c 6
 148 -640 l 5
 148 -342 l 5
 228 -342 l 6
 250 -342 266 -342 276 -344 c 4
 298 -348 320 -356 328 -376 c 4
 332 -386 336 -398 336 -410 c 4
 336 -424 336 -436 328 -448 c 4
 320 -460 310 -466 296 -472 c 5
 296 -474 l 5
 314 -478 326 -488 336 -500 c 4
 346 -512 352 -528 352 -548 c 4
232 -464 m 6
 272 -464 296 -454 296 -416 c 4
 296 -394 282 -378 260 -378 c 4
 252 -378 242 -376 228 -376 c 6
 188 -376 l 5
 188 -464 l 5
 232 -464 l 6
312 -550 m 4
 312 -526 300 -514 284 -504 c 4
 278 -500 272 -498 264 -498 c 4
 256 -498 246 -496 232 -496 c 6
 188 -496 l 5
 188 -606 l 5
 220 -606 l 6
 252 -606 270 -606 288 -594 c 4
 302 -584 312 -570 312 -550 c 4
294 1008 m 4
 294 1038 272 1050 242 1050 c 4
 220 1050 196 1040 182 1032 c 4
 178 1030 174 1026 170 1024 c 5
 168 1024 l 5
 168 1066 l 5
 186 1074 220 1084 246 1084 c 260
 298 1084 334 1064 334 1012 c 4
 334 976 310 954 280 946 c 5
 280 942 l 5
 294 938 310 934 320 924 c 260
 332 912 340 892 340 868 c 4
 340 838 330 818 314 802 c 4
 298 782 274 774 240 774 c 4
 226 774 210 776 196 780 c 4
 182 784 170 786 160 792 c 5
 160 834 l 5
 162 834 l 5
 178 822 210 808 238 808 c 4
 278 808 300 830 300 872 c 260
 300 912 278 924 238 924 c 6
 220 924 l 5
 220 958 l 5
 234 958 l 6
 252 958 266 962 278 970 c 4
 290 978 294 992 294 1008 c 4
226 -208 m 5
 274 -208 l 5
 274 -260 l 5
 226 -260 l 5
 226 -208 l 5
226 -58 m 5
 274 -58 l 5
 274 -110 l 5
 226 -110 l 5
 226 -58 l 5
226 92 m 5
 274 92 l 5
 274 40 l 5
 226 40 l 5
 226 92 l 5
226 242 m 5
 274 242 l 5
 274 190 l 5
 226 190 l 5
 226 242 l 5
226 392 m 5
 274 392 l 5
 274 340 l 5
 226 340 l 5
 226 392 l 5
226 542 m 5
 274 542 l 5
 274 490 l 5
 226 490 l 5
 226 542 l 5
226 692 m 5
 274 692 l 5
 274 640 l 5
 226 640 l 5
 226 692 l 5
EndSplineSet
Fore
Validated: 1
Substitution2: "sepP4 subtable" sep.3.B.p4
Substitution2: "sepP3 subtable" sep.3.B.p3
Substitution2: "sepP2 subtable" sep.3.B.p2
Substitution2: "sepP1B subtable" sep.3.B.p1.B
EndChar

StartChar: sep.4.B
Encoding: 57616 57616 84
Width: 0
VWidth: 0
Flags: HMW
LayerCount: 4
Back
SplineSet
352 -548 m 4
 352 -598 320 -622 284 -634 c 4
 272 -638 256 -640 236 -640 c 6
 148 -640 l 5
 148 -342 l 5
 228 -342 l 6
 250 -342 266 -342 276 -344 c 4
 298 -348 320 -356 328 -376 c 4
 332 -386 336 -398 336 -410 c 4
 336 -424 336 -436 328 -448 c 4
 320 -460 310 -466 296 -472 c 5
 296 -474 l 5
 314 -478 326 -488 336 -500 c 4
 346 -512 352 -528 352 -548 c 4
232 -464 m 6
 272 -464 296 -454 296 -416 c 4
 296 -394 282 -378 260 -378 c 4
 252 -378 242 -376 228 -376 c 6
 188 -376 l 5
 188 -464 l 5
 232 -464 l 6
312 -550 m 4
 312 -526 300 -514 284 -504 c 4
 278 -500 272 -498 264 -498 c 4
 256 -498 246 -496 232 -496 c 6
 188 -496 l 5
 188 -606 l 5
 220 -606 l 6
 252 -606 270 -606 288 -594 c 4
 302 -584 312 -570 312 -550 c 4
332 882 m 1
 296 882 l 1
 296 780 l 1
 260 780 l 1
 260 882 l 1
 128 882 l 1
 128 924 l 1
 260 1078 l 1
 296 1078 l 1
 296 914 l 1
 332 914 l 1
 332 882 l 1
260 914 m 1
 260 1030 l 1
 160 914 l 1
 260 914 l 1
226 -208 m 1
 274 -208 l 1
 274 -260 l 1
 226 -260 l 1
 226 -208 l 1
226 -58 m 1
 274 -58 l 1
 274 -110 l 1
 226 -110 l 1
 226 -58 l 1
226 92 m 1
 274 92 l 1
 274 40 l 1
 226 40 l 1
 226 92 l 1
226 242 m 1
 274 242 l 1
 274 190 l 1
 226 190 l 1
 226 242 l 1
226 392 m 1
 274 392 l 1
 274 340 l 1
 226 340 l 1
 226 392 l 1
226 542 m 1
 274 542 l 1
 274 490 l 1
 226 490 l 1
 226 542 l 1
226 692 m 1
 274 692 l 1
 274 640 l 1
 226 640 l 1
 226 692 l 1
EndSplineSet
Fore
Validated: 1
Substitution2: "sepP4 subtable" sep.4.B.p4
Substitution2: "sepP3 subtable" sep.4.B.p3
Substitution2: "sepP2 subtable" sep.4.B.p2
Substitution2: "sepP1B subtable" sep.4.B.p1.B
EndChar

StartChar: sep.1.A
Encoding: 57606 57606 85
Width: 0
VWidth: 0
Flags: HMW
LayerCount: 4
Back
SplineSet
124 -640 m 5
 224 -342 l 5
 276 -342 l 5
 376 -640 l 5
 332 -640 l 5
 304 -556 l 5
 192 -556 l 5
 164 -640 l 5
 124 -640 l 5
296 -524 m 5
 248 -382 l 5
 204 -524 l 5
 296 -524 l 5
178 1038 m 1
 216 1038 234 1044 238 1078 c 1
 270 1078 l 1
 270 810 l 1
 322 810 l 1
 322 780 l 1
 178 780 l 1
 178 810 l 1
 232 810 l 1
 232 1010 l 1
 178 1010 l 1
 178 1038 l 1
226 -208 m 1
 274 -208 l 1
 274 -260 l 1
 226 -260 l 1
 226 -208 l 1
226 -58 m 1
 274 -58 l 1
 274 -110 l 1
 226 -110 l 1
 226 -58 l 1
226 92 m 1
 274 92 l 1
 274 40 l 1
 226 40 l 1
 226 92 l 1
226 242 m 1
 274 242 l 1
 274 190 l 1
 226 190 l 1
 226 242 l 1
226 392 m 1
 274 392 l 1
 274 340 l 1
 226 340 l 1
 226 392 l 1
226 542 m 1
 274 542 l 1
 274 490 l 1
 226 490 l 1
 226 542 l 1
226 692 m 1
 274 692 l 1
 274 640 l 1
 226 640 l 1
 226 692 l 1
EndSplineSet
Fore
Validated: 1
Substitution2: "sepP4 subtable" sep.1.A.p4
Substitution2: "sepP3 subtable" sep.1.A.p3
Substitution2: "sepP2 subtable" sep.1.A.p2
Substitution2: "sepP1B subtable" sep.1.A.p1.B
Substitution2: "sepP1A subtable" sep.1.A.p1.A
EndChar

StartChar: sep.2.A
Encoding: 57609 57609 86
Width: 0
VWidth: 0
Flags: HMW
LayerCount: 4
Back
SplineSet
124 -640 m 5
 224 -342 l 5
 276 -342 l 5
 376 -640 l 5
 332 -640 l 5
 304 -556 l 5
 192 -556 l 5
 164 -640 l 5
 124 -640 l 5
296 -524 m 5
 248 -382 l 5
 204 -524 l 5
 296 -524 l 5
240 1084 m 0
 294 1084 330 1056 330 1002 c 0
 330 962 314 940 296 916 c 0
 290 908 282 900 274 892 c 0
 262 878 248 862 232 848 c 0
 216 834 206 822 196 814 c 1
 342 814 l 1
 342 780 l 1
 158 780 l 1
 158 822 l 1
 184 846 206 870 230 894 c 0
 252 918 268 938 276 954 c 0
 284 970 288 984 288 1000 c 0
 288 1032 270 1050 238 1050 c 0
 224 1050 206 1044 196 1040 c 0
 190 1038 184 1036 178 1032 c 0
 172 1028 170 1026 166 1024 c 1
 164 1024 l 1
 164 1066 l 1
 180 1074 214 1084 240 1084 c 0
226 -208 m 1
 274 -208 l 1
 274 -260 l 1
 226 -260 l 1
 226 -208 l 1
226 -58 m 1
 274 -58 l 1
 274 -110 l 1
 226 -110 l 1
 226 -58 l 1
226 92 m 1
 274 92 l 1
 274 40 l 1
 226 40 l 1
 226 92 l 1
226 242 m 1
 274 242 l 1
 274 190 l 1
 226 190 l 1
 226 242 l 1
226 392 m 1
 274 392 l 1
 274 340 l 1
 226 340 l 1
 226 392 l 1
226 542 m 1
 274 542 l 1
 274 490 l 1
 226 490 l 1
 226 542 l 1
226 692 m 1
 274 692 l 1
 274 640 l 1
 226 640 l 1
 226 692 l 1
EndSplineSet
Fore
Validated: 1
Substitution2: "sepP4 subtable" sep.2.A.p4
Substitution2: "sepP3 subtable" sep.2.A.p3
Substitution2: "sepP2 subtable" sep.2.A.p2
Substitution2: "sepP1B subtable" sep.2.A.p1.B
Substitution2: "sepP1A subtable" sep.2.A.p1.A
EndChar

StartChar: sep.3.A
Encoding: 57612 57612 87
Width: 0
VWidth: 0
Flags: HMW
LayerCount: 4
Back
SplineSet
124 -640 m 5
 224 -342 l 5
 276 -342 l 5
 376 -640 l 5
 332 -640 l 5
 304 -556 l 5
 192 -556 l 5
 164 -640 l 5
 124 -640 l 5
296 -524 m 5
 248 -382 l 5
 204 -524 l 5
 296 -524 l 5
294 1008 m 0
 294 1038 272 1050 242 1050 c 0
 220 1050 196 1040 182 1032 c 0
 178 1030 174 1026 170 1024 c 1
 168 1024 l 1
 168 1066 l 1
 186 1074 220 1084 246 1084 c 256
 298 1084 334 1064 334 1012 c 0
 334 976 310 954 280 946 c 1
 280 942 l 1
 294 938 310 934 320 924 c 256
 332 912 340 892 340 868 c 0
 340 838 330 818 314 802 c 0
 298 782 274 774 240 774 c 0
 226 774 210 776 196 780 c 0
 182 784 170 786 160 792 c 1
 160 834 l 1
 162 834 l 1
 178 822 210 808 238 808 c 0
 278 808 300 830 300 872 c 256
 300 912 278 924 238 924 c 2
 220 924 l 1
 220 958 l 1
 234 958 l 2
 252 958 266 962 278 970 c 0
 290 978 294 992 294 1008 c 0
226 -208 m 1
 274 -208 l 1
 274 -260 l 1
 226 -260 l 1
 226 -208 l 1
226 -58 m 1
 274 -58 l 1
 274 -110 l 1
 226 -110 l 1
 226 -58 l 1
226 92 m 1
 274 92 l 1
 274 40 l 1
 226 40 l 1
 226 92 l 1
226 242 m 1
 274 242 l 1
 274 190 l 1
 226 190 l 1
 226 242 l 1
226 392 m 1
 274 392 l 1
 274 340 l 1
 226 340 l 1
 226 392 l 1
226 542 m 1
 274 542 l 1
 274 490 l 1
 226 490 l 1
 226 542 l 1
226 692 m 1
 274 692 l 1
 274 640 l 1
 226 640 l 1
 226 692 l 1
EndSplineSet
Fore
Validated: 1
Substitution2: "sepP4 subtable" sep.3.A.p4
Substitution2: "sepP3 subtable" sep.3.A.p3
Substitution2: "sepP2 subtable" sep.3.A.p2
Substitution2: "sepP1B subtable" sep.3.A.p1.B
Substitution2: "sepP1A subtable" sep.3.A.p1.A
EndChar

StartChar: sep.4.A
Encoding: 57615 57615 88
Width: 0
VWidth: 0
Flags: HMW
LayerCount: 4
Back
SplineSet
124 -640 m 5
 224 -342 l 5
 276 -342 l 5
 376 -640 l 5
 332 -640 l 5
 304 -556 l 5
 192 -556 l 5
 164 -640 l 5
 124 -640 l 5
296 -524 m 5
 248 -382 l 5
 204 -524 l 5
 296 -524 l 5
332 882 m 1
 296 882 l 1
 296 780 l 1
 260 780 l 1
 260 882 l 1
 128 882 l 1
 128 924 l 1
 260 1078 l 1
 296 1078 l 1
 296 914 l 1
 332 914 l 1
 332 882 l 1
260 914 m 1
 260 1030 l 1
 160 914 l 1
 260 914 l 1
226 -208 m 1
 274 -208 l 1
 274 -260 l 1
 226 -260 l 1
 226 -208 l 1
226 -58 m 1
 274 -58 l 1
 274 -110 l 1
 226 -110 l 1
 226 -58 l 1
226 92 m 1
 274 92 l 1
 274 40 l 1
 226 40 l 1
 226 92 l 1
226 242 m 1
 274 242 l 1
 274 190 l 1
 226 190 l 1
 226 242 l 1
226 392 m 1
 274 392 l 1
 274 340 l 1
 226 340 l 1
 226 392 l 1
226 542 m 1
 274 542 l 1
 274 490 l 1
 226 490 l 1
 226 542 l 1
226 692 m 1
 274 692 l 1
 274 640 l 1
 226 640 l 1
 226 692 l 1
EndSplineSet
Fore
Validated: 1
Substitution2: "sepP4 subtable" sep.4.A.p4
Substitution2: "sepP3 subtable" sep.4.A.p3
Substitution2: "sepP2 subtable" sep.4.A.p2
Substitution2: "sepP1B subtable" sep.4.A.p1.B
Substitution2: "sepP1A subtable" sep.4.A.p1.A
EndChar

StartChar: sep.5.B
Encoding: 57619 57619 89
Width: 0
VWidth: 0
Flags: HMW
LayerCount: 4
Back
SplineSet
352 -548 m 4
 352 -598 320 -622 284 -634 c 4
 272 -638 256 -640 236 -640 c 6
 148 -640 l 5
 148 -342 l 5
 228 -342 l 6
 250 -342 266 -342 276 -344 c 4
 298 -348 320 -356 328 -376 c 4
 332 -386 336 -398 336 -410 c 4
 336 -424 336 -436 328 -448 c 4
 320 -460 310 -466 296 -472 c 5
 296 -474 l 5
 314 -478 326 -488 336 -500 c 4
 346 -512 352 -528 352 -548 c 4
232 -464 m 6
 272 -464 296 -454 296 -416 c 4
 296 -394 282 -378 260 -378 c 4
 252 -378 242 -376 228 -376 c 6
 188 -376 l 5
 188 -464 l 5
 232 -464 l 6
312 -550 m 4
 312 -526 300 -514 284 -504 c 4
 278 -500 272 -498 264 -498 c 4
 256 -498 246 -496 232 -496 c 6
 188 -496 l 5
 188 -606 l 5
 220 -606 l 6
 252 -606 270 -606 288 -594 c 4
 302 -584 312 -570 312 -550 c 4
240 966 m 0
 302 966 338 938 338 874 c 0
 338 814 300 774 240 774 c 0
 210 774 180 782 162 790 c 1
 162 832 l 1
 164 832 l 1
 182 820 210 808 240 808 c 0
 278 808 298 836 298 876 c 0
 298 916 274 932 232 932 c 0
 214 932 188 928 174 924 c 1
 174 1078 l 1
 336 1078 l 1
 336 1042 l 1
 212 1042 l 1
 212 964 l 1
 220 964 230 966 240 966 c 0
226 -208 m 1
 274 -208 l 1
 274 -260 l 1
 226 -260 l 1
 226 -208 l 1
226 -58 m 1
 274 -58 l 1
 274 -110 l 1
 226 -110 l 1
 226 -58 l 1
226 92 m 1
 274 92 l 1
 274 40 l 1
 226 40 l 1
 226 92 l 1
226 242 m 1
 274 242 l 1
 274 190 l 1
 226 190 l 1
 226 242 l 1
226 392 m 1
 274 392 l 1
 274 340 l 1
 226 340 l 1
 226 392 l 1
226 542 m 1
 274 542 l 1
 274 490 l 1
 226 490 l 1
 226 542 l 1
226 692 m 1
 274 692 l 1
 274 640 l 1
 226 640 l 1
 226 692 l 1
EndSplineSet
Fore
Validated: 1
EndChar

StartChar: sep.1.C
Encoding: 57608 57608 90
Width: 0
VWidth: 0
Flags: HMW
LayerCount: 4
Back
SplineSet
360 -410 m 5
 338 -390 312 -370 268 -370 c 4
 206 -370 176 -428 176 -492 c 4
 176 -532 188 -560 204 -582 c 4
 218 -598 242 -612 268 -612 c 4
 310 -612 338 -592 360 -572 c 5
 364 -572 l 5
 364 -620 l 5
 340 -636 306 -646 268 -646 c 4
 224 -646 196 -630 172 -606 c 260
 150 -582 136 -538 136 -492 c 4
 136 -438 148 -406 172 -378 c 4
 194 -354 228 -336 272 -336 c 4
 306 -336 340 -348 364 -362 c 5
 364 -410 l 5
 360 -410 l 5
178 1038 m 1
 216 1038 234 1044 238 1078 c 1
 270 1078 l 1
 270 810 l 1
 322 810 l 1
 322 780 l 1
 178 780 l 1
 178 810 l 1
 232 810 l 1
 232 1010 l 1
 178 1010 l 1
 178 1038 l 1
226 -208 m 1
 274 -208 l 1
 274 -260 l 1
 226 -260 l 1
 226 -208 l 1
226 -58 m 1
 274 -58 l 1
 274 -110 l 1
 226 -110 l 1
 226 -58 l 1
226 92 m 1
 274 92 l 1
 274 40 l 1
 226 40 l 1
 226 92 l 1
226 242 m 1
 274 242 l 1
 274 190 l 1
 226 190 l 1
 226 242 l 1
226 392 m 1
 274 392 l 1
 274 340 l 1
 226 340 l 1
 226 392 l 1
226 542 m 1
 274 542 l 1
 274 490 l 1
 226 490 l 1
 226 542 l 1
226 692 m 1
 274 692 l 1
 274 640 l 1
 226 640 l 1
 226 692 l 1
EndSplineSet
Fore
Validated: 1
EndChar

StartChar: sep.2.C
Encoding: 57611 57611 91
Width: 0
VWidth: 0
Flags: HMW
LayerCount: 4
Back
SplineSet
360 -410 m 5
 338 -390 312 -370 268 -370 c 4
 206 -370 176 -428 176 -492 c 4
 176 -532 188 -560 204 -582 c 4
 218 -598 242 -612 268 -612 c 4
 310 -612 338 -592 360 -572 c 5
 364 -572 l 5
 364 -620 l 5
 340 -636 306 -646 268 -646 c 4
 224 -646 196 -630 172 -606 c 260
 150 -582 136 -538 136 -492 c 4
 136 -438 148 -406 172 -378 c 4
 194 -354 228 -336 272 -336 c 4
 306 -336 340 -348 364 -362 c 5
 364 -410 l 5
 360 -410 l 5
240 1084 m 0
 294 1084 330 1056 330 1002 c 0
 330 962 314 940 296 916 c 0
 290 908 282 900 274 892 c 0
 262 878 248 862 232 848 c 0
 216 834 206 822 196 814 c 1
 342 814 l 1
 342 780 l 1
 158 780 l 1
 158 822 l 1
 184 846 206 870 230 894 c 0
 252 918 268 938 276 954 c 0
 284 970 288 984 288 1000 c 0
 288 1032 270 1050 238 1050 c 0
 224 1050 206 1044 196 1040 c 0
 190 1038 184 1036 178 1032 c 0
 172 1028 170 1026 166 1024 c 1
 164 1024 l 1
 164 1066 l 1
 180 1074 214 1084 240 1084 c 0
226 -208 m 1
 274 -208 l 1
 274 -260 l 1
 226 -260 l 1
 226 -208 l 1
226 -58 m 1
 274 -58 l 1
 274 -110 l 1
 226 -110 l 1
 226 -58 l 1
226 92 m 1
 274 92 l 1
 274 40 l 1
 226 40 l 1
 226 92 l 1
226 242 m 1
 274 242 l 1
 274 190 l 1
 226 190 l 1
 226 242 l 1
226 392 m 1
 274 392 l 1
 274 340 l 1
 226 340 l 1
 226 392 l 1
226 542 m 1
 274 542 l 1
 274 490 l 1
 226 490 l 1
 226 542 l 1
226 692 m 1
 274 692 l 1
 274 640 l 1
 226 640 l 1
 226 692 l 1
EndSplineSet
Fore
Validated: 1
EndChar

StartChar: sep.3.C
Encoding: 57614 57614 92
Width: 0
VWidth: 0
Flags: HMW
LayerCount: 4
Back
SplineSet
360 -410 m 5
 338 -390 312 -370 268 -370 c 4
 206 -370 176 -428 176 -492 c 4
 176 -532 188 -560 204 -582 c 4
 218 -598 242 -612 268 -612 c 4
 310 -612 338 -592 360 -572 c 5
 364 -572 l 5
 364 -620 l 5
 340 -636 306 -646 268 -646 c 4
 224 -646 196 -630 172 -606 c 260
 150 -582 136 -538 136 -492 c 4
 136 -438 148 -406 172 -378 c 4
 194 -354 228 -336 272 -336 c 4
 306 -336 340 -348 364 -362 c 5
 364 -410 l 5
 360 -410 l 5
294 1008 m 0
 294 1038 272 1050 242 1050 c 0
 220 1050 196 1040 182 1032 c 0
 178 1030 174 1026 170 1024 c 1
 168 1024 l 1
 168 1066 l 1
 186 1074 220 1084 246 1084 c 256
 298 1084 334 1064 334 1012 c 0
 334 976 310 954 280 946 c 1
 280 942 l 1
 294 938 310 934 320 924 c 256
 332 912 340 892 340 868 c 0
 340 838 330 818 314 802 c 0
 298 782 274 774 240 774 c 0
 226 774 210 776 196 780 c 0
 182 784 170 786 160 792 c 1
 160 834 l 1
 162 834 l 1
 178 822 210 808 238 808 c 0
 278 808 300 830 300 872 c 256
 300 912 278 924 238 924 c 2
 220 924 l 1
 220 958 l 1
 234 958 l 2
 252 958 266 962 278 970 c 0
 290 978 294 992 294 1008 c 0
226 -208 m 1
 274 -208 l 1
 274 -260 l 1
 226 -260 l 1
 226 -208 l 1
226 -58 m 1
 274 -58 l 1
 274 -110 l 1
 226 -110 l 1
 226 -58 l 1
226 92 m 1
 274 92 l 1
 274 40 l 1
 226 40 l 1
 226 92 l 1
226 242 m 1
 274 242 l 1
 274 190 l 1
 226 190 l 1
 226 242 l 1
226 392 m 1
 274 392 l 1
 274 340 l 1
 226 340 l 1
 226 392 l 1
226 542 m 1
 274 542 l 1
 274 490 l 1
 226 490 l 1
 226 542 l 1
226 692 m 1
 274 692 l 1
 274 640 l 1
 226 640 l 1
 226 692 l 1
EndSplineSet
Fore
Validated: 1
EndChar

StartChar: sep.4.C
Encoding: 57617 57617 93
Width: 0
VWidth: 0
Flags: HMW
LayerCount: 4
Back
SplineSet
360 -410 m 5
 338 -390 312 -370 268 -370 c 4
 206 -370 176 -428 176 -492 c 4
 176 -532 188 -560 204 -582 c 4
 218 -598 242 -612 268 -612 c 4
 310 -612 338 -592 360 -572 c 5
 364 -572 l 5
 364 -620 l 5
 340 -636 306 -646 268 -646 c 4
 224 -646 196 -630 172 -606 c 260
 150 -582 136 -538 136 -492 c 4
 136 -438 148 -406 172 -378 c 4
 194 -354 228 -336 272 -336 c 4
 306 -336 340 -348 364 -362 c 5
 364 -410 l 5
 360 -410 l 5
332 882 m 1
 296 882 l 1
 296 780 l 1
 260 780 l 1
 260 882 l 1
 128 882 l 1
 128 924 l 1
 260 1078 l 1
 296 1078 l 1
 296 914 l 1
 332 914 l 1
 332 882 l 1
260 914 m 1
 260 1030 l 1
 160 914 l 1
 260 914 l 1
226 -208 m 1
 274 -208 l 1
 274 -260 l 1
 226 -260 l 1
 226 -208 l 1
226 -58 m 1
 274 -58 l 1
 274 -110 l 1
 226 -110 l 1
 226 -58 l 1
226 92 m 1
 274 92 l 1
 274 40 l 1
 226 40 l 1
 226 92 l 1
226 242 m 1
 274 242 l 1
 274 190 l 1
 226 190 l 1
 226 242 l 1
226 392 m 1
 274 392 l 1
 274 340 l 1
 226 340 l 1
 226 392 l 1
226 542 m 1
 274 542 l 1
 274 490 l 1
 226 490 l 1
 226 542 l 1
226 692 m 1
 274 692 l 1
 274 640 l 1
 226 640 l 1
 226 692 l 1
EndSplineSet
Fore
Validated: 1
EndChar

StartChar: sep.5.C
Encoding: 57620 57620 94
Width: 0
VWidth: 0
Flags: HMW
LayerCount: 4
Back
SplineSet
360 -410 m 1
 338 -390 312 -370 268 -370 c 0
 206 -370 176 -428 176 -492 c 0
 176 -532 188 -560 204 -582 c 0
 218 -598 242 -612 268 -612 c 0
 310 -612 338 -592 360 -572 c 1
 364 -572 l 1
 364 -620 l 1
 340 -636 306 -646 268 -646 c 0
 224 -646 196 -630 172 -606 c 256
 150 -582 136 -538 136 -492 c 0
 136 -438 148 -406 172 -378 c 0
 194 -354 228 -336 272 -336 c 0
 306 -336 340 -348 364 -362 c 1
 364 -410 l 1
 360 -410 l 1
240 966 m 0
 302 966 338 938 338 874 c 0
 338 814 300 774 240 774 c 0
 210 774 180 782 162 790 c 1
 162 832 l 1
 164 832 l 1
 182 820 210 808 240 808 c 0
 278 808 298 836 298 876 c 0
 298 916 274 932 232 932 c 0
 214 932 188 928 174 924 c 1
 174 1078 l 1
 336 1078 l 1
 336 1042 l 1
 212 1042 l 1
 212 964 l 1
 220 964 230 966 240 966 c 0
226 -208 m 1
 274 -208 l 1
 274 -260 l 1
 226 -260 l 1
 226 -208 l 1
226 -58 m 1
 274 -58 l 1
 274 -110 l 1
 226 -110 l 1
 226 -58 l 1
226 92 m 1
 274 92 l 1
 274 40 l 1
 226 40 l 1
 226 92 l 1
226 242 m 1
 274 242 l 1
 274 190 l 1
 226 190 l 1
 226 242 l 1
226 392 m 1
 274 392 l 1
 274 340 l 1
 226 340 l 1
 226 392 l 1
226 542 m 1
 274 542 l 1
 274 490 l 1
 226 490 l 1
 226 542 l 1
226 692 m 1
 274 692 l 1
 274 640 l 1
 226 640 l 1
 226 692 l 1
EndSplineSet
Fore
Validated: 1
EndChar

StartChar: sep.1.A.p1.A
Encoding: 57653 57653 95
Width: 0
VWidth: 0
Flags: HMW
LayerCount: 4
Back
SplineSet
348 -1040 m 1
 448 -742 l 1
 500 -742 l 1
 600 -1040 l 1
 556 -1040 l 1
 528 -956 l 1
 416 -956 l 1
 388 -1040 l 1
 348 -1040 l 1
520 -924 m 1
 472 -782 l 1
 428 -924 l 1
 520 -924 l 1
306 -1040 m 1
 162 -1040 l 1
 162 -1010 l 1
 216 -1010 l 1
 216 -810 l 1
 162 -810 l 1
 162 -782 l 1
 200 -782 220 -776 222 -742 c 1
 254 -742 l 1
 254 -1010 l 1
 306 -1010 l 1
 306 -1040 l 1
88 -922 m 0
 88 -960 78 -990 60 -1012 c 0
 42 -1034 20 -1044 -8 -1044 c 0
 -20 -1044 -28 -1042 -36 -1040 c 0
 -44 -1038 -56 -1034 -64 -1028 c 1
 -64 -1122 l 1
 -100 -1122 l 1
 -100 -816 l 1
 -64 -816 l 1
 -64 -840 l 1
 -54 -832 -44 -824 -32 -818 c 0
 -20 -812 -6 -810 8 -810 c 0
 34 -810 54 -820 68 -840 c 0
 82 -860 88 -888 88 -922 c 0
48 -926 m 0
 48 -900 44 -882 36 -868 c 0
 28 -854 14 -846 -4 -846 c 0
 -14 -846 -22 -850 -32 -854 c 0
 -42 -858 -56 -864 -64 -872 c 1
 -64 -998 l 1
 -54 -1002 -44 -1006 -36 -1008 c 0
 -28 -1010 -22 -1010 -12 -1010 c 0
 8 -1010 22 -1004 32 -990 c 0
 42 -976 48 -954 48 -926 c 0
124 -640 m 1
 224 -342 l 1
 276 -342 l 1
 376 -640 l 1
 332 -640 l 1
 304 -556 l 1
 192 -556 l 1
 164 -640 l 1
 124 -640 l 1
296 -524 m 1
 248 -382 l 1
 204 -524 l 1
 296 -524 l 1
178 1038 m 1
 216 1038 234 1044 238 1078 c 1
 270 1078 l 1
 270 810 l 1
 322 810 l 1
 322 780 l 1
 178 780 l 1
 178 810 l 1
 232 810 l 1
 232 1010 l 1
 178 1010 l 1
 178 1038 l 1
226 -208 m 1
 274 -208 l 1
 274 -260 l 1
 226 -260 l 1
 226 -208 l 1
226 -58 m 1
 274 -58 l 1
 274 -110 l 1
 226 -110 l 1
 226 -58 l 1
226 92 m 1
 274 92 l 1
 274 40 l 1
 226 40 l 1
 226 92 l 1
226 242 m 1
 274 242 l 1
 274 190 l 1
 226 190 l 1
 226 242 l 1
226 392 m 1
 274 392 l 1
 274 340 l 1
 226 340 l 1
 226 392 l 1
226 542 m 1
 274 542 l 1
 274 490 l 1
 226 490 l 1
 226 542 l 1
226 692 m 1
 274 692 l 1
 274 640 l 1
 226 640 l 1
 226 692 l 1
EndSplineSet
Fore
Validated: 1
Substitution2: "sepP2 subtable" sep.1.A.p2.A
EndChar

StartChar: sep.1.A.p1.B
Encoding: 57654 57654 96
Width: 0
VWidth: 0
Flags: HMW
LayerCount: 4
Back
SplineSet
542 -874 m 5
 574 -882 598 -908 598 -948 c 4
 598 -1014 548 -1040 482 -1040 c 6
 394 -1040 l 5
 394 -742 l 5
 474 -742 l 6
 536 -742 582 -752 582 -810 c 4
 582 -842 564 -860 542 -872 c 5
 542 -874 l 5
542 -816 m 4
 542 -778 512 -776 474 -776 c 6
 434 -776 l 5
 434 -864 l 5
 478 -864 l 6
 518 -864 542 -854 542 -816 c 4
558 -950 m 4
 558 -904 526 -896 478 -896 c 6
 434 -896 l 5
 434 -1006 l 5
 466 -1006 l 6
 516 -1006 558 -998 558 -950 c 4
308 -1040 m 5
 164 -1040 l 5
 164 -1010 l 5
 218 -1010 l 5
 218 -810 l 5
 164 -810 l 5
 164 -782 l 5
 202 -782 222 -776 224 -742 c 5
 256 -742 l 5
 256 -1010 l 5
 308 -1010 l 5
 308 -1040 l 5
90 -922 m 4
 90 -960 80 -990 62 -1012 c 4
 44 -1034 22 -1044 -6 -1044 c 4
 -18 -1044 -26 -1042 -34 -1040 c 4
 -42 -1038 -54 -1034 -62 -1028 c 5
 -62 -1122 l 5
 -98 -1122 l 5
 -98 -816 l 5
 -62 -816 l 5
 -62 -840 l 5
 -52 -832 -42 -824 -30 -818 c 4
 -18 -812 -4 -810 10 -810 c 4
 36 -810 56 -820 70 -840 c 4
 84 -860 90 -888 90 -922 c 4
50 -926 m 4
 50 -900 46 -882 38 -868 c 4
 30 -854 16 -846 -2 -846 c 4
 -12 -846 -20 -850 -30 -854 c 4
 -40 -858 -54 -864 -62 -872 c 5
 -62 -998 l 5
 -52 -1002 -42 -1006 -34 -1008 c 4
 -26 -1010 -20 -1010 -10 -1010 c 4
 10 -1010 24 -1004 34 -990 c 4
 44 -976 50 -954 50 -926 c 4
124 -640 m 1
 224 -342 l 1
 276 -342 l 1
 376 -640 l 1
 332 -640 l 1
 304 -556 l 1
 192 -556 l 1
 164 -640 l 1
 124 -640 l 1
296 -524 m 1
 248 -382 l 1
 204 -524 l 1
 296 -524 l 1
178 1038 m 1
 216 1038 234 1044 238 1078 c 1
 270 1078 l 1
 270 810 l 1
 322 810 l 1
 322 780 l 1
 178 780 l 1
 178 810 l 1
 232 810 l 1
 232 1010 l 1
 178 1010 l 1
 178 1038 l 1
226 -208 m 1
 274 -208 l 1
 274 -260 l 1
 226 -260 l 1
 226 -208 l 1
226 -58 m 1
 274 -58 l 1
 274 -110 l 1
 226 -110 l 1
 226 -58 l 1
226 92 m 1
 274 92 l 1
 274 40 l 1
 226 40 l 1
 226 92 l 1
226 242 m 1
 274 242 l 1
 274 190 l 1
 226 190 l 1
 226 242 l 1
226 392 m 1
 274 392 l 1
 274 340 l 1
 226 340 l 1
 226 392 l 1
226 542 m 1
 274 542 l 1
 274 490 l 1
 226 490 l 1
 226 542 l 1
226 692 m 1
 274 692 l 1
 274 640 l 1
 226 640 l 1
 226 692 l 1
EndSplineSet
Fore
Validated: 1
Substitution2: "sepP2 subtable" sep.1.A.p2.B
EndChar

StartChar: sep.1.B.p1.B
Encoding: 57661 57661 97
Width: 0
VWidth: 0
Flags: HMW
LayerCount: 4
Back
SplineSet
542 -874 m 5
 574 -882 598 -908 598 -948 c 4
 598 -1014 548 -1040 482 -1040 c 6
 394 -1040 l 5
 394 -742 l 5
 474 -742 l 6
 536 -742 582 -752 582 -810 c 4
 582 -842 564 -860 542 -872 c 5
 542 -874 l 5
542 -816 m 4
 542 -778 512 -776 474 -776 c 6
 434 -776 l 5
 434 -864 l 5
 478 -864 l 6
 518 -864 542 -854 542 -816 c 4
558 -950 m 4
 558 -904 526 -896 478 -896 c 6
 434 -896 l 5
 434 -1006 l 5
 466 -1006 l 6
 516 -1006 558 -998 558 -950 c 4
308 -1040 m 5
 164 -1040 l 5
 164 -1010 l 5
 218 -1010 l 5
 218 -810 l 5
 164 -810 l 5
 164 -782 l 5
 202 -782 222 -776 224 -742 c 5
 256 -742 l 5
 256 -1010 l 5
 308 -1010 l 5
 308 -1040 l 5
90 -922 m 4
 90 -960 80 -990 62 -1012 c 4
 44 -1034 22 -1044 -6 -1044 c 4
 -18 -1044 -26 -1042 -34 -1040 c 4
 -42 -1038 -54 -1034 -62 -1028 c 5
 -62 -1122 l 5
 -98 -1122 l 5
 -98 -816 l 5
 -62 -816 l 5
 -62 -840 l 5
 -52 -832 -42 -824 -30 -818 c 4
 -18 -812 -4 -810 10 -810 c 4
 36 -810 56 -820 70 -840 c 4
 84 -860 90 -888 90 -922 c 4
50 -926 m 4
 50 -900 46 -882 38 -868 c 4
 30 -854 16 -846 -2 -846 c 4
 -12 -846 -20 -850 -30 -854 c 4
 -40 -858 -54 -864 -62 -872 c 5
 -62 -998 l 5
 -52 -1002 -42 -1006 -34 -1008 c 4
 -26 -1010 -20 -1010 -10 -1010 c 4
 10 -1010 24 -1004 34 -990 c 4
 44 -976 50 -954 50 -926 c 4
352 -548 m 0
 352 -598 320 -622 284 -634 c 0
 272 -638 256 -640 236 -640 c 2
 148 -640 l 1
 148 -342 l 1
 228 -342 l 2
 250 -342 266 -342 276 -344 c 0
 298 -348 320 -356 328 -376 c 0
 332 -386 336 -398 336 -410 c 0
 336 -424 336 -436 328 -448 c 0
 320 -460 310 -466 296 -472 c 1
 296 -474 l 1
 314 -478 326 -488 336 -500 c 0
 346 -512 352 -528 352 -548 c 0
232 -464 m 2
 272 -464 296 -454 296 -416 c 0
 296 -394 282 -378 260 -378 c 0
 252 -378 242 -376 228 -376 c 2
 188 -376 l 1
 188 -464 l 1
 232 -464 l 2
312 -550 m 0
 312 -526 300 -514 284 -504 c 0
 278 -500 272 -498 264 -498 c 0
 256 -498 246 -496 232 -496 c 2
 188 -496 l 1
 188 -606 l 1
 220 -606 l 2
 252 -606 270 -606 288 -594 c 0
 302 -584 312 -570 312 -550 c 0
178 1038 m 1
 216.578125 1038 233.80859375 1044.46582031 238 1078 c 1
 270 1078 l 1
 270 810 l 1
 322 810 l 1
 322 780 l 1
 178 780 l 1
 178 810 l 1
 232 810 l 1
 232 1010 l 1
 178 1010 l 1
 178 1038 l 1
226 -208 m 1
 274 -208 l 1
 274 -260 l 1
 226 -260 l 1
 226 -208 l 1
226 -58 m 1
 274 -58 l 1
 274 -110 l 1
 226 -110 l 1
 226 -58 l 1
226 92 m 1
 274 92 l 1
 274 40 l 1
 226 40 l 1
 226 92 l 1
226 242 m 1
 274 242 l 1
 274 190 l 1
 226 190 l 1
 226 242 l 1
226 392 m 1
 274 392 l 1
 274 340 l 1
 226 340 l 1
 226 392 l 1
226 542 m 1
 274 542 l 1
 274 490 l 1
 226 490 l 1
 226 542 l 1
226 692 m 1
 274 692 l 1
 274 640 l 1
 226 640 l 1
 226 692 l 1
EndSplineSet
Fore
Validated: 1
Substitution2: "sepP2 subtable" sep.1.B.p2.B
EndChar

StartChar: sep.2.A.p1.A
Encoding: 57665 57665 98
Width: 0
VWidth: 0
Flags: HMW
LayerCount: 4
Back
SplineSet
348 -1040 m 5
 448 -742 l 5
 500 -742 l 5
 600 -1040 l 5
 556 -1040 l 5
 528 -956 l 5
 416 -956 l 5
 388 -1040 l 5
 348 -1040 l 5
520 -924 m 5
 472 -782 l 5
 428 -924 l 5
 520 -924 l 5
306 -1040 m 5
 162 -1040 l 5
 162 -1010 l 5
 216 -1010 l 5
 216 -810 l 5
 162 -810 l 5
 162 -782 l 5
 200 -782 220 -776 222 -742 c 5
 254 -742 l 5
 254 -1010 l 5
 306 -1010 l 5
 306 -1040 l 5
88 -922 m 4
 88 -960 78 -990 60 -1012 c 4
 42 -1034 20 -1044 -8 -1044 c 4
 -20 -1044 -28 -1042 -36 -1040 c 4
 -44 -1038 -56 -1034 -64 -1028 c 5
 -64 -1122 l 5
 -100 -1122 l 5
 -100 -816 l 5
 -64 -816 l 5
 -64 -840 l 5
 -54 -832 -44 -824 -32 -818 c 4
 -20 -812 -6 -810 8 -810 c 4
 34 -810 54 -820 68 -840 c 4
 82 -860 88 -888 88 -922 c 4
48 -926 m 4
 48 -900 44 -882 36 -868 c 4
 28 -854 14 -846 -4 -846 c 4
 -14 -846 -22 -850 -32 -854 c 4
 -42 -858 -56 -864 -64 -872 c 5
 -64 -998 l 5
 -54 -1002 -44 -1006 -36 -1008 c 4
 -28 -1010 -22 -1010 -12 -1010 c 4
 8 -1010 22 -1004 32 -990 c 4
 42 -976 48 -954 48 -926 c 4
124 -640 m 1
 224 -342 l 1
 276 -342 l 1
 376 -640 l 1
 332 -640 l 1
 304 -556 l 1
 192 -556 l 1
 164 -640 l 1
 124 -640 l 1
296 -524 m 1
 248 -382 l 1
 204 -524 l 1
 296 -524 l 1
240 1084 m 0
 294 1084 330 1056 330 1002 c 0
 330 962 314 940 296 916 c 0
 290 908 282 900 274 892 c 0
 262 878 248 862 232 848 c 0
 216 834 206 822 196 814 c 1
 342 814 l 1
 342 780 l 1
 158 780 l 1
 158 822 l 1
 184 846 206 870 230 894 c 0
 252 918 268 938 276 954 c 0
 284 970 288 984 288 1000 c 0
 288 1032 270 1050 238 1050 c 0
 224 1050 206 1044 196 1040 c 0
 190 1038 184 1036 178 1032 c 0
 172 1028 170 1026 166 1024 c 1
 164 1024 l 1
 164 1066 l 1
 180 1074 214 1084 240 1084 c 0
226 -208 m 1
 274 -208 l 1
 274 -260 l 1
 226 -260 l 1
 226 -208 l 1
226 -58 m 1
 274 -58 l 1
 274 -110 l 1
 226 -110 l 1
 226 -58 l 1
226 92 m 1
 274 92 l 1
 274 40 l 1
 226 40 l 1
 226 92 l 1
226 242 m 1
 274 242 l 1
 274 190 l 1
 226 190 l 1
 226 242 l 1
226 392 m 1
 274 392 l 1
 274 340 l 1
 226 340 l 1
 226 392 l 1
226 542 m 1
 274 542 l 1
 274 490 l 1
 226 490 l 1
 226 542 l 1
226 692 m 1
 274 692 l 1
 274 640 l 1
 226 640 l 1
 226 692 l 1
EndSplineSet
Fore
Validated: 1
Substitution2: "sepP2 subtable" sep.2.A.p2.A
EndChar

StartChar: sep.2.A.p1.B
Encoding: 57666 57666 99
Width: 0
VWidth: 0
Flags: HMW
LayerCount: 4
Back
SplineSet
542 -874 m 5
 574 -882 598 -908 598 -948 c 4
 598 -1014 548 -1040 482 -1040 c 6
 394 -1040 l 5
 394 -742 l 5
 474 -742 l 6
 536 -742 582 -752 582 -810 c 4
 582 -842 564 -860 542 -872 c 5
 542 -874 l 5
542 -816 m 4
 542 -778 512 -776 474 -776 c 6
 434 -776 l 5
 434 -864 l 5
 478 -864 l 6
 518 -864 542 -854 542 -816 c 4
558 -950 m 4
 558 -904 526 -896 478 -896 c 6
 434 -896 l 5
 434 -1006 l 5
 466 -1006 l 6
 516 -1006 558 -998 558 -950 c 4
308 -1040 m 5
 164 -1040 l 5
 164 -1010 l 5
 218 -1010 l 5
 218 -810 l 5
 164 -810 l 5
 164 -782 l 5
 202 -782 222 -776 224 -742 c 5
 256 -742 l 5
 256 -1010 l 5
 308 -1010 l 5
 308 -1040 l 5
90 -922 m 4
 90 -960 80 -990 62 -1012 c 4
 44 -1034 22 -1044 -6 -1044 c 4
 -18 -1044 -26 -1042 -34 -1040 c 4
 -42 -1038 -54 -1034 -62 -1028 c 5
 -62 -1122 l 5
 -98 -1122 l 5
 -98 -816 l 5
 -62 -816 l 5
 -62 -840 l 5
 -52 -832 -42 -824 -30 -818 c 4
 -18 -812 -4 -810 10 -810 c 4
 36 -810 56 -820 70 -840 c 4
 84 -860 90 -888 90 -922 c 4
50 -926 m 4
 50 -900 46 -882 38 -868 c 4
 30 -854 16 -846 -2 -846 c 4
 -12 -846 -20 -850 -30 -854 c 4
 -40 -858 -54 -864 -62 -872 c 5
 -62 -998 l 5
 -52 -1002 -42 -1006 -34 -1008 c 4
 -26 -1010 -20 -1010 -10 -1010 c 4
 10 -1010 24 -1004 34 -990 c 4
 44 -976 50 -954 50 -926 c 4
124 -640 m 1
 224 -342 l 1
 276 -342 l 1
 376 -640 l 1
 332 -640 l 1
 304 -556 l 1
 192 -556 l 1
 164 -640 l 1
 124 -640 l 1
296 -524 m 1
 248 -382 l 1
 204 -524 l 1
 296 -524 l 1
240 1084 m 0
 294 1084 330 1056 330 1002 c 0
 330 962 314 940 296 916 c 0
 290 908 282 900 274 892 c 0
 262 878 248 862 232 848 c 0
 216 834 206 822 196 814 c 1
 342 814 l 1
 342 780 l 1
 158 780 l 1
 158 822 l 1
 184 846 206 870 230 894 c 0
 252 918 268 938 276 954 c 0
 284 970 288 984 288 1000 c 0
 288 1032 270 1050 238 1050 c 0
 224 1050 206 1044 196 1040 c 0
 190 1038 184 1036 178 1032 c 0
 172 1028 170 1026 166 1024 c 1
 164 1024 l 1
 164 1066 l 1
 180 1074 214 1084 240 1084 c 0
226 -208 m 1
 274 -208 l 1
 274 -260 l 1
 226 -260 l 1
 226 -208 l 1
226 -58 m 1
 274 -58 l 1
 274 -110 l 1
 226 -110 l 1
 226 -58 l 1
226 92 m 1
 274 92 l 1
 274 40 l 1
 226 40 l 1
 226 92 l 1
226 242 m 1
 274 242 l 1
 274 190 l 1
 226 190 l 1
 226 242 l 1
226 392 m 1
 274 392 l 1
 274 340 l 1
 226 340 l 1
 226 392 l 1
226 542 m 1
 274 542 l 1
 274 490 l 1
 226 490 l 1
 226 542 l 1
226 692 m 1
 274 692 l 1
 274 640 l 1
 226 640 l 1
 226 692 l 1
EndSplineSet
Fore
Validated: 1
Substitution2: "sepP2 subtable" sep.2.A.p2.B
EndChar

StartChar: sep.2.B.p1.B
Encoding: 57673 57673 100
Width: 0
VWidth: 0
Flags: HMW
LayerCount: 4
Back
SplineSet
542 -874 m 5
 574 -882 598 -908 598 -948 c 4
 598 -1014 548 -1040 482 -1040 c 6
 394 -1040 l 5
 394 -742 l 5
 474 -742 l 6
 536 -742 582 -752 582 -810 c 4
 582 -842 564 -860 542 -872 c 5
 542 -874 l 5
542 -816 m 4
 542 -778 512 -776 474 -776 c 6
 434 -776 l 5
 434 -864 l 5
 478 -864 l 6
 518 -864 542 -854 542 -816 c 4
558 -950 m 4
 558 -904 526 -896 478 -896 c 6
 434 -896 l 5
 434 -1006 l 5
 466 -1006 l 6
 516 -1006 558 -998 558 -950 c 4
308 -1040 m 5
 164 -1040 l 5
 164 -1010 l 5
 218 -1010 l 5
 218 -810 l 5
 164 -810 l 5
 164 -782 l 5
 202 -782 222 -776 224 -742 c 5
 256 -742 l 5
 256 -1010 l 5
 308 -1010 l 5
 308 -1040 l 5
90 -922 m 4
 90 -960 80 -990 62 -1012 c 4
 44 -1034 22 -1044 -6 -1044 c 4
 -18 -1044 -26 -1042 -34 -1040 c 4
 -42 -1038 -54 -1034 -62 -1028 c 5
 -62 -1122 l 5
 -98 -1122 l 5
 -98 -816 l 5
 -62 -816 l 5
 -62 -840 l 5
 -52 -832 -42 -824 -30 -818 c 4
 -18 -812 -4 -810 10 -810 c 4
 36 -810 56 -820 70 -840 c 4
 84 -860 90 -888 90 -922 c 4
50 -926 m 4
 50 -900 46 -882 38 -868 c 4
 30 -854 16 -846 -2 -846 c 4
 -12 -846 -20 -850 -30 -854 c 4
 -40 -858 -54 -864 -62 -872 c 5
 -62 -998 l 5
 -52 -1002 -42 -1006 -34 -1008 c 4
 -26 -1010 -20 -1010 -10 -1010 c 4
 10 -1010 24 -1004 34 -990 c 4
 44 -976 50 -954 50 -926 c 4
352 -548 m 0
 352 -598 320 -622 284 -634 c 0
 272 -638 256 -640 236 -640 c 2
 148 -640 l 1
 148 -342 l 1
 228 -342 l 2
 250 -342 266 -342 276 -344 c 0
 298 -348 320 -356 328 -376 c 0
 332 -386 336 -398 336 -410 c 0
 336 -424 336 -436 328 -448 c 0
 320 -460 310 -466 296 -472 c 1
 296 -474 l 1
 314 -478 326 -488 336 -500 c 0
 346 -512 352 -528 352 -548 c 0
232 -464 m 2
 272 -464 296 -454 296 -416 c 0
 296 -394 282 -378 260 -378 c 0
 252 -378 242 -376 228 -376 c 2
 188 -376 l 1
 188 -464 l 1
 232 -464 l 2
312 -550 m 0
 312 -526 300 -514 284 -504 c 0
 278 -500 272 -498 264 -498 c 0
 256 -498 246 -496 232 -496 c 2
 188 -496 l 1
 188 -606 l 1
 220 -606 l 2
 252 -606 270 -606 288 -594 c 0
 302 -584 312 -570 312 -550 c 0
240 1084 m 0
 294 1084 330 1056 330 1002 c 0
 330 962 314 940 296 916 c 0
 290 908 282 900 274 892 c 0
 262 878 248 862 232 848 c 0
 216 834 206 822 196 814 c 1
 342 814 l 1
 342 780 l 1
 158 780 l 1
 158 822 l 1
 184 846 206 870 230 894 c 0
 252 918 268 938 276 954 c 0
 284 970 288 984 288 1000 c 0
 288 1032 270 1050 238 1050 c 0
 224 1050 206 1044 196 1040 c 0
 190 1038 184 1036 178 1032 c 0
 172 1028 170 1026 166 1024 c 1
 164 1024 l 1
 164 1066 l 1
 180 1074 214 1084 240 1084 c 0
226 -208 m 1
 274 -208 l 1
 274 -260 l 1
 226 -260 l 1
 226 -208 l 1
226 -58 m 1
 274 -58 l 1
 274 -110 l 1
 226 -110 l 1
 226 -58 l 1
226 92 m 1
 274 92 l 1
 274 40 l 1
 226 40 l 1
 226 92 l 1
226 242 m 1
 274 242 l 1
 274 190 l 1
 226 190 l 1
 226 242 l 1
226 392 m 1
 274 392 l 1
 274 340 l 1
 226 340 l 1
 226 392 l 1
226 542 m 1
 274 542 l 1
 274 490 l 1
 226 490 l 1
 226 542 l 1
226 692 m 1
 274 692 l 1
 274 640 l 1
 226 640 l 1
 226 692 l 1
EndSplineSet
Fore
Validated: 1
Substitution2: "sepP2 subtable" sep.2.B.p2.B
EndChar

StartChar: sep.2.A.p2.A
Encoding: 57667 57667 101
Width: 0
VWidth: 0
Flags: HMW
LayerCount: 4
Back
SplineSet
368 -1040 m 5
 468 -742 l 5
 520 -742 l 5
 620 -1040 l 5
 576 -1040 l 5
 548 -956 l 5
 436 -956 l 5
 408 -1040 l 5
 368 -1040 l 5
540 -924 m 5
 492 -782 l 5
 448 -924 l 5
 540 -924 l 5
306 -1040 m 5
 122 -1040 l 5
 122 -998 l 5
 148 -974 170 -952 194 -926 c 4
 226 -890 252 -864 252 -820 c 4
 252 -788 234 -770 202 -770 c 4
 172 -770 148 -784 130 -796 c 5
 128 -796 l 5
 128 -754 l 5
 144 -746 180 -736 204 -736 c 4
 258 -736 294 -766 294 -818 c 4
 294 -870 264 -900 238 -928 c 4
 218 -950 180 -986 160 -1006 c 5
 306 -1006 l 5
 306 -1040 l 5
68 -922 m 4
 68 -960 58 -990 40 -1012 c 4
 22 -1034 0 -1044 -28 -1044 c 4
 -40 -1044 -48 -1042 -56 -1040 c 4
 -64 -1038 -76 -1034 -84 -1028 c 5
 -84 -1122 l 5
 -120 -1122 l 5
 -120 -816 l 5
 -84 -816 l 5
 -84 -840 l 5
 -74 -832 -64 -824 -52 -818 c 4
 -40 -812 -26 -810 -12 -810 c 4
 14 -810 34 -820 48 -840 c 4
 62 -860 68 -888 68 -922 c 4
28 -926 m 4
 28 -900 24 -882 16 -868 c 4
 8 -854 -6 -846 -24 -846 c 4
 -34 -846 -42 -850 -52 -854 c 4
 -62 -858 -76 -864 -84 -872 c 5
 -84 -998 l 5
 -74 -1002 -64 -1006 -56 -1008 c 4
 -48 -1010 -42 -1010 -32 -1010 c 4
 -12 -1010 2 -1004 12 -990 c 4
 22 -976 28 -954 28 -926 c 4
124 -640 m 1
 224 -342 l 1
 276 -342 l 1
 376 -640 l 1
 332 -640 l 1
 304 -556 l 1
 192 -556 l 1
 164 -640 l 1
 124 -640 l 1
296 -524 m 1
 248 -382 l 1
 204 -524 l 1
 296 -524 l 1
240 1084 m 0
 294 1084 330 1056 330 1002 c 0
 330 962 314 940 296 916 c 0
 290 908 282 900 274 892 c 0
 262 878 248 862 232 848 c 0
 216 834 206 822 196 814 c 1
 342 814 l 1
 342 780 l 1
 158 780 l 1
 158 822 l 1
 184 846 206 870 230 894 c 0
 252 918 268 938 276 954 c 0
 284 970 288 984 288 1000 c 0
 288 1032 270 1050 238 1050 c 0
 224 1050 206 1044 196 1040 c 0
 190 1038 184 1036 178 1032 c 0
 172 1028 170 1026 166 1024 c 1
 164 1024 l 1
 164 1066 l 1
 180 1074 214 1084 240 1084 c 0
226 -208 m 1
 274 -208 l 1
 274 -260 l 1
 226 -260 l 1
 226 -208 l 1
226 -58 m 1
 274 -58 l 1
 274 -110 l 1
 226 -110 l 1
 226 -58 l 1
226 92 m 1
 274 92 l 1
 274 40 l 1
 226 40 l 1
 226 92 l 1
226 242 m 1
 274 242 l 1
 274 190 l 1
 226 190 l 1
 226 242 l 1
226 392 m 1
 274 392 l 1
 274 340 l 1
 226 340 l 1
 226 392 l 1
226 542 m 1
 274 542 l 1
 274 490 l 1
 226 490 l 1
 226 542 l 1
226 692 m 1
 274 692 l 1
 274 640 l 1
 226 640 l 1
 226 692 l 1
EndSplineSet
Fore
Validated: 1
Substitution2: "sepP3 subtable" sep.2.A.p3.A
EndChar

StartChar: sep.2.A.p2.B
Encoding: 57668 57668 102
Width: 0
VWidth: 0
Flags: HMW
LayerCount: 4
Back
SplineSet
552 -874 m 5
 584 -882 608 -908 608 -948 c 4
 608 -1014 558 -1040 492 -1040 c 6
 404 -1040 l 5
 404 -742 l 5
 484 -742 l 6
 546 -742 592 -752 592 -810 c 4
 592 -842 574 -860 552 -872 c 5
 552 -874 l 5
552 -816 m 4
 552 -778 522 -776 484 -776 c 6
 444 -776 l 5
 444 -864 l 5
 488 -864 l 6
 528 -864 552 -854 552 -816 c 4
568 -950 m 4
 568 -904 536 -896 488 -896 c 6
 444 -896 l 5
 444 -1006 l 5
 476 -1006 l 6
 526 -1006 568 -998 568 -950 c 4
318 -1040 m 5
 134 -1040 l 5
 134 -998 l 5
 160 -974 182 -952 206 -926 c 4
 238 -890 264 -864 264 -820 c 4
 264 -788 246 -770 214 -770 c 4
 184 -770 160 -784 142 -796 c 5
 140 -796 l 5
 140 -754 l 5
 156 -746 192 -736 216 -736 c 4
 270 -736 306 -766 306 -818 c 4
 306 -870 276 -900 250 -928 c 4
 230 -950 192 -986 172 -1006 c 5
 318 -1006 l 5
 318 -1040 l 5
80 -922 m 4
 80 -960 70 -990 52 -1012 c 4
 34 -1034 12 -1044 -16 -1044 c 4
 -28 -1044 -36 -1042 -44 -1040 c 4
 -52 -1038 -64 -1034 -72 -1028 c 5
 -72 -1122 l 5
 -108 -1122 l 5
 -108 -816 l 5
 -72 -816 l 5
 -72 -840 l 5
 -62 -832 -52 -824 -40 -818 c 4
 -28 -812 -14 -810 0 -810 c 4
 26 -810 46 -820 60 -840 c 4
 74 -860 80 -888 80 -922 c 4
40 -926 m 4
 40 -900 36 -882 28 -868 c 4
 20 -854 6 -846 -12 -846 c 4
 -22 -846 -30 -850 -40 -854 c 4
 -50 -858 -64 -864 -72 -872 c 5
 -72 -998 l 5
 -62 -1002 -52 -1006 -44 -1008 c 4
 -36 -1010 -30 -1010 -20 -1010 c 4
 0 -1010 14 -1004 24 -990 c 4
 34 -976 40 -954 40 -926 c 4
124 -640 m 1
 224 -342 l 1
 276 -342 l 1
 376 -640 l 1
 332 -640 l 1
 304 -556 l 1
 192 -556 l 1
 164 -640 l 1
 124 -640 l 1
296 -524 m 1
 248 -382 l 1
 204 -524 l 1
 296 -524 l 1
240 1084 m 0
 294 1084 330 1056 330 1002 c 0
 330 962 314 940 296 916 c 0
 290 908 282 900 274 892 c 0
 262 878 248 862 232 848 c 0
 216 834 206 822 196 814 c 1
 342 814 l 1
 342 780 l 1
 158 780 l 1
 158 822 l 1
 184 846 206 870 230 894 c 0
 252 918 268 938 276 954 c 0
 284 970 288 984 288 1000 c 0
 288 1032 270 1050 238 1050 c 0
 224 1050 206 1044 196 1040 c 0
 190 1038 184 1036 178 1032 c 0
 172 1028 170 1026 166 1024 c 1
 164 1024 l 1
 164 1066 l 1
 180 1074 214 1084 240 1084 c 0
226 -208 m 1
 274 -208 l 1
 274 -260 l 1
 226 -260 l 1
 226 -208 l 1
226 -58 m 1
 274 -58 l 1
 274 -110 l 1
 226 -110 l 1
 226 -58 l 1
226 92 m 1
 274 92 l 1
 274 40 l 1
 226 40 l 1
 226 92 l 1
226 242 m 1
 274 242 l 1
 274 190 l 1
 226 190 l 1
 226 242 l 1
226 392 m 1
 274 392 l 1
 274 340 l 1
 226 340 l 1
 226 392 l 1
226 542 m 1
 274 542 l 1
 274 490 l 1
 226 490 l 1
 226 542 l 1
226 692 m 1
 274 692 l 1
 274 640 l 1
 226 640 l 1
 226 692 l 1
EndSplineSet
Fore
Validated: 1
Substitution2: "sepP3 subtable" sep.2.A.p3.B
EndChar

StartChar: sep.2.B.p2.B
Encoding: 57674 57674 103
Width: 0
VWidth: 0
Flags: HMW
LayerCount: 4
Back
SplineSet
552 -874 m 5
 584 -882 608 -908 608 -948 c 4
 608 -1014 558 -1040 492 -1040 c 6
 404 -1040 l 5
 404 -742 l 5
 484 -742 l 6
 546 -742 592 -752 592 -810 c 4
 592 -842 574 -860 552 -872 c 5
 552 -874 l 5
552 -816 m 4
 552 -778 522 -776 484 -776 c 6
 444 -776 l 5
 444 -864 l 5
 488 -864 l 6
 528 -864 552 -854 552 -816 c 4
568 -950 m 4
 568 -904 536 -896 488 -896 c 6
 444 -896 l 5
 444 -1006 l 5
 476 -1006 l 6
 526 -1006 568 -998 568 -950 c 4
318 -1040 m 5
 134 -1040 l 5
 134 -998 l 5
 160 -974 182 -952 206 -926 c 4
 238 -890 264 -864 264 -820 c 4
 264 -788 246 -770 214 -770 c 4
 184 -770 160 -784 142 -796 c 5
 140 -796 l 5
 140 -754 l 5
 156 -746 192 -736 216 -736 c 4
 270 -736 306 -766 306 -818 c 4
 306 -870 276 -900 250 -928 c 4
 230 -950 192 -986 172 -1006 c 5
 318 -1006 l 5
 318 -1040 l 5
80 -922 m 4
 80 -960 70 -990 52 -1012 c 4
 34 -1034 12 -1044 -16 -1044 c 4
 -28 -1044 -36 -1042 -44 -1040 c 4
 -52 -1038 -64 -1034 -72 -1028 c 5
 -72 -1122 l 5
 -108 -1122 l 5
 -108 -816 l 5
 -72 -816 l 5
 -72 -840 l 5
 -62 -832 -52 -824 -40 -818 c 4
 -28 -812 -14 -810 0 -810 c 4
 26 -810 46 -820 60 -840 c 4
 74 -860 80 -888 80 -922 c 4
40 -926 m 4
 40 -900 36 -882 28 -868 c 4
 20 -854 6 -846 -12 -846 c 4
 -22 -846 -30 -850 -40 -854 c 4
 -50 -858 -64 -864 -72 -872 c 5
 -72 -998 l 5
 -62 -1002 -52 -1006 -44 -1008 c 4
 -36 -1010 -30 -1010 -20 -1010 c 4
 0 -1010 14 -1004 24 -990 c 4
 34 -976 40 -954 40 -926 c 4
352 -548 m 0
 352 -598 320 -622 284 -634 c 0
 272 -638 256 -640 236 -640 c 2
 148 -640 l 1
 148 -342 l 1
 228 -342 l 2
 250 -342 266 -342 276 -344 c 0
 298 -348 320 -356 328 -376 c 0
 332 -386 336 -398 336 -410 c 0
 336 -424 336 -436 328 -448 c 0
 320 -460 310 -466 296 -472 c 1
 296 -474 l 1
 314 -478 326 -488 336 -500 c 0
 346 -512 352 -528 352 -548 c 0
232 -464 m 2
 272 -464 296 -454 296 -416 c 0
 296 -394 282 -378 260 -378 c 0
 252 -378 242 -376 228 -376 c 2
 188 -376 l 1
 188 -464 l 1
 232 -464 l 2
312 -550 m 0
 312 -526 300 -514 284 -504 c 0
 278 -500 272 -498 264 -498 c 0
 256 -498 246 -496 232 -496 c 2
 188 -496 l 1
 188 -606 l 1
 220 -606 l 2
 252 -606 270 -606 288 -594 c 0
 302 -584 312 -570 312 -550 c 0
240 1084 m 0
 294 1084 330 1056 330 1002 c 0
 330 962 314 940 296 916 c 0
 290 908 282 900 274 892 c 0
 262 878 248 862 232 848 c 0
 216 834 206 822 196 814 c 1
 342 814 l 1
 342 780 l 1
 158 780 l 1
 158 822 l 1
 184 846 206 870 230 894 c 0
 252 918 268 938 276 954 c 0
 284 970 288 984 288 1000 c 0
 288 1032 270 1050 238 1050 c 0
 224 1050 206 1044 196 1040 c 0
 190 1038 184 1036 178 1032 c 0
 172 1028 170 1026 166 1024 c 1
 164 1024 l 1
 164 1066 l 1
 180 1074 214 1084 240 1084 c 0
226 -208 m 1
 274 -208 l 1
 274 -260 l 1
 226 -260 l 1
 226 -208 l 1
226 -58 m 1
 274 -58 l 1
 274 -110 l 1
 226 -110 l 1
 226 -58 l 1
226 92 m 1
 274 92 l 1
 274 40 l 1
 226 40 l 1
 226 92 l 1
226 242 m 1
 274 242 l 1
 274 190 l 1
 226 190 l 1
 226 242 l 1
226 392 m 1
 274 392 l 1
 274 340 l 1
 226 340 l 1
 226 392 l 1
226 542 m 1
 274 542 l 1
 274 490 l 1
 226 490 l 1
 226 542 l 1
226 692 m 1
 274 692 l 1
 274 640 l 1
 226 640 l 1
 226 692 l 1
EndSplineSet
Fore
Validated: 1
Substitution2: "sepP3 subtable" sep.2.B.p3.B
EndChar

StartChar: sep.3.A.p1.A
Encoding: 57677 57677 104
Width: 0
VWidth: 0
Flags: HMW
LayerCount: 4
Back
SplineSet
348 -1040 m 5
 448 -742 l 5
 500 -742 l 5
 600 -1040 l 5
 556 -1040 l 5
 528 -956 l 5
 416 -956 l 5
 388 -1040 l 5
 348 -1040 l 5
520 -924 m 5
 472 -782 l 5
 428 -924 l 5
 520 -924 l 5
306 -1040 m 5
 162 -1040 l 5
 162 -1010 l 5
 216 -1010 l 5
 216 -810 l 5
 162 -810 l 5
 162 -782 l 5
 200 -782 220 -776 222 -742 c 5
 254 -742 l 5
 254 -1010 l 5
 306 -1010 l 5
 306 -1040 l 5
88 -922 m 4
 88 -960 78 -990 60 -1012 c 4
 42 -1034 20 -1044 -8 -1044 c 4
 -20 -1044 -28 -1042 -36 -1040 c 4
 -44 -1038 -56 -1034 -64 -1028 c 5
 -64 -1122 l 5
 -100 -1122 l 5
 -100 -816 l 5
 -64 -816 l 5
 -64 -840 l 5
 -54 -832 -44 -824 -32 -818 c 4
 -20 -812 -6 -810 8 -810 c 4
 34 -810 54 -820 68 -840 c 4
 82 -860 88 -888 88 -922 c 4
48 -926 m 4
 48 -900 44 -882 36 -868 c 4
 28 -854 14 -846 -4 -846 c 4
 -14 -846 -22 -850 -32 -854 c 4
 -42 -858 -56 -864 -64 -872 c 5
 -64 -998 l 5
 -54 -1002 -44 -1006 -36 -1008 c 4
 -28 -1010 -22 -1010 -12 -1010 c 4
 8 -1010 22 -1004 32 -990 c 4
 42 -976 48 -954 48 -926 c 4
124 -640 m 1
 224 -342 l 1
 276 -342 l 1
 376 -640 l 1
 332 -640 l 1
 304 -556 l 1
 192 -556 l 1
 164 -640 l 1
 124 -640 l 1
296 -524 m 1
 248 -382 l 1
 204 -524 l 1
 296 -524 l 1
294 1008 m 0
 294 1038 272 1050 242 1050 c 0
 220 1050 196 1040 182 1032 c 0
 178 1030 174 1026 170 1024 c 1
 168 1024 l 1
 168 1066 l 1
 186 1074 220 1084 246 1084 c 256
 298 1084 334 1064 334 1012 c 0
 334 976 310 954 280 946 c 1
 280 942 l 1
 294 938 310 934 320 924 c 256
 332 912 340 892 340 868 c 0
 340 838 330 818 314 802 c 0
 298 782 274 774 240 774 c 0
 226 774 210 776 196 780 c 0
 182 784 170 786 160 792 c 1
 160 834 l 1
 162 834 l 1
 178 822 210 808 238 808 c 0
 278 808 300 830 300 872 c 256
 300 912 278 924 238 924 c 2
 220 924 l 1
 220 958 l 1
 234 958 l 2
 252 958 266 962 278 970 c 0
 290 978 294 992 294 1008 c 0
226 -208 m 1
 274 -208 l 1
 274 -260 l 1
 226 -260 l 1
 226 -208 l 1
226 -58 m 1
 274 -58 l 1
 274 -110 l 1
 226 -110 l 1
 226 -58 l 1
226 92 m 1
 274 92 l 1
 274 40 l 1
 226 40 l 1
 226 92 l 1
226 242 m 1
 274 242 l 1
 274 190 l 1
 226 190 l 1
 226 242 l 1
226 392 m 1
 274 392 l 1
 274 340 l 1
 226 340 l 1
 226 392 l 1
226 542 m 1
 274 542 l 1
 274 490 l 1
 226 490 l 1
 226 542 l 1
226 692 m 1
 274 692 l 1
 274 640 l 1
 226 640 l 1
 226 692 l 1
EndSplineSet
Fore
Validated: 1
Substitution2: "sepP2 subtable" sep.3.A.p2.A
EndChar

StartChar: sep.3.B.p1.B
Encoding: 57685 57685 105
Width: 0
VWidth: 0
Flags: HMW
LayerCount: 4
Back
SplineSet
542 -874 m 5
 574 -882 598 -908 598 -948 c 4
 598 -1014 548 -1040 482 -1040 c 6
 394 -1040 l 5
 394 -742 l 5
 474 -742 l 6
 536 -742 582 -752 582 -810 c 4
 582 -842 564 -860 542 -872 c 5
 542 -874 l 5
542 -816 m 4
 542 -778 512 -776 474 -776 c 6
 434 -776 l 5
 434 -864 l 5
 478 -864 l 6
 518 -864 542 -854 542 -816 c 4
558 -950 m 4
 558 -904 526 -896 478 -896 c 6
 434 -896 l 5
 434 -1006 l 5
 466 -1006 l 6
 516 -1006 558 -998 558 -950 c 4
308 -1040 m 5
 164 -1040 l 5
 164 -1010 l 5
 218 -1010 l 5
 218 -810 l 5
 164 -810 l 5
 164 -782 l 5
 202 -782 222 -776 224 -742 c 5
 256 -742 l 5
 256 -1010 l 5
 308 -1010 l 5
 308 -1040 l 5
90 -922 m 4
 90 -960 80 -990 62 -1012 c 4
 44 -1034 22 -1044 -6 -1044 c 4
 -18 -1044 -26 -1042 -34 -1040 c 4
 -42 -1038 -54 -1034 -62 -1028 c 5
 -62 -1122 l 5
 -98 -1122 l 5
 -98 -816 l 5
 -62 -816 l 5
 -62 -840 l 5
 -52 -832 -42 -824 -30 -818 c 4
 -18 -812 -4 -810 10 -810 c 4
 36 -810 56 -820 70 -840 c 4
 84 -860 90 -888 90 -922 c 4
50 -926 m 4
 50 -900 46 -882 38 -868 c 4
 30 -854 16 -846 -2 -846 c 4
 -12 -846 -20 -850 -30 -854 c 4
 -40 -858 -54 -864 -62 -872 c 5
 -62 -998 l 5
 -52 -1002 -42 -1006 -34 -1008 c 4
 -26 -1010 -20 -1010 -10 -1010 c 4
 10 -1010 24 -1004 34 -990 c 4
 44 -976 50 -954 50 -926 c 4
352 -548 m 0
 352 -598 320 -622 284 -634 c 0
 272 -638 256 -640 236 -640 c 2
 148 -640 l 1
 148 -342 l 1
 228 -342 l 2
 250 -342 266 -342 276 -344 c 0
 298 -348 320 -356 328 -376 c 0
 332 -386 336 -398 336 -410 c 0
 336 -424 336 -436 328 -448 c 0
 320 -460 310 -466 296 -472 c 1
 296 -474 l 1
 314 -478 326 -488 336 -500 c 0
 346 -512 352 -528 352 -548 c 0
232 -464 m 2
 272 -464 296 -454 296 -416 c 0
 296 -394 282 -378 260 -378 c 0
 252 -378 242 -376 228 -376 c 2
 188 -376 l 1
 188 -464 l 1
 232 -464 l 2
312 -550 m 0
 312 -526 300 -514 284 -504 c 0
 278 -500 272 -498 264 -498 c 0
 256 -498 246 -496 232 -496 c 2
 188 -496 l 1
 188 -606 l 1
 220 -606 l 2
 252 -606 270 -606 288 -594 c 0
 302 -584 312 -570 312 -550 c 0
294 1008 m 0
 294 1038 272 1050 242 1050 c 0
 220 1050 196 1040 182 1032 c 0
 178 1030 174 1026 170 1024 c 1
 168 1024 l 1
 168 1066 l 1
 186 1074 220 1084 246 1084 c 256
 298 1084 334 1064 334 1012 c 0
 334 976 310 954 280 946 c 1
 280 942 l 1
 294 938 310 934 320 924 c 256
 332 912 340 892 340 868 c 0
 340 838 330 818 314 802 c 0
 298 782 274 774 240 774 c 0
 226 774 210 776 196 780 c 0
 182 784 170 786 160 792 c 1
 160 834 l 1
 162 834 l 1
 178 822 210 808 238 808 c 0
 278 808 300 830 300 872 c 256
 300 912 278 924 238 924 c 2
 220 924 l 1
 220 958 l 1
 234 958 l 2
 252 958 266 962 278 970 c 0
 290 978 294 992 294 1008 c 0
226 -208 m 1
 274 -208 l 1
 274 -260 l 1
 226 -260 l 1
 226 -208 l 1
226 -58 m 1
 274 -58 l 1
 274 -110 l 1
 226 -110 l 1
 226 -58 l 1
226 92 m 1
 274 92 l 1
 274 40 l 1
 226 40 l 1
 226 92 l 1
226 242 m 1
 274 242 l 1
 274 190 l 1
 226 190 l 1
 226 242 l 1
226 392 m 1
 274 392 l 1
 274 340 l 1
 226 340 l 1
 226 392 l 1
226 542 m 1
 274 542 l 1
 274 490 l 1
 226 490 l 1
 226 542 l 1
226 692 m 1
 274 692 l 1
 274 640 l 1
 226 640 l 1
 226 692 l 1
EndSplineSet
Fore
Validated: 1
Substitution2: "sepP2 subtable" sep.3.B.p2.B
EndChar

StartChar: sep.3.A.p1.B
Encoding: 57678 57678 106
Width: 0
VWidth: 0
Flags: HMW
LayerCount: 4
Back
SplineSet
542 -874 m 5
 574 -882 598 -908 598 -948 c 4
 598 -1014 548 -1040 482 -1040 c 6
 394 -1040 l 5
 394 -742 l 5
 474 -742 l 6
 536 -742 582 -752 582 -810 c 4
 582 -842 564 -860 542 -872 c 5
 542 -874 l 5
542 -816 m 4
 542 -778 512 -776 474 -776 c 6
 434 -776 l 5
 434 -864 l 5
 478 -864 l 6
 518 -864 542 -854 542 -816 c 4
558 -950 m 4
 558 -904 526 -896 478 -896 c 6
 434 -896 l 5
 434 -1006 l 5
 466 -1006 l 6
 516 -1006 558 -998 558 -950 c 4
308 -1040 m 5
 164 -1040 l 5
 164 -1010 l 5
 218 -1010 l 5
 218 -810 l 5
 164 -810 l 5
 164 -782 l 5
 202 -782 222 -776 224 -742 c 5
 256 -742 l 5
 256 -1010 l 5
 308 -1010 l 5
 308 -1040 l 5
90 -922 m 4
 90 -960 80 -990 62 -1012 c 4
 44 -1034 22 -1044 -6 -1044 c 4
 -18 -1044 -26 -1042 -34 -1040 c 4
 -42 -1038 -54 -1034 -62 -1028 c 5
 -62 -1122 l 5
 -98 -1122 l 5
 -98 -816 l 5
 -62 -816 l 5
 -62 -840 l 5
 -52 -832 -42 -824 -30 -818 c 4
 -18 -812 -4 -810 10 -810 c 4
 36 -810 56 -820 70 -840 c 4
 84 -860 90 -888 90 -922 c 4
50 -926 m 4
 50 -900 46 -882 38 -868 c 4
 30 -854 16 -846 -2 -846 c 4
 -12 -846 -20 -850 -30 -854 c 4
 -40 -858 -54 -864 -62 -872 c 5
 -62 -998 l 5
 -52 -1002 -42 -1006 -34 -1008 c 4
 -26 -1010 -20 -1010 -10 -1010 c 4
 10 -1010 24 -1004 34 -990 c 4
 44 -976 50 -954 50 -926 c 4
124 -640 m 1
 224 -342 l 1
 276 -342 l 1
 376 -640 l 1
 332 -640 l 1
 304 -556 l 1
 192 -556 l 1
 164 -640 l 1
 124 -640 l 1
296 -524 m 1
 248 -382 l 1
 204 -524 l 1
 296 -524 l 1
294 1008 m 0
 294 1038 272 1050 242 1050 c 0
 220 1050 196 1040 182 1032 c 0
 178 1030 174 1026 170 1024 c 1
 168 1024 l 1
 168 1066 l 1
 186 1074 220 1084 246 1084 c 256
 298 1084 334 1064 334 1012 c 0
 334 976 310 954 280 946 c 1
 280 942 l 1
 294 938 310 934 320 924 c 256
 332 912 340 892 340 868 c 0
 340 838 330 818 314 802 c 0
 298 782 274 774 240 774 c 0
 226 774 210 776 196 780 c 0
 182 784 170 786 160 792 c 1
 160 834 l 1
 162 834 l 1
 178 822 210 808 238 808 c 0
 278 808 300 830 300 872 c 256
 300 912 278 924 238 924 c 2
 220 924 l 1
 220 958 l 1
 234 958 l 2
 252 958 266 962 278 970 c 0
 290 978 294 992 294 1008 c 0
226 -208 m 1
 274 -208 l 1
 274 -260 l 1
 226 -260 l 1
 226 -208 l 1
226 -58 m 1
 274 -58 l 1
 274 -110 l 1
 226 -110 l 1
 226 -58 l 1
226 92 m 1
 274 92 l 1
 274 40 l 1
 226 40 l 1
 226 92 l 1
226 242 m 1
 274 242 l 1
 274 190 l 1
 226 190 l 1
 226 242 l 1
226 392 m 1
 274 392 l 1
 274 340 l 1
 226 340 l 1
 226 392 l 1
226 542 m 1
 274 542 l 1
 274 490 l 1
 226 490 l 1
 226 542 l 1
226 692 m 1
 274 692 l 1
 274 640 l 1
 226 640 l 1
 226 692 l 1
EndSplineSet
Fore
Validated: 1
Substitution2: "sepP2 subtable" sep.3.A.p2.B
EndChar

StartChar: sep.3.A.p2.A
Encoding: 57679 57679 107
Width: 0
VWidth: 0
Flags: HMW
LayerCount: 4
Back
SplineSet
368 -1040 m 5
 468 -742 l 5
 520 -742 l 5
 620 -1040 l 5
 576 -1040 l 5
 548 -956 l 5
 436 -956 l 5
 408 -1040 l 5
 368 -1040 l 5
540 -924 m 5
 492 -782 l 5
 448 -924 l 5
 540 -924 l 5
306 -1040 m 5
 122 -1040 l 5
 122 -998 l 5
 148 -974 170 -952 194 -926 c 4
 226 -890 252 -864 252 -820 c 4
 252 -788 234 -770 202 -770 c 4
 172 -770 148 -784 130 -796 c 5
 128 -796 l 5
 128 -754 l 5
 144 -746 180 -736 204 -736 c 4
 258 -736 294 -766 294 -818 c 4
 294 -870 264 -900 238 -928 c 4
 218 -950 180 -986 160 -1006 c 5
 306 -1006 l 5
 306 -1040 l 5
68 -922 m 4
 68 -960 58 -990 40 -1012 c 4
 22 -1034 0 -1044 -28 -1044 c 4
 -40 -1044 -48 -1042 -56 -1040 c 4
 -64 -1038 -76 -1034 -84 -1028 c 5
 -84 -1122 l 5
 -120 -1122 l 5
 -120 -816 l 5
 -84 -816 l 5
 -84 -840 l 5
 -74 -832 -64 -824 -52 -818 c 4
 -40 -812 -26 -810 -12 -810 c 4
 14 -810 34 -820 48 -840 c 4
 62 -860 68 -888 68 -922 c 4
28 -926 m 4
 28 -900 24 -882 16 -868 c 4
 8 -854 -6 -846 -24 -846 c 4
 -34 -846 -42 -850 -52 -854 c 4
 -62 -858 -76 -864 -84 -872 c 5
 -84 -998 l 5
 -74 -1002 -64 -1006 -56 -1008 c 4
 -48 -1010 -42 -1010 -32 -1010 c 4
 -12 -1010 2 -1004 12 -990 c 4
 22 -976 28 -954 28 -926 c 4
124 -640 m 1
 224 -342 l 1
 276 -342 l 1
 376 -640 l 1
 332 -640 l 1
 304 -556 l 1
 192 -556 l 1
 164 -640 l 1
 124 -640 l 1
296 -524 m 1
 248 -382 l 1
 204 -524 l 1
 296 -524 l 1
294 1008 m 0
 294 1038 272 1050 242 1050 c 0
 220 1050 196 1040 182 1032 c 0
 178 1030 174 1026 170 1024 c 1
 168 1024 l 1
 168 1066 l 1
 186 1074 220 1084 246 1084 c 256
 298 1084 334 1064 334 1012 c 0
 334 976 310 954 280 946 c 1
 280 942 l 1
 294 938 310 934 320 924 c 256
 332 912 340 892 340 868 c 0
 340 838 330 818 314 802 c 0
 298 782 274 774 240 774 c 0
 226 774 210 776 196 780 c 0
 182 784 170 786 160 792 c 1
 160 834 l 1
 162 834 l 1
 178 822 210 808 238 808 c 0
 278 808 300 830 300 872 c 256
 300 912 278 924 238 924 c 2
 220 924 l 1
 220 958 l 1
 234 958 l 2
 252 958 266 962 278 970 c 0
 290 978 294 992 294 1008 c 0
226 -208 m 1
 274 -208 l 1
 274 -260 l 1
 226 -260 l 1
 226 -208 l 1
226 -58 m 1
 274 -58 l 1
 274 -110 l 1
 226 -110 l 1
 226 -58 l 1
226 92 m 1
 274 92 l 1
 274 40 l 1
 226 40 l 1
 226 92 l 1
226 242 m 1
 274 242 l 1
 274 190 l 1
 226 190 l 1
 226 242 l 1
226 392 m 1
 274 392 l 1
 274 340 l 1
 226 340 l 1
 226 392 l 1
226 542 m 1
 274 542 l 1
 274 490 l 1
 226 490 l 1
 226 542 l 1
226 692 m 1
 274 692 l 1
 274 640 l 1
 226 640 l 1
 226 692 l 1
EndSplineSet
Fore
Validated: 1
Substitution2: "sepP3 subtable" sep.3.A.p3.A
EndChar

StartChar: sep.3.A.p2.B
Encoding: 57680 57680 108
Width: 0
VWidth: 0
Flags: HMW
LayerCount: 4
Back
SplineSet
552 -874 m 1
 584 -882 608 -908 608 -948 c 0
 608 -1014 558 -1040 492 -1040 c 2
 404 -1040 l 1
 404 -742 l 1
 484 -742 l 2
 546 -742 592 -752 592 -810 c 0
 592 -842 574 -860 552 -872 c 1
 552 -874 l 1
552 -816 m 0
 552 -778 522 -776 484 -776 c 2
 444 -776 l 1
 444 -864 l 1
 488 -864 l 2
 528 -864 552 -854 552 -816 c 0
568 -950 m 0
 568 -904 536 -896 488 -896 c 2
 444 -896 l 1
 444 -1006 l 1
 476 -1006 l 2
 526 -1006 568 -998 568 -950 c 0
318 -1040 m 1
 134 -1040 l 1
 134 -998 l 1
 160 -974 182 -952 206 -926 c 0
 238 -890 264 -864 264 -820 c 0
 264 -788 246 -770 214 -770 c 0
 184 -770 160 -784 142 -796 c 1
 140 -796 l 1
 140 -754 l 1
 156 -746 192 -736 216 -736 c 0
 270 -736 306 -766 306 -818 c 0
 306 -870 276 -900 250 -928 c 0
 230 -950 192 -986 172 -1006 c 1
 318 -1006 l 1
 318 -1040 l 1
80 -922 m 0
 80 -960 70 -990 52 -1012 c 0
 34 -1034 12 -1044 -16 -1044 c 0
 -28 -1044 -36 -1042 -44 -1040 c 0
 -52 -1038 -64 -1034 -72 -1028 c 1
 -72 -1122 l 1
 -108 -1122 l 1
 -108 -816 l 1
 -72 -816 l 1
 -72 -840 l 1
 -62 -832 -52 -824 -40 -818 c 0
 -28 -812 -14 -810 0 -810 c 0
 26 -810 46 -820 60 -840 c 0
 74 -860 80 -888 80 -922 c 0
40 -926 m 0
 40 -900 36 -882 28 -868 c 0
 20 -854 6 -846 -12 -846 c 0
 -22 -846 -30 -850 -40 -854 c 0
 -50 -858 -64 -864 -72 -872 c 1
 -72 -998 l 1
 -62 -1002 -52 -1006 -44 -1008 c 0
 -36 -1010 -30 -1010 -20 -1010 c 0
 0 -1010 14 -1004 24 -990 c 0
 34 -976 40 -954 40 -926 c 0
124 -640 m 1
 224 -342 l 1
 276 -342 l 1
 376 -640 l 1
 332 -640 l 1
 304 -556 l 1
 192 -556 l 1
 164 -640 l 1
 124 -640 l 1
296 -524 m 1
 248 -382 l 1
 204 -524 l 1
 296 -524 l 1
294 1008 m 0
 294 1038 272 1050 242 1050 c 0
 220 1050 196 1040 182 1032 c 0
 178 1030 174 1026 170 1024 c 1
 168 1024 l 1
 168 1066 l 1
 186 1074 220 1084 246 1084 c 256
 298 1084 334 1064 334 1012 c 0
 334 976 310 954 280 946 c 1
 280 942 l 1
 294 938 310 934 320 924 c 256
 332 912 340 892 340 868 c 0
 340 838 330 818 314 802 c 0
 298 782 274 774 240 774 c 0
 226 774 210 776 196 780 c 0
 182 784 170 786 160 792 c 1
 160 834 l 1
 162 834 l 1
 178 822 210 808 238 808 c 0
 278 808 300 830 300 872 c 256
 300 912 278 924 238 924 c 2
 220 924 l 1
 220 958 l 1
 234 958 l 2
 252 958 266 962 278 970 c 0
 290 978 294 992 294 1008 c 0
226 -208 m 1
 274 -208 l 1
 274 -260 l 1
 226 -260 l 1
 226 -208 l 1
226 -58 m 1
 274 -58 l 1
 274 -110 l 1
 226 -110 l 1
 226 -58 l 1
226 92 m 1
 274 92 l 1
 274 40 l 1
 226 40 l 1
 226 92 l 1
226 242 m 1
 274 242 l 1
 274 190 l 1
 226 190 l 1
 226 242 l 1
226 392 m 1
 274 392 l 1
 274 340 l 1
 226 340 l 1
 226 392 l 1
226 542 m 1
 274 542 l 1
 274 490 l 1
 226 490 l 1
 226 542 l 1
226 692 m 1
 274 692 l 1
 274 640 l 1
 226 640 l 1
 226 692 l 1
EndSplineSet
Fore
Validated: 1
Substitution2: "sepP3 subtable" sep.3.A.p3.B
EndChar

StartChar: sep.3.B.p2.B
Encoding: 57686 57686 109
Width: 0
VWidth: 0
Flags: HMW
LayerCount: 4
Back
SplineSet
552 -874 m 5
 584 -882 608 -908 608 -948 c 4
 608 -1014 558 -1040 492 -1040 c 6
 404 -1040 l 5
 404 -742 l 5
 484 -742 l 6
 546 -742 592 -752 592 -810 c 4
 592 -842 574 -860 552 -872 c 5
 552 -874 l 5
552 -816 m 4
 552 -778 522 -776 484 -776 c 6
 444 -776 l 5
 444 -864 l 5
 488 -864 l 6
 528 -864 552 -854 552 -816 c 4
568 -950 m 4
 568 -904 536 -896 488 -896 c 6
 444 -896 l 5
 444 -1006 l 5
 476 -1006 l 6
 526 -1006 568 -998 568 -950 c 4
318 -1040 m 5
 134 -1040 l 5
 134 -998 l 5
 160 -974 182 -952 206 -926 c 4
 238 -890 264 -864 264 -820 c 4
 264 -788 246 -770 214 -770 c 4
 184 -770 160 -784 142 -796 c 5
 140 -796 l 5
 140 -754 l 5
 156 -746 192 -736 216 -736 c 4
 270 -736 306 -766 306 -818 c 4
 306 -870 276 -900 250 -928 c 4
 230 -950 192 -986 172 -1006 c 5
 318 -1006 l 5
 318 -1040 l 5
80 -922 m 4
 80 -960 70 -990 52 -1012 c 4
 34 -1034 12 -1044 -16 -1044 c 4
 -28 -1044 -36 -1042 -44 -1040 c 4
 -52 -1038 -64 -1034 -72 -1028 c 5
 -72 -1122 l 5
 -108 -1122 l 5
 -108 -816 l 5
 -72 -816 l 5
 -72 -840 l 5
 -62 -832 -52 -824 -40 -818 c 4
 -28 -812 -14 -810 0 -810 c 4
 26 -810 46 -820 60 -840 c 4
 74 -860 80 -888 80 -922 c 4
40 -926 m 4
 40 -900 36 -882 28 -868 c 4
 20 -854 6 -846 -12 -846 c 4
 -22 -846 -30 -850 -40 -854 c 4
 -50 -858 -64 -864 -72 -872 c 5
 -72 -998 l 5
 -62 -1002 -52 -1006 -44 -1008 c 4
 -36 -1010 -30 -1010 -20 -1010 c 4
 0 -1010 14 -1004 24 -990 c 4
 34 -976 40 -954 40 -926 c 4
352 -548 m 0
 352 -598 320 -622 284 -634 c 0
 272 -638 256 -640 236 -640 c 2
 148 -640 l 1
 148 -342 l 1
 228 -342 l 2
 250 -342 266 -342 276 -344 c 0
 298 -348 320 -356 328 -376 c 0
 332 -386 336 -398 336 -410 c 0
 336 -424 336 -436 328 -448 c 0
 320 -460 310 -466 296 -472 c 1
 296 -474 l 1
 314 -478 326 -488 336 -500 c 0
 346 -512 352 -528 352 -548 c 0
232 -464 m 2
 272 -464 296 -454 296 -416 c 0
 296 -394 282 -378 260 -378 c 0
 252 -378 242 -376 228 -376 c 2
 188 -376 l 1
 188 -464 l 1
 232 -464 l 2
312 -550 m 0
 312 -526 300 -514 284 -504 c 0
 278 -500 272 -498 264 -498 c 0
 256 -498 246 -496 232 -496 c 2
 188 -496 l 1
 188 -606 l 1
 220 -606 l 2
 252 -606 270 -606 288 -594 c 0
 302 -584 312 -570 312 -550 c 0
294 1008 m 0
 294 1038 272 1050 242 1050 c 0
 220 1050 196 1040 182 1032 c 0
 178 1030 174 1026 170 1024 c 1
 168 1024 l 1
 168 1066 l 1
 186 1074 220 1084 246 1084 c 256
 298 1084 334 1064 334 1012 c 0
 334 976 310 954 280 946 c 1
 280 942 l 1
 294 938 310 934 320 924 c 256
 332 912 340 892 340 868 c 0
 340 838 330 818 314 802 c 0
 298 782 274 774 240 774 c 0
 226 774 210 776 196 780 c 0
 182 784 170 786 160 792 c 1
 160 834 l 1
 162 834 l 1
 178 822 210 808 238 808 c 0
 278 808 300 830 300 872 c 256
 300 912 278 924 238 924 c 2
 220 924 l 1
 220 958 l 1
 234 958 l 2
 252 958 266 962 278 970 c 0
 290 978 294 992 294 1008 c 0
226 -208 m 1
 274 -208 l 1
 274 -260 l 1
 226 -260 l 1
 226 -208 l 1
226 -58 m 1
 274 -58 l 1
 274 -110 l 1
 226 -110 l 1
 226 -58 l 1
226 92 m 1
 274 92 l 1
 274 40 l 1
 226 40 l 1
 226 92 l 1
226 242 m 1
 274 242 l 1
 274 190 l 1
 226 190 l 1
 226 242 l 1
226 392 m 1
 274 392 l 1
 274 340 l 1
 226 340 l 1
 226 392 l 1
226 542 m 1
 274 542 l 1
 274 490 l 1
 226 490 l 1
 226 542 l 1
226 692 m 1
 274 692 l 1
 274 640 l 1
 226 640 l 1
 226 692 l 1
EndSplineSet
Fore
Validated: 1
Substitution2: "sepP3 subtable" sep.3.B.p3.B
EndChar

StartChar: sep.3.A.p3.A
Encoding: 57681 57681 110
Width: 0
VWidth: 0
Flags: HMW
LayerCount: 4
Back
SplineSet
368 -1040 m 5
 468 -742 l 5
 520 -742 l 5
 620 -1040 l 5
 576 -1040 l 5
 548 -956 l 5
 436 -956 l 5
 408 -1040 l 5
 368 -1040 l 5
540 -924 m 5
 492 -782 l 5
 448 -924 l 5
 540 -924 l 5
206 -770 m 4
 176 -770 152 -784 134 -796 c 5
 132 -796 l 5
 132 -754 l 5
 148 -746 184 -736 210 -736 c 260
 260 -736 298 -758 298 -808 c 4
 298 -842 272 -868 244 -874 c 5
 244 -878 l 5
 280 -884 304 -908 304 -952 c 4
 304 -1010 264 -1046 204 -1046 c 4
 174 -1046 144 -1038 124 -1028 c 5
 124 -986 l 5
 126 -986 l 5
 142 -998 174 -1012 202 -1012 c 4
 242 -1012 264 -988 264 -948 c 260
 264 -908 242 -896 202 -896 c 6
 184 -896 l 5
 184 -862 l 5
 198 -862 l 6
 232 -862 258 -846 258 -812 c 4
 258 -782 236 -770 206 -770 c 4
68 -922 m 4
 68 -960 58 -990 40 -1012 c 4
 22 -1034 0 -1044 -28 -1044 c 4
 -40 -1044 -48 -1042 -56 -1040 c 4
 -64 -1038 -76 -1034 -84 -1028 c 5
 -84 -1122 l 5
 -120 -1122 l 5
 -120 -816 l 5
 -84 -816 l 5
 -84 -840 l 5
 -74 -832 -64 -824 -52 -818 c 4
 -40 -812 -26 -810 -12 -810 c 4
 14 -810 34 -820 48 -840 c 4
 62 -860 68 -888 68 -922 c 4
28 -926 m 4
 28 -900 24 -882 16 -868 c 4
 8 -854 -6 -846 -24 -846 c 4
 -34 -846 -42 -850 -52 -854 c 4
 -62 -858 -76 -864 -84 -872 c 5
 -84 -998 l 5
 -74 -1002 -64 -1006 -56 -1008 c 4
 -48 -1010 -42 -1010 -32 -1010 c 4
 -12 -1010 2 -1004 12 -990 c 4
 22 -976 28 -954 28 -926 c 4
124 -640 m 1
 224 -342 l 1
 276 -342 l 1
 376 -640 l 1
 332 -640 l 1
 304 -556 l 1
 192 -556 l 1
 164 -640 l 1
 124 -640 l 1
296 -524 m 1
 248 -382 l 1
 204 -524 l 1
 296 -524 l 1
294 1008 m 0
 294 1038 272 1050 242 1050 c 0
 220 1050 196 1040 182 1032 c 0
 178 1030 174 1026 170 1024 c 1
 168 1024 l 1
 168 1066 l 1
 186 1074 220 1084 246 1084 c 256
 298 1084 334 1064 334 1012 c 0
 334 976 310 954 280 946 c 1
 280 942 l 1
 294 938 310 934 320 924 c 256
 332 912 340 892 340 868 c 0
 340 838 330 818 314 802 c 0
 298 782 274 774 240 774 c 0
 226 774 210 776 196 780 c 0
 182 784 170 786 160 792 c 1
 160 834 l 1
 162 834 l 1
 178 822 210 808 238 808 c 0
 278 808 300 830 300 872 c 256
 300 912 278 924 238 924 c 2
 220 924 l 1
 220 958 l 1
 234 958 l 2
 252 958 266 962 278 970 c 0
 290 978 294 992 294 1008 c 0
226 -208 m 1
 274 -208 l 1
 274 -260 l 1
 226 -260 l 1
 226 -208 l 1
226 -58 m 1
 274 -58 l 1
 274 -110 l 1
 226 -110 l 1
 226 -58 l 1
226 92 m 1
 274 92 l 1
 274 40 l 1
 226 40 l 1
 226 92 l 1
226 242 m 1
 274 242 l 1
 274 190 l 1
 226 190 l 1
 226 242 l 1
226 392 m 1
 274 392 l 1
 274 340 l 1
 226 340 l 1
 226 392 l 1
226 542 m 1
 274 542 l 1
 274 490 l 1
 226 490 l 1
 226 542 l 1
226 692 m 1
 274 692 l 1
 274 640 l 1
 226 640 l 1
 226 692 l 1
EndSplineSet
Fore
Validated: 1
Substitution2: "sepP4 subtable" sep.3.A.p4.A
EndChar

StartChar: sep.3.A.p3.B
Encoding: 57682 57682 111
Width: 0
VWidth: 0
Flags: HMW
LayerCount: 4
Back
SplineSet
552 -874 m 5
 584 -882 608 -908 608 -948 c 4
 608 -1014 558 -1040 492 -1040 c 6
 404 -1040 l 5
 404 -742 l 5
 484 -742 l 6
 546 -742 592 -752 592 -810 c 4
 592 -842 574 -860 552 -872 c 5
 552 -874 l 5
552 -816 m 4
 552 -778 522 -776 484 -776 c 6
 444 -776 l 5
 444 -864 l 5
 488 -864 l 6
 528 -864 552 -854 552 -816 c 4
568 -950 m 4
 568 -904 536 -896 488 -896 c 6
 444 -896 l 5
 444 -1006 l 5
 476 -1006 l 6
 526 -1006 568 -998 568 -950 c 4
218 -770 m 4
 188 -770 164 -784 146 -796 c 5
 144 -796 l 5
 144 -754 l 5
 160 -746 196 -736 222 -736 c 260
 272 -736 310 -758 310 -808 c 4
 310 -842 284 -868 256 -874 c 5
 256 -878 l 5
 292 -884 316 -908 316 -952 c 4
 316 -1010 276 -1046 216 -1046 c 4
 186 -1046 156 -1038 136 -1028 c 5
 136 -986 l 5
 138 -986 l 5
 154 -998 186 -1012 214 -1012 c 4
 254 -1012 276 -988 276 -948 c 260
 276 -908 254 -896 214 -896 c 6
 196 -896 l 5
 196 -862 l 5
 210 -862 l 6
 244 -862 270 -846 270 -812 c 4
 270 -782 248 -770 218 -770 c 4
80 -922 m 4
 80 -960 70 -990 52 -1012 c 4
 34 -1034 12 -1044 -16 -1044 c 4
 -28 -1044 -36 -1042 -44 -1040 c 4
 -52 -1038 -64 -1034 -72 -1028 c 5
 -72 -1122 l 5
 -108 -1122 l 5
 -108 -816 l 5
 -72 -816 l 5
 -72 -840 l 5
 -62 -832 -52 -824 -40 -818 c 4
 -28 -812 -14 -810 0 -810 c 4
 26 -810 46 -820 60 -840 c 4
 74 -860 80 -888 80 -922 c 4
40 -926 m 4
 40 -900 36 -882 28 -868 c 4
 20 -854 6 -846 -12 -846 c 4
 -22 -846 -30 -850 -40 -854 c 4
 -50 -858 -64 -864 -72 -872 c 5
 -72 -998 l 5
 -62 -1002 -52 -1006 -44 -1008 c 4
 -36 -1010 -30 -1010 -20 -1010 c 4
 0 -1010 14 -1004 24 -990 c 4
 34 -976 40 -954 40 -926 c 4
124 -640 m 1
 224 -342 l 1
 276 -342 l 1
 376 -640 l 1
 332 -640 l 1
 304 -556 l 1
 192 -556 l 1
 164 -640 l 1
 124 -640 l 1
296 -524 m 1
 248 -382 l 1
 204 -524 l 1
 296 -524 l 1
294 1008 m 0
 294 1038 272 1050 242 1050 c 0
 220 1050 196 1040 182 1032 c 0
 178 1030 174 1026 170 1024 c 1
 168 1024 l 1
 168 1066 l 1
 186 1074 220 1084 246 1084 c 256
 298 1084 334 1064 334 1012 c 0
 334 976 310 954 280 946 c 1
 280 942 l 1
 294 938 310 934 320 924 c 256
 332 912 340 892 340 868 c 0
 340 838 330 818 314 802 c 0
 298 782 274 774 240 774 c 0
 226 774 210 776 196 780 c 0
 182 784 170 786 160 792 c 1
 160 834 l 1
 162 834 l 1
 178 822 210 808 238 808 c 0
 278 808 300 830 300 872 c 256
 300 912 278 924 238 924 c 2
 220 924 l 1
 220 958 l 1
 234 958 l 2
 252 958 266 962 278 970 c 0
 290 978 294 992 294 1008 c 0
226 -208 m 1
 274 -208 l 1
 274 -260 l 1
 226 -260 l 1
 226 -208 l 1
226 -58 m 1
 274 -58 l 1
 274 -110 l 1
 226 -110 l 1
 226 -58 l 1
226 92 m 1
 274 92 l 1
 274 40 l 1
 226 40 l 1
 226 92 l 1
226 242 m 1
 274 242 l 1
 274 190 l 1
 226 190 l 1
 226 242 l 1
226 392 m 1
 274 392 l 1
 274 340 l 1
 226 340 l 1
 226 392 l 1
226 542 m 1
 274 542 l 1
 274 490 l 1
 226 490 l 1
 226 542 l 1
226 692 m 1
 274 692 l 1
 274 640 l 1
 226 640 l 1
 226 692 l 1
EndSplineSet
Fore
Validated: 1
Substitution2: "sepP4 subtable" sep.3.A.p4.B
EndChar

StartChar: sep.3.B.p3.B
Encoding: 57687 57687 112
Width: 0
VWidth: 0
Flags: HMW
LayerCount: 4
Back
SplineSet
552 -874 m 5
 584 -882 608 -908 608 -948 c 4
 608 -1014 558 -1040 492 -1040 c 6
 404 -1040 l 5
 404 -742 l 5
 484 -742 l 6
 546 -742 592 -752 592 -810 c 4
 592 -842 574 -860 552 -872 c 5
 552 -874 l 5
552 -816 m 4
 552 -778 522 -776 484 -776 c 6
 444 -776 l 5
 444 -864 l 5
 488 -864 l 6
 528 -864 552 -854 552 -816 c 4
568 -950 m 4
 568 -904 536 -896 488 -896 c 6
 444 -896 l 5
 444 -1006 l 5
 476 -1006 l 6
 526 -1006 568 -998 568 -950 c 4
218 -770 m 4
 188 -770 164 -784 146 -796 c 5
 144 -796 l 5
 144 -754 l 5
 160 -746 196 -736 222 -736 c 260
 272 -736 310 -758 310 -808 c 4
 310 -842 284 -868 256 -874 c 5
 256 -878 l 5
 292 -884 316 -908 316 -952 c 4
 316 -1010 276 -1046 216 -1046 c 4
 186 -1046 156 -1038 136 -1028 c 5
 136 -986 l 5
 138 -986 l 5
 154 -998 186 -1012 214 -1012 c 4
 254 -1012 276 -988 276 -948 c 260
 276 -908 254 -896 214 -896 c 6
 196 -896 l 5
 196 -862 l 5
 210 -862 l 6
 244 -862 270 -846 270 -812 c 4
 270 -782 248 -770 218 -770 c 4
80 -922 m 4
 80 -960 70 -990 52 -1012 c 4
 34 -1034 12 -1044 -16 -1044 c 4
 -28 -1044 -36 -1042 -44 -1040 c 4
 -52 -1038 -64 -1034 -72 -1028 c 5
 -72 -1122 l 5
 -108 -1122 l 5
 -108 -816 l 5
 -72 -816 l 5
 -72 -840 l 5
 -62 -832 -52 -824 -40 -818 c 4
 -28 -812 -14 -810 0 -810 c 4
 26 -810 46 -820 60 -840 c 4
 74 -860 80 -888 80 -922 c 4
40 -926 m 4
 40 -900 36 -882 28 -868 c 4
 20 -854 6 -846 -12 -846 c 4
 -22 -846 -30 -850 -40 -854 c 4
 -50 -858 -64 -864 -72 -872 c 5
 -72 -998 l 5
 -62 -1002 -52 -1006 -44 -1008 c 4
 -36 -1010 -30 -1010 -20 -1010 c 4
 0 -1010 14 -1004 24 -990 c 4
 34 -976 40 -954 40 -926 c 4
352 -548 m 0
 352 -598 320 -622 284 -634 c 0
 272 -638 256 -640 236 -640 c 2
 148 -640 l 1
 148 -342 l 1
 228 -342 l 2
 250 -342 266 -342 276 -344 c 0
 298 -348 320 -356 328 -376 c 0
 332 -386 336 -398 336 -410 c 0
 336 -424 336 -436 328 -448 c 0
 320 -460 310 -466 296 -472 c 1
 296 -474 l 1
 314 -478 326 -488 336 -500 c 0
 346 -512 352 -528 352 -548 c 0
232 -464 m 2
 272 -464 296 -454 296 -416 c 0
 296 -394 282 -378 260 -378 c 0
 252 -378 242 -376 228 -376 c 2
 188 -376 l 1
 188 -464 l 1
 232 -464 l 2
312 -550 m 0
 312 -526 300 -514 284 -504 c 0
 278 -500 272 -498 264 -498 c 0
 256 -498 246 -496 232 -496 c 2
 188 -496 l 1
 188 -606 l 1
 220 -606 l 2
 252 -606 270 -606 288 -594 c 0
 302 -584 312 -570 312 -550 c 0
294 1008 m 0
 294 1038 272 1050 242 1050 c 0
 220 1050 196 1040 182 1032 c 0
 178 1030 174 1026 170 1024 c 1
 168 1024 l 1
 168 1066 l 1
 186 1074 220 1084 246 1084 c 256
 298 1084 334 1064 334 1012 c 0
 334 976 310 954 280 946 c 1
 280 942 l 1
 294 938 310 934 320 924 c 256
 332 912 340 892 340 868 c 0
 340 838 330 818 314 802 c 0
 298 782 274 774 240 774 c 0
 226 774 210 776 196 780 c 0
 182 784 170 786 160 792 c 1
 160 834 l 1
 162 834 l 1
 178 822 210 808 238 808 c 0
 278 808 300 830 300 872 c 256
 300 912 278 924 238 924 c 2
 220 924 l 1
 220 958 l 1
 234 958 l 2
 252 958 266 962 278 970 c 0
 290 978 294 992 294 1008 c 0
226 -208 m 1
 274 -208 l 1
 274 -260 l 1
 226 -260 l 1
 226 -208 l 1
226 -58 m 1
 274 -58 l 1
 274 -110 l 1
 226 -110 l 1
 226 -58 l 1
226 92 m 1
 274 92 l 1
 274 40 l 1
 226 40 l 1
 226 92 l 1
226 242 m 1
 274 242 l 1
 274 190 l 1
 226 190 l 1
 226 242 l 1
226 392 m 1
 274 392 l 1
 274 340 l 1
 226 340 l 1
 226 392 l 1
226 542 m 1
 274 542 l 1
 274 490 l 1
 226 490 l 1
 226 542 l 1
226 692 m 1
 274 692 l 1
 274 640 l 1
 226 640 l 1
 226 692 l 1
EndSplineSet
Fore
Validated: 1
Substitution2: "sepP4 subtable" sep.3.B.p4.B
EndChar

StartChar: sep.4.A.p1.A
Encoding: 57689 57689 113
Width: 0
VWidth: 0
Flags: HMW
LayerCount: 4
Back
SplineSet
348 -1040 m 5
 448 -742 l 5
 500 -742 l 5
 600 -1040 l 5
 556 -1040 l 5
 528 -956 l 5
 416 -956 l 5
 388 -1040 l 5
 348 -1040 l 5
520 -924 m 5
 472 -782 l 5
 428 -924 l 5
 520 -924 l 5
306 -1040 m 5
 162 -1040 l 5
 162 -1010 l 5
 216 -1010 l 5
 216 -810 l 5
 162 -810 l 5
 162 -782 l 5
 200 -782 220 -776 222 -742 c 5
 254 -742 l 5
 254 -1010 l 5
 306 -1010 l 5
 306 -1040 l 5
88 -922 m 4
 88 -960 78 -990 60 -1012 c 4
 42 -1034 20 -1044 -8 -1044 c 4
 -20 -1044 -28 -1042 -36 -1040 c 4
 -44 -1038 -56 -1034 -64 -1028 c 5
 -64 -1122 l 5
 -100 -1122 l 5
 -100 -816 l 5
 -64 -816 l 5
 -64 -840 l 5
 -54 -832 -44 -824 -32 -818 c 4
 -20 -812 -6 -810 8 -810 c 4
 34 -810 54 -820 68 -840 c 4
 82 -860 88 -888 88 -922 c 4
48 -926 m 4
 48 -900 44 -882 36 -868 c 4
 28 -854 14 -846 -4 -846 c 4
 -14 -846 -22 -850 -32 -854 c 4
 -42 -858 -56 -864 -64 -872 c 5
 -64 -998 l 5
 -54 -1002 -44 -1006 -36 -1008 c 4
 -28 -1010 -22 -1010 -12 -1010 c 4
 8 -1010 22 -1004 32 -990 c 4
 42 -976 48 -954 48 -926 c 4
124 -640 m 1
 224 -342 l 1
 276 -342 l 1
 376 -640 l 1
 332 -640 l 1
 304 -556 l 1
 192 -556 l 1
 164 -640 l 1
 124 -640 l 1
296 -524 m 1
 248 -382 l 1
 204 -524 l 1
 296 -524 l 1
332 882 m 1
 296 882 l 1
 296 780 l 1
 260 780 l 1
 260 882 l 1
 128 882 l 1
 128 924 l 1
 260 1078 l 1
 296 1078 l 1
 296 914 l 1
 332 914 l 1
 332 882 l 1
260 914 m 1
 260 1030 l 1
 160 914 l 1
 260 914 l 1
226 -208 m 1
 274 -208 l 1
 274 -260 l 1
 226 -260 l 1
 226 -208 l 1
226 -58 m 1
 274 -58 l 1
 274 -110 l 1
 226 -110 l 1
 226 -58 l 1
226 92 m 1
 274 92 l 1
 274 40 l 1
 226 40 l 1
 226 92 l 1
226 242 m 1
 274 242 l 1
 274 190 l 1
 226 190 l 1
 226 242 l 1
226 392 m 1
 274 392 l 1
 274 340 l 1
 226 340 l 1
 226 392 l 1
226 542 m 1
 274 542 l 1
 274 490 l 1
 226 490 l 1
 226 542 l 1
226 692 m 1
 274 692 l 1
 274 640 l 1
 226 640 l 1
 226 692 l 1
EndSplineSet
Fore
Validated: 1
Substitution2: "sepP2 subtable" sep.4.A.p2.A
EndChar

StartChar: sep.4.A.p1.B
Encoding: 57690 57690 114
Width: 0
VWidth: 0
Flags: HMW
LayerCount: 4
Back
SplineSet
542 -874 m 5
 574 -882 598 -908 598 -948 c 4
 598 -1014 548 -1040 482 -1040 c 6
 394 -1040 l 5
 394 -742 l 5
 474 -742 l 6
 536 -742 582 -752 582 -810 c 4
 582 -842 564 -860 542 -872 c 5
 542 -874 l 5
542 -816 m 4
 542 -778 512 -776 474 -776 c 6
 434 -776 l 5
 434 -864 l 5
 478 -864 l 6
 518 -864 542 -854 542 -816 c 4
558 -950 m 4
 558 -904 526 -896 478 -896 c 6
 434 -896 l 5
 434 -1006 l 5
 466 -1006 l 6
 516 -1006 558 -998 558 -950 c 4
308 -1040 m 5
 164 -1040 l 5
 164 -1010 l 5
 218 -1010 l 5
 218 -810 l 5
 164 -810 l 5
 164 -782 l 5
 202 -782 222 -776 224 -742 c 5
 256 -742 l 5
 256 -1010 l 5
 308 -1010 l 5
 308 -1040 l 5
90 -922 m 4
 90 -960 80 -990 62 -1012 c 4
 44 -1034 22 -1044 -6 -1044 c 4
 -18 -1044 -26 -1042 -34 -1040 c 4
 -42 -1038 -54 -1034 -62 -1028 c 5
 -62 -1122 l 5
 -98 -1122 l 5
 -98 -816 l 5
 -62 -816 l 5
 -62 -840 l 5
 -52 -832 -42 -824 -30 -818 c 4
 -18 -812 -4 -810 10 -810 c 4
 36 -810 56 -820 70 -840 c 4
 84 -860 90 -888 90 -922 c 4
50 -926 m 4
 50 -900 46 -882 38 -868 c 4
 30 -854 16 -846 -2 -846 c 4
 -12 -846 -20 -850 -30 -854 c 4
 -40 -858 -54 -864 -62 -872 c 5
 -62 -998 l 5
 -52 -1002 -42 -1006 -34 -1008 c 4
 -26 -1010 -20 -1010 -10 -1010 c 4
 10 -1010 24 -1004 34 -990 c 4
 44 -976 50 -954 50 -926 c 4
124 -640 m 1
 224 -342 l 1
 276 -342 l 1
 376 -640 l 1
 332 -640 l 1
 304 -556 l 1
 192 -556 l 1
 164 -640 l 1
 124 -640 l 1
296 -524 m 1
 248 -382 l 1
 204 -524 l 1
 296 -524 l 1
332 882 m 1
 296 882 l 1
 296 780 l 1
 260 780 l 1
 260 882 l 1
 128 882 l 1
 128 924 l 1
 260 1078 l 1
 296 1078 l 1
 296 914 l 1
 332 914 l 1
 332 882 l 1
260 914 m 1
 260 1030 l 1
 160 914 l 1
 260 914 l 1
226 -208 m 1
 274 -208 l 1
 274 -260 l 1
 226 -260 l 1
 226 -208 l 1
226 -58 m 1
 274 -58 l 1
 274 -110 l 1
 226 -110 l 1
 226 -58 l 1
226 92 m 1
 274 92 l 1
 274 40 l 1
 226 40 l 1
 226 92 l 1
226 242 m 1
 274 242 l 1
 274 190 l 1
 226 190 l 1
 226 242 l 1
226 392 m 1
 274 392 l 1
 274 340 l 1
 226 340 l 1
 226 392 l 1
226 542 m 1
 274 542 l 1
 274 490 l 1
 226 490 l 1
 226 542 l 1
226 692 m 1
 274 692 l 1
 274 640 l 1
 226 640 l 1
 226 692 l 1
EndSplineSet
Fore
Validated: 1
Substitution2: "sepP2 subtable" sep.4.A.p2.B
EndChar

StartChar: sep.4.B.p1.B
Encoding: 57697 57697 115
Width: 0
VWidth: 0
Flags: HMW
LayerCount: 4
Back
SplineSet
542 -874 m 5
 574 -882 598 -908 598 -948 c 4
 598 -1014 548 -1040 482 -1040 c 6
 394 -1040 l 5
 394 -742 l 5
 474 -742 l 6
 536 -742 582 -752 582 -810 c 4
 582 -842 564 -860 542 -872 c 5
 542 -874 l 5
542 -816 m 4
 542 -778 512 -776 474 -776 c 6
 434 -776 l 5
 434 -864 l 5
 478 -864 l 6
 518 -864 542 -854 542 -816 c 4
558 -950 m 4
 558 -904 526 -896 478 -896 c 6
 434 -896 l 5
 434 -1006 l 5
 466 -1006 l 6
 516 -1006 558 -998 558 -950 c 4
308 -1040 m 5
 164 -1040 l 5
 164 -1010 l 5
 218 -1010 l 5
 218 -810 l 5
 164 -810 l 5
 164 -782 l 5
 202 -782 222 -776 224 -742 c 5
 256 -742 l 5
 256 -1010 l 5
 308 -1010 l 5
 308 -1040 l 5
90 -922 m 4
 90 -960 80 -990 62 -1012 c 4
 44 -1034 22 -1044 -6 -1044 c 4
 -18 -1044 -26 -1042 -34 -1040 c 4
 -42 -1038 -54 -1034 -62 -1028 c 5
 -62 -1122 l 5
 -98 -1122 l 5
 -98 -816 l 5
 -62 -816 l 5
 -62 -840 l 5
 -52 -832 -42 -824 -30 -818 c 4
 -18 -812 -4 -810 10 -810 c 4
 36 -810 56 -820 70 -840 c 4
 84 -860 90 -888 90 -922 c 4
50 -926 m 4
 50 -900 46 -882 38 -868 c 4
 30 -854 16 -846 -2 -846 c 4
 -12 -846 -20 -850 -30 -854 c 4
 -40 -858 -54 -864 -62 -872 c 5
 -62 -998 l 5
 -52 -1002 -42 -1006 -34 -1008 c 4
 -26 -1010 -20 -1010 -10 -1010 c 4
 10 -1010 24 -1004 34 -990 c 4
 44 -976 50 -954 50 -926 c 4
352 -548 m 0
 352 -598 320 -622 284 -634 c 0
 272 -638 256 -640 236 -640 c 2
 148 -640 l 1
 148 -342 l 1
 228 -342 l 2
 250 -342 266 -342 276 -344 c 0
 298 -348 320 -356 328 -376 c 0
 332 -386 336 -398 336 -410 c 0
 336 -424 336 -436 328 -448 c 0
 320 -460 310 -466 296 -472 c 1
 296 -474 l 1
 314 -478 326 -488 336 -500 c 0
 346 -512 352 -528 352 -548 c 0
232 -464 m 2
 272 -464 296 -454 296 -416 c 0
 296 -394 282 -378 260 -378 c 0
 252 -378 242 -376 228 -376 c 2
 188 -376 l 1
 188 -464 l 1
 232 -464 l 2
312 -550 m 0
 312 -526 300 -514 284 -504 c 0
 278 -500 272 -498 264 -498 c 0
 256 -498 246 -496 232 -496 c 2
 188 -496 l 1
 188 -606 l 1
 220 -606 l 2
 252 -606 270 -606 288 -594 c 0
 302 -584 312 -570 312 -550 c 0
332 882 m 1
 296 882 l 1
 296 780 l 1
 260 780 l 1
 260 882 l 1
 128 882 l 1
 128 924 l 1
 260 1078 l 1
 296 1078 l 1
 296 914 l 1
 332 914 l 1
 332 882 l 1
260 914 m 1
 260 1030 l 1
 160 914 l 1
 260 914 l 1
226 -208 m 1
 274 -208 l 1
 274 -260 l 1
 226 -260 l 1
 226 -208 l 1
226 -58 m 1
 274 -58 l 1
 274 -110 l 1
 226 -110 l 1
 226 -58 l 1
226 92 m 1
 274 92 l 1
 274 40 l 1
 226 40 l 1
 226 92 l 1
226 242 m 1
 274 242 l 1
 274 190 l 1
 226 190 l 1
 226 242 l 1
226 392 m 1
 274 392 l 1
 274 340 l 1
 226 340 l 1
 226 392 l 1
226 542 m 1
 274 542 l 1
 274 490 l 1
 226 490 l 1
 226 542 l 1
226 692 m 1
 274 692 l 1
 274 640 l 1
 226 640 l 1
 226 692 l 1
EndSplineSet
Fore
Validated: 1
Substitution2: "sepP2 subtable" sep.4.B.p2.B
EndChar

StartChar: sep.4.A.p2.A
Encoding: 57691 57691 116
Width: 0
VWidth: 0
Flags: HMW
LayerCount: 4
Back
SplineSet
368 -1040 m 5
 468 -742 l 5
 520 -742 l 5
 620 -1040 l 5
 576 -1040 l 5
 548 -956 l 5
 436 -956 l 5
 408 -1040 l 5
 368 -1040 l 5
540 -924 m 5
 492 -782 l 5
 448 -924 l 5
 540 -924 l 5
306 -1040 m 5
 122 -1040 l 5
 122 -998 l 5
 148 -974 170 -952 194 -926 c 4
 226 -890 252 -864 252 -820 c 4
 252 -788 234 -770 202 -770 c 4
 172 -770 148 -784 130 -796 c 5
 128 -796 l 5
 128 -754 l 5
 144 -746 180 -736 204 -736 c 4
 258 -736 294 -766 294 -818 c 4
 294 -870 264 -900 238 -928 c 4
 218 -950 180 -986 160 -1006 c 5
 306 -1006 l 5
 306 -1040 l 5
68 -922 m 4
 68 -960 58 -990 40 -1012 c 4
 22 -1034 0 -1044 -28 -1044 c 4
 -40 -1044 -48 -1042 -56 -1040 c 4
 -64 -1038 -76 -1034 -84 -1028 c 5
 -84 -1122 l 5
 -120 -1122 l 5
 -120 -816 l 5
 -84 -816 l 5
 -84 -840 l 5
 -74 -832 -64 -824 -52 -818 c 4
 -40 -812 -26 -810 -12 -810 c 4
 14 -810 34 -820 48 -840 c 4
 62 -860 68 -888 68 -922 c 4
28 -926 m 4
 28 -900 24 -882 16 -868 c 4
 8 -854 -6 -846 -24 -846 c 4
 -34 -846 -42 -850 -52 -854 c 4
 -62 -858 -76 -864 -84 -872 c 5
 -84 -998 l 5
 -74 -1002 -64 -1006 -56 -1008 c 4
 -48 -1010 -42 -1010 -32 -1010 c 4
 -12 -1010 2 -1004 12 -990 c 4
 22 -976 28 -954 28 -926 c 4
124 -640 m 1
 224 -342 l 1
 276 -342 l 1
 376 -640 l 1
 332 -640 l 1
 304 -556 l 1
 192 -556 l 1
 164 -640 l 1
 124 -640 l 1
296 -524 m 1
 248 -382 l 1
 204 -524 l 1
 296 -524 l 1
332 882 m 1
 296 882 l 1
 296 780 l 1
 260 780 l 1
 260 882 l 1
 128 882 l 1
 128 924 l 1
 260 1078 l 1
 296 1078 l 1
 296 914 l 1
 332 914 l 1
 332 882 l 1
260 914 m 1
 260 1030 l 1
 160 914 l 1
 260 914 l 1
226 -208 m 1
 274 -208 l 1
 274 -260 l 1
 226 -260 l 1
 226 -208 l 1
226 -58 m 1
 274 -58 l 1
 274 -110 l 1
 226 -110 l 1
 226 -58 l 1
226 92 m 1
 274 92 l 1
 274 40 l 1
 226 40 l 1
 226 92 l 1
226 242 m 1
 274 242 l 1
 274 190 l 1
 226 190 l 1
 226 242 l 1
226 392 m 1
 274 392 l 1
 274 340 l 1
 226 340 l 1
 226 392 l 1
226 542 m 1
 274 542 l 1
 274 490 l 1
 226 490 l 1
 226 542 l 1
226 692 m 1
 274 692 l 1
 274 640 l 1
 226 640 l 1
 226 692 l 1
EndSplineSet
Fore
Validated: 1
Substitution2: "sepP3 subtable" sep.4.A.p3.A
EndChar

StartChar: sep.4.A.p2.B
Encoding: 57692 57692 117
Width: 0
VWidth: 0
Flags: HMW
LayerCount: 4
Back
SplineSet
552 -874 m 5
 584 -882 608 -908 608 -948 c 4
 608 -1014 558 -1040 492 -1040 c 6
 404 -1040 l 5
 404 -742 l 5
 484 -742 l 6
 546 -742 592 -752 592 -810 c 4
 592 -842 574 -860 552 -872 c 5
 552 -874 l 5
552 -816 m 4
 552 -778 522 -776 484 -776 c 6
 444 -776 l 5
 444 -864 l 5
 488 -864 l 6
 528 -864 552 -854 552 -816 c 4
568 -950 m 4
 568 -904 536 -896 488 -896 c 6
 444 -896 l 5
 444 -1006 l 5
 476 -1006 l 6
 526 -1006 568 -998 568 -950 c 4
318 -1040 m 5
 134 -1040 l 5
 134 -998 l 5
 160 -974 182 -952 206 -926 c 4
 238 -890 264 -864 264 -820 c 4
 264 -788 246 -770 214 -770 c 4
 184 -770 160 -784 142 -796 c 5
 140 -796 l 5
 140 -754 l 5
 156 -746 192 -736 216 -736 c 4
 270 -736 306 -766 306 -818 c 4
 306 -870 276 -900 250 -928 c 4
 230 -950 192 -986 172 -1006 c 5
 318 -1006 l 5
 318 -1040 l 5
80 -922 m 4
 80 -960 70 -990 52 -1012 c 4
 34 -1034 12 -1044 -16 -1044 c 4
 -28 -1044 -36 -1042 -44 -1040 c 4
 -52 -1038 -64 -1034 -72 -1028 c 5
 -72 -1122 l 5
 -108 -1122 l 5
 -108 -816 l 5
 -72 -816 l 5
 -72 -840 l 5
 -62 -832 -52 -824 -40 -818 c 4
 -28 -812 -14 -810 0 -810 c 4
 26 -810 46 -820 60 -840 c 4
 74 -860 80 -888 80 -922 c 4
40 -926 m 4
 40 -900 36 -882 28 -868 c 4
 20 -854 6 -846 -12 -846 c 4
 -22 -846 -30 -850 -40 -854 c 4
 -50 -858 -64 -864 -72 -872 c 5
 -72 -998 l 5
 -62 -1002 -52 -1006 -44 -1008 c 4
 -36 -1010 -30 -1010 -20 -1010 c 4
 0 -1010 14 -1004 24 -990 c 4
 34 -976 40 -954 40 -926 c 4
124 -640 m 1
 224 -342 l 1
 276 -342 l 1
 376 -640 l 1
 332 -640 l 1
 304 -556 l 1
 192 -556 l 1
 164 -640 l 1
 124 -640 l 1
296 -524 m 1
 248 -382 l 1
 204 -524 l 1
 296 -524 l 1
332 882 m 1
 296 882 l 1
 296 780 l 1
 260 780 l 1
 260 882 l 1
 128 882 l 1
 128 924 l 1
 260 1078 l 1
 296 1078 l 1
 296 914 l 1
 332 914 l 1
 332 882 l 1
260 914 m 1
 260 1030 l 1
 160 914 l 1
 260 914 l 1
226 -208 m 1
 274 -208 l 1
 274 -260 l 1
 226 -260 l 1
 226 -208 l 1
226 -58 m 1
 274 -58 l 1
 274 -110 l 1
 226 -110 l 1
 226 -58 l 1
226 92 m 1
 274 92 l 1
 274 40 l 1
 226 40 l 1
 226 92 l 1
226 242 m 1
 274 242 l 1
 274 190 l 1
 226 190 l 1
 226 242 l 1
226 392 m 1
 274 392 l 1
 274 340 l 1
 226 340 l 1
 226 392 l 1
226 542 m 1
 274 542 l 1
 274 490 l 1
 226 490 l 1
 226 542 l 1
226 692 m 1
 274 692 l 1
 274 640 l 1
 226 640 l 1
 226 692 l 1
EndSplineSet
Fore
Validated: 1
Substitution2: "sepP3 subtable" sep.4.A.p3.B
EndChar

StartChar: sep.4.B.p2.B
Encoding: 57698 57698 118
Width: 0
VWidth: 0
Flags: HMW
LayerCount: 4
Back
SplineSet
552 -874 m 5
 584 -882 608 -908 608 -948 c 4
 608 -1014 558 -1040 492 -1040 c 6
 404 -1040 l 5
 404 -742 l 5
 484 -742 l 6
 546 -742 592 -752 592 -810 c 4
 592 -842 574 -860 552 -872 c 5
 552 -874 l 5
552 -816 m 4
 552 -778 522 -776 484 -776 c 6
 444 -776 l 5
 444 -864 l 5
 488 -864 l 6
 528 -864 552 -854 552 -816 c 4
568 -950 m 4
 568 -904 536 -896 488 -896 c 6
 444 -896 l 5
 444 -1006 l 5
 476 -1006 l 6
 526 -1006 568 -998 568 -950 c 4
318 -1040 m 5
 134 -1040 l 5
 134 -998 l 5
 160 -974 182 -952 206 -926 c 4
 238 -890 264 -864 264 -820 c 4
 264 -788 246 -770 214 -770 c 4
 184 -770 160 -784 142 -796 c 5
 140 -796 l 5
 140 -754 l 5
 156 -746 192 -736 216 -736 c 4
 270 -736 306 -766 306 -818 c 4
 306 -870 276 -900 250 -928 c 4
 230 -950 192 -986 172 -1006 c 5
 318 -1006 l 5
 318 -1040 l 5
80 -922 m 4
 80 -960 70 -990 52 -1012 c 4
 34 -1034 12 -1044 -16 -1044 c 4
 -28 -1044 -36 -1042 -44 -1040 c 4
 -52 -1038 -64 -1034 -72 -1028 c 5
 -72 -1122 l 5
 -108 -1122 l 5
 -108 -816 l 5
 -72 -816 l 5
 -72 -840 l 5
 -62 -832 -52 -824 -40 -818 c 4
 -28 -812 -14 -810 0 -810 c 4
 26 -810 46 -820 60 -840 c 4
 74 -860 80 -888 80 -922 c 4
40 -926 m 4
 40 -900 36 -882 28 -868 c 4
 20 -854 6 -846 -12 -846 c 4
 -22 -846 -30 -850 -40 -854 c 4
 -50 -858 -64 -864 -72 -872 c 5
 -72 -998 l 5
 -62 -1002 -52 -1006 -44 -1008 c 4
 -36 -1010 -30 -1010 -20 -1010 c 4
 0 -1010 14 -1004 24 -990 c 4
 34 -976 40 -954 40 -926 c 4
352 -548 m 0
 352 -598 320 -622 284 -634 c 0
 272 -638 256 -640 236 -640 c 2
 148 -640 l 1
 148 -342 l 1
 228 -342 l 2
 250 -342 266 -342 276 -344 c 0
 298 -348 320 -356 328 -376 c 0
 332 -386 336 -398 336 -410 c 0
 336 -424 336 -436 328 -448 c 0
 320 -460 310 -466 296 -472 c 1
 296 -474 l 1
 314 -478 326 -488 336 -500 c 0
 346 -512 352 -528 352 -548 c 0
232 -464 m 2
 272 -464 296 -454 296 -416 c 0
 296 -394 282 -378 260 -378 c 0
 252 -378 242 -376 228 -376 c 2
 188 -376 l 1
 188 -464 l 1
 232 -464 l 2
312 -550 m 0
 312 -526 300 -514 284 -504 c 0
 278 -500 272 -498 264 -498 c 0
 256 -498 246 -496 232 -496 c 2
 188 -496 l 1
 188 -606 l 1
 220 -606 l 2
 252 -606 270 -606 288 -594 c 0
 302 -584 312 -570 312 -550 c 0
332 882 m 1
 296 882 l 1
 296 780 l 1
 260 780 l 1
 260 882 l 1
 128 882 l 1
 128 924 l 1
 260 1078 l 1
 296 1078 l 1
 296 914 l 1
 332 914 l 1
 332 882 l 1
260 914 m 1
 260 1030 l 1
 160 914 l 1
 260 914 l 1
226 -208 m 1
 274 -208 l 1
 274 -260 l 1
 226 -260 l 1
 226 -208 l 1
226 -58 m 1
 274 -58 l 1
 274 -110 l 1
 226 -110 l 1
 226 -58 l 1
226 92 m 1
 274 92 l 1
 274 40 l 1
 226 40 l 1
 226 92 l 1
226 242 m 1
 274 242 l 1
 274 190 l 1
 226 190 l 1
 226 242 l 1
226 392 m 1
 274 392 l 1
 274 340 l 1
 226 340 l 1
 226 392 l 1
226 542 m 1
 274 542 l 1
 274 490 l 1
 226 490 l 1
 226 542 l 1
226 692 m 1
 274 692 l 1
 274 640 l 1
 226 640 l 1
 226 692 l 1
EndSplineSet
Fore
Validated: 1
Substitution2: "sepP3 subtable" sep.4.B.p3.B
EndChar

StartChar: sep.4.A.p3.A
Encoding: 57693 57693 119
Width: 0
VWidth: 0
Flags: HMW
LayerCount: 4
Back
SplineSet
368 -1040 m 5
 468 -742 l 5
 520 -742 l 5
 620 -1040 l 5
 576 -1040 l 5
 548 -956 l 5
 436 -956 l 5
 408 -1040 l 5
 368 -1040 l 5
540 -924 m 5
 492 -782 l 5
 448 -924 l 5
 540 -924 l 5
206 -770 m 4
 176 -770 152 -784 134 -796 c 5
 132 -796 l 5
 132 -754 l 5
 148 -746 184 -736 210 -736 c 260
 260 -736 298 -758 298 -808 c 4
 298 -842 272 -868 244 -874 c 5
 244 -878 l 5
 280 -884 304 -908 304 -952 c 4
 304 -1010 264 -1046 204 -1046 c 4
 174 -1046 144 -1038 124 -1028 c 5
 124 -986 l 5
 126 -986 l 5
 142 -998 174 -1012 202 -1012 c 4
 242 -1012 264 -988 264 -948 c 260
 264 -908 242 -896 202 -896 c 6
 184 -896 l 5
 184 -862 l 5
 198 -862 l 6
 232 -862 258 -846 258 -812 c 4
 258 -782 236 -770 206 -770 c 4
68 -922 m 4
 68 -960 58 -990 40 -1012 c 4
 22 -1034 0 -1044 -28 -1044 c 4
 -40 -1044 -48 -1042 -56 -1040 c 4
 -64 -1038 -76 -1034 -84 -1028 c 5
 -84 -1122 l 5
 -120 -1122 l 5
 -120 -816 l 5
 -84 -816 l 5
 -84 -840 l 5
 -74 -832 -64 -824 -52 -818 c 4
 -40 -812 -26 -810 -12 -810 c 4
 14 -810 34 -820 48 -840 c 4
 62 -860 68 -888 68 -922 c 4
28 -926 m 4
 28 -900 24 -882 16 -868 c 4
 8 -854 -6 -846 -24 -846 c 4
 -34 -846 -42 -850 -52 -854 c 4
 -62 -858 -76 -864 -84 -872 c 5
 -84 -998 l 5
 -74 -1002 -64 -1006 -56 -1008 c 4
 -48 -1010 -42 -1010 -32 -1010 c 4
 -12 -1010 2 -1004 12 -990 c 4
 22 -976 28 -954 28 -926 c 4
124 -640 m 1
 224 -342 l 1
 276 -342 l 1
 376 -640 l 1
 332 -640 l 1
 304 -556 l 1
 192 -556 l 1
 164 -640 l 1
 124 -640 l 1
296 -524 m 1
 248 -382 l 1
 204 -524 l 1
 296 -524 l 1
332 882 m 1
 296 882 l 1
 296 780 l 1
 260 780 l 1
 260 882 l 1
 128 882 l 1
 128 924 l 1
 260 1078 l 1
 296 1078 l 1
 296 914 l 1
 332 914 l 1
 332 882 l 1
260 914 m 1
 260 1030 l 1
 160 914 l 1
 260 914 l 1
226 -208 m 1
 274 -208 l 1
 274 -260 l 1
 226 -260 l 1
 226 -208 l 1
226 -58 m 1
 274 -58 l 1
 274 -110 l 1
 226 -110 l 1
 226 -58 l 1
226 92 m 1
 274 92 l 1
 274 40 l 1
 226 40 l 1
 226 92 l 1
226 242 m 1
 274 242 l 1
 274 190 l 1
 226 190 l 1
 226 242 l 1
226 392 m 1
 274 392 l 1
 274 340 l 1
 226 340 l 1
 226 392 l 1
226 542 m 1
 274 542 l 1
 274 490 l 1
 226 490 l 1
 226 542 l 1
226 692 m 1
 274 692 l 1
 274 640 l 1
 226 640 l 1
 226 692 l 1
EndSplineSet
Fore
Validated: 1
Substitution2: "sepP4 subtable" sep.4.A.p4.A
EndChar

StartChar: sep.4.A.p3.B
Encoding: 57694 57694 120
Width: 0
VWidth: 0
Flags: HMW
LayerCount: 4
Back
SplineSet
552 -874 m 5
 584 -882 608 -908 608 -948 c 4
 608 -1014 558 -1040 492 -1040 c 6
 404 -1040 l 5
 404 -742 l 5
 484 -742 l 6
 546 -742 592 -752 592 -810 c 4
 592 -842 574 -860 552 -872 c 5
 552 -874 l 5
552 -816 m 4
 552 -778 522 -776 484 -776 c 6
 444 -776 l 5
 444 -864 l 5
 488 -864 l 6
 528 -864 552 -854 552 -816 c 4
568 -950 m 4
 568 -904 536 -896 488 -896 c 6
 444 -896 l 5
 444 -1006 l 5
 476 -1006 l 6
 526 -1006 568 -998 568 -950 c 4
218 -770 m 4
 188 -770 164 -784 146 -796 c 5
 144 -796 l 5
 144 -754 l 5
 160 -746 196 -736 222 -736 c 260
 272 -736 310 -758 310 -808 c 4
 310 -842 284 -868 256 -874 c 5
 256 -878 l 5
 292 -884 316 -908 316 -952 c 4
 316 -1010 276 -1046 216 -1046 c 4
 186 -1046 156 -1038 136 -1028 c 5
 136 -986 l 5
 138 -986 l 5
 154 -998 186 -1012 214 -1012 c 4
 254 -1012 276 -988 276 -948 c 260
 276 -908 254 -896 214 -896 c 6
 196 -896 l 5
 196 -862 l 5
 210 -862 l 6
 244 -862 270 -846 270 -812 c 4
 270 -782 248 -770 218 -770 c 4
80 -922 m 4
 80 -960 70 -990 52 -1012 c 4
 34 -1034 12 -1044 -16 -1044 c 4
 -28 -1044 -36 -1042 -44 -1040 c 4
 -52 -1038 -64 -1034 -72 -1028 c 5
 -72 -1122 l 5
 -108 -1122 l 5
 -108 -816 l 5
 -72 -816 l 5
 -72 -840 l 5
 -62 -832 -52 -824 -40 -818 c 4
 -28 -812 -14 -810 0 -810 c 4
 26 -810 46 -820 60 -840 c 4
 74 -860 80 -888 80 -922 c 4
40 -926 m 4
 40 -900 36 -882 28 -868 c 4
 20 -854 6 -846 -12 -846 c 4
 -22 -846 -30 -850 -40 -854 c 4
 -50 -858 -64 -864 -72 -872 c 5
 -72 -998 l 5
 -62 -1002 -52 -1006 -44 -1008 c 4
 -36 -1010 -30 -1010 -20 -1010 c 4
 0 -1010 14 -1004 24 -990 c 4
 34 -976 40 -954 40 -926 c 4
124 -640 m 1
 224 -342 l 1
 276 -342 l 1
 376 -640 l 1
 332 -640 l 1
 304 -556 l 1
 192 -556 l 1
 164 -640 l 1
 124 -640 l 1
296 -524 m 1
 248 -382 l 1
 204 -524 l 1
 296 -524 l 1
332 882 m 1
 296 882 l 1
 296 780 l 1
 260 780 l 1
 260 882 l 1
 128 882 l 1
 128 924 l 1
 260 1078 l 1
 296 1078 l 1
 296 914 l 1
 332 914 l 1
 332 882 l 1
260 914 m 1
 260 1030 l 1
 160 914 l 1
 260 914 l 1
226 -208 m 1
 274 -208 l 1
 274 -260 l 1
 226 -260 l 1
 226 -208 l 1
226 -58 m 1
 274 -58 l 1
 274 -110 l 1
 226 -110 l 1
 226 -58 l 1
226 92 m 1
 274 92 l 1
 274 40 l 1
 226 40 l 1
 226 92 l 1
226 242 m 1
 274 242 l 1
 274 190 l 1
 226 190 l 1
 226 242 l 1
226 392 m 1
 274 392 l 1
 274 340 l 1
 226 340 l 1
 226 392 l 1
226 542 m 1
 274 542 l 1
 274 490 l 1
 226 490 l 1
 226 542 l 1
226 692 m 1
 274 692 l 1
 274 640 l 1
 226 640 l 1
 226 692 l 1
EndSplineSet
Fore
Validated: 1
Substitution2: "sepP4 subtable" sep.4.A.p4.B
EndChar

StartChar: sep.4.B.p3.B
Encoding: 57699 57699 121
Width: 0
VWidth: 0
Flags: HMW
LayerCount: 4
Back
SplineSet
552 -874 m 5
 584 -882 608 -908 608 -948 c 4
 608 -1014 558 -1040 492 -1040 c 6
 404 -1040 l 5
 404 -742 l 5
 484 -742 l 6
 546 -742 592 -752 592 -810 c 4
 592 -842 574 -860 552 -872 c 5
 552 -874 l 5
552 -816 m 4
 552 -778 522 -776 484 -776 c 6
 444 -776 l 5
 444 -864 l 5
 488 -864 l 6
 528 -864 552 -854 552 -816 c 4
568 -950 m 4
 568 -904 536 -896 488 -896 c 6
 444 -896 l 5
 444 -1006 l 5
 476 -1006 l 6
 526 -1006 568 -998 568 -950 c 4
218 -770 m 4
 188 -770 164 -784 146 -796 c 5
 144 -796 l 5
 144 -754 l 5
 160 -746 196 -736 222 -736 c 260
 272 -736 310 -758 310 -808 c 4
 310 -842 284 -868 256 -874 c 5
 256 -878 l 5
 292 -884 316 -908 316 -952 c 4
 316 -1010 276 -1046 216 -1046 c 4
 186 -1046 156 -1038 136 -1028 c 5
 136 -986 l 5
 138 -986 l 5
 154 -998 186 -1012 214 -1012 c 4
 254 -1012 276 -988 276 -948 c 260
 276 -908 254 -896 214 -896 c 6
 196 -896 l 5
 196 -862 l 5
 210 -862 l 6
 244 -862 270 -846 270 -812 c 4
 270 -782 248 -770 218 -770 c 4
80 -922 m 4
 80 -960 70 -990 52 -1012 c 4
 34 -1034 12 -1044 -16 -1044 c 4
 -28 -1044 -36 -1042 -44 -1040 c 4
 -52 -1038 -64 -1034 -72 -1028 c 5
 -72 -1122 l 5
 -108 -1122 l 5
 -108 -816 l 5
 -72 -816 l 5
 -72 -840 l 5
 -62 -832 -52 -824 -40 -818 c 4
 -28 -812 -14 -810 0 -810 c 4
 26 -810 46 -820 60 -840 c 4
 74 -860 80 -888 80 -922 c 4
40 -926 m 4
 40 -900 36 -882 28 -868 c 4
 20 -854 6 -846 -12 -846 c 4
 -22 -846 -30 -850 -40 -854 c 4
 -50 -858 -64 -864 -72 -872 c 5
 -72 -998 l 5
 -62 -1002 -52 -1006 -44 -1008 c 4
 -36 -1010 -30 -1010 -20 -1010 c 4
 0 -1010 14 -1004 24 -990 c 4
 34 -976 40 -954 40 -926 c 4
352 -548 m 0
 352 -598 320 -622 284 -634 c 0
 272 -638 256 -640 236 -640 c 2
 148 -640 l 1
 148 -342 l 1
 228 -342 l 2
 250 -342 266 -342 276 -344 c 0
 298 -348 320 -356 328 -376 c 0
 332 -386 336 -398 336 -410 c 0
 336 -424 336 -436 328 -448 c 0
 320 -460 310 -466 296 -472 c 1
 296 -474 l 1
 314 -478 326 -488 336 -500 c 0
 346 -512 352 -528 352 -548 c 0
232 -464 m 2
 272 -464 296 -454 296 -416 c 0
 296 -394 282 -378 260 -378 c 0
 252 -378 242 -376 228 -376 c 2
 188 -376 l 1
 188 -464 l 1
 232 -464 l 2
312 -550 m 0
 312 -526 300 -514 284 -504 c 0
 278 -500 272 -498 264 -498 c 0
 256 -498 246 -496 232 -496 c 2
 188 -496 l 1
 188 -606 l 1
 220 -606 l 2
 252 -606 270 -606 288 -594 c 0
 302 -584 312 -570 312 -550 c 0
332 882 m 1
 296 882 l 1
 296 780 l 1
 260 780 l 1
 260 882 l 1
 128 882 l 1
 128 924 l 1
 260 1078 l 1
 296 1078 l 1
 296 914 l 1
 332 914 l 1
 332 882 l 1
260 914 m 1
 260 1030 l 1
 160 914 l 1
 260 914 l 1
226 -208 m 1
 274 -208 l 1
 274 -260 l 1
 226 -260 l 1
 226 -208 l 1
226 -58 m 1
 274 -58 l 1
 274 -110 l 1
 226 -110 l 1
 226 -58 l 1
226 92 m 1
 274 92 l 1
 274 40 l 1
 226 40 l 1
 226 92 l 1
226 242 m 1
 274 242 l 1
 274 190 l 1
 226 190 l 1
 226 242 l 1
226 392 m 1
 274 392 l 1
 274 340 l 1
 226 340 l 1
 226 392 l 1
226 542 m 1
 274 542 l 1
 274 490 l 1
 226 490 l 1
 226 542 l 1
226 692 m 1
 274 692 l 1
 274 640 l 1
 226 640 l 1
 226 692 l 1
EndSplineSet
Fore
Validated: 1
Substitution2: "sepP4 subtable" sep.4.B.p4.B
EndChar

StartChar: sep.4.A.p4.A
Encoding: 57695 57695 122
Width: 0
VWidth: 0
Flags: HMW
LayerCount: 4
Back
SplineSet
368 -1040 m 5
 468 -742 l 5
 520 -742 l 5
 620 -1040 l 5
 576 -1040 l 5
 548 -956 l 5
 436 -956 l 5
 408 -1040 l 5
 368 -1040 l 5
540 -924 m 5
 492 -782 l 5
 448 -924 l 5
 540 -924 l 5
316 -938 m 5
 280 -938 l 5
 280 -1040 l 5
 244 -1040 l 5
 244 -938 l 5
 112 -938 l 5
 112 -896 l 5
 244 -742 l 5
 280 -742 l 5
 280 -906 l 5
 316 -906 l 5
 316 -938 l 5
244 -906 m 5
 244 -790 l 5
 144 -906 l 5
 244 -906 l 5
68 -922 m 4
 68 -960 58 -990 40 -1012 c 4
 22 -1034 0 -1044 -28 -1044 c 4
 -40 -1044 -48 -1042 -56 -1040 c 4
 -64 -1038 -76 -1034 -84 -1028 c 5
 -84 -1122 l 5
 -120 -1122 l 5
 -120 -816 l 5
 -84 -816 l 5
 -84 -840 l 5
 -74 -832 -64 -824 -52 -818 c 4
 -40 -812 -26 -810 -12 -810 c 4
 14 -810 34 -820 48 -840 c 4
 62 -860 68 -888 68 -922 c 4
28 -926 m 4
 28 -900 24 -882 16 -868 c 4
 8 -854 -6 -846 -24 -846 c 4
 -34 -846 -42 -850 -52 -854 c 4
 -62 -858 -76 -864 -84 -872 c 5
 -84 -998 l 5
 -74 -1002 -64 -1006 -56 -1008 c 4
 -48 -1010 -42 -1010 -32 -1010 c 4
 -12 -1010 2 -1004 12 -990 c 4
 22 -976 28 -954 28 -926 c 4
124 -640 m 1
 224 -342 l 1
 276 -342 l 1
 376 -640 l 1
 332 -640 l 1
 304 -556 l 1
 192 -556 l 1
 164 -640 l 1
 124 -640 l 1
296 -524 m 1
 248 -382 l 1
 204 -524 l 1
 296 -524 l 1
332 882 m 1
 296 882 l 1
 296 780 l 1
 260 780 l 1
 260 882 l 1
 128 882 l 1
 128 924 l 1
 260 1078 l 1
 296 1078 l 1
 296 914 l 1
 332 914 l 1
 332 882 l 1
260 914 m 1
 260 1030 l 1
 160 914 l 1
 260 914 l 1
226 -208 m 1
 274 -208 l 1
 274 -260 l 1
 226 -260 l 1
 226 -208 l 1
226 -58 m 1
 274 -58 l 1
 274 -110 l 1
 226 -110 l 1
 226 -58 l 1
226 92 m 1
 274 92 l 1
 274 40 l 1
 226 40 l 1
 226 92 l 1
226 242 m 1
 274 242 l 1
 274 190 l 1
 226 190 l 1
 226 242 l 1
226 392 m 1
 274 392 l 1
 274 340 l 1
 226 340 l 1
 226 392 l 1
226 542 m 1
 274 542 l 1
 274 490 l 1
 226 490 l 1
 226 542 l 1
226 692 m 1
 274 692 l 1
 274 640 l 1
 226 640 l 1
 226 692 l 1
EndSplineSet
Fore
Validated: 1
EndChar

StartChar: sep.4.A.p4.B
Encoding: 57696 57696 123
Width: 0
VWidth: 0
Flags: HMW
LayerCount: 4
Back
SplineSet
328 -938 m 5
 292 -938 l 5
 292 -1040 l 5
 256 -1040 l 5
 256 -938 l 5
 124 -938 l 5
 124 -896 l 5
 256 -742 l 5
 292 -742 l 5
 292 -906 l 5
 328 -906 l 5
 328 -938 l 5
256 -906 m 5
 256 -790 l 5
 156 -906 l 5
 256 -906 l 5
80 -922 m 4
 80 -960 70 -990 52 -1012 c 4
 34 -1034 12 -1044 -16 -1044 c 4
 -28 -1044 -36 -1042 -44 -1040 c 4
 -52 -1038 -64 -1034 -72 -1028 c 5
 -72 -1122 l 5
 -108 -1122 l 5
 -108 -816 l 5
 -72 -816 l 5
 -72 -840 l 5
 -62 -832 -52 -824 -40 -818 c 4
 -28 -812 -14 -810 0 -810 c 4
 26 -810 46 -820 60 -840 c 4
 74 -860 80 -888 80 -922 c 4
40 -926 m 4
 40 -900 36 -882 28 -868 c 4
 20 -854 6 -846 -12 -846 c 4
 -22 -846 -30 -850 -40 -854 c 4
 -50 -858 -64 -864 -72 -872 c 5
 -72 -998 l 5
 -62 -1002 -52 -1006 -44 -1008 c 4
 -36 -1010 -30 -1010 -20 -1010 c 4
 0 -1010 14 -1004 24 -990 c 4
 34 -976 40 -954 40 -926 c 4
552 -874 m 5
 584 -882 608 -908 608 -948 c 4
 608 -1014 558 -1040 492 -1040 c 6
 404 -1040 l 5
 404 -742 l 5
 484 -742 l 6
 546 -742 592 -752 592 -810 c 4
 592 -842 574 -860 552 -872 c 5
 552 -874 l 5
552 -816 m 4
 552 -778 522 -776 484 -776 c 6
 444 -776 l 5
 444 -864 l 5
 488 -864 l 6
 528 -864 552 -854 552 -816 c 4
568 -950 m 4
 568 -904 536 -896 488 -896 c 6
 444 -896 l 5
 444 -1006 l 5
 476 -1006 l 6
 526 -1006 568 -998 568 -950 c 4
124 -640 m 1
 224 -342 l 1
 276 -342 l 1
 376 -640 l 1
 332 -640 l 1
 304 -556 l 1
 192 -556 l 1
 164 -640 l 1
 124 -640 l 1
296 -524 m 1
 248 -382 l 1
 204 -524 l 1
 296 -524 l 1
332 882 m 1
 296 882 l 1
 296 780 l 1
 260 780 l 1
 260 882 l 1
 128 882 l 1
 128 924 l 1
 260 1078 l 1
 296 1078 l 1
 296 914 l 1
 332 914 l 1
 332 882 l 1
260 914 m 1
 260 1030 l 1
 160 914 l 1
 260 914 l 1
226 -208 m 1
 274 -208 l 1
 274 -260 l 1
 226 -260 l 1
 226 -208 l 1
226 -58 m 1
 274 -58 l 1
 274 -110 l 1
 226 -110 l 1
 226 -58 l 1
226 92 m 1
 274 92 l 1
 274 40 l 1
 226 40 l 1
 226 92 l 1
226 242 m 1
 274 242 l 1
 274 190 l 1
 226 190 l 1
 226 242 l 1
226 392 m 1
 274 392 l 1
 274 340 l 1
 226 340 l 1
 226 392 l 1
226 542 m 1
 274 542 l 1
 274 490 l 1
 226 490 l 1
 226 542 l 1
226 692 m 1
 274 692 l 1
 274 640 l 1
 226 640 l 1
 226 692 l 1
EndSplineSet
Fore
Validated: 1
EndChar

StartChar: sep.4.B.p4.B
Encoding: 57700 57700 124
Width: 0
VWidth: 0
Flags: HMW
LayerCount: 4
Back
SplineSet
328 -938 m 5
 292 -938 l 5
 292 -1040 l 5
 256 -1040 l 5
 256 -938 l 5
 124 -938 l 5
 124 -896 l 5
 256 -742 l 5
 292 -742 l 5
 292 -906 l 5
 328 -906 l 5
 328 -938 l 5
256 -906 m 5
 256 -790 l 5
 156 -906 l 5
 256 -906 l 5
80 -922 m 4
 80 -960 70 -990 52 -1012 c 4
 34 -1034 12 -1044 -16 -1044 c 4
 -28 -1044 -36 -1042 -44 -1040 c 4
 -52 -1038 -64 -1034 -72 -1028 c 5
 -72 -1122 l 5
 -108 -1122 l 5
 -108 -816 l 5
 -72 -816 l 5
 -72 -840 l 5
 -62 -832 -52 -824 -40 -818 c 4
 -28 -812 -14 -810 0 -810 c 4
 26 -810 46 -820 60 -840 c 4
 74 -860 80 -888 80 -922 c 4
40 -926 m 4
 40 -900 36 -882 28 -868 c 4
 20 -854 6 -846 -12 -846 c 4
 -22 -846 -30 -850 -40 -854 c 4
 -50 -858 -64 -864 -72 -872 c 5
 -72 -998 l 5
 -62 -1002 -52 -1006 -44 -1008 c 4
 -36 -1010 -30 -1010 -20 -1010 c 4
 0 -1010 14 -1004 24 -990 c 4
 34 -976 40 -954 40 -926 c 4
552 -874 m 5
 584 -882 608 -908 608 -948 c 4
 608 -1014 558 -1040 492 -1040 c 6
 404 -1040 l 5
 404 -742 l 5
 484 -742 l 6
 546 -742 592 -752 592 -810 c 4
 592 -842 574 -860 552 -872 c 5
 552 -874 l 5
552 -816 m 4
 552 -778 522 -776 484 -776 c 6
 444 -776 l 5
 444 -864 l 5
 488 -864 l 6
 528 -864 552 -854 552 -816 c 4
568 -950 m 4
 568 -904 536 -896 488 -896 c 6
 444 -896 l 5
 444 -1006 l 5
 476 -1006 l 6
 526 -1006 568 -998 568 -950 c 4
352 -548 m 0
 352 -598 320 -622 284 -634 c 0
 272 -638 256 -640 236 -640 c 2
 148 -640 l 1
 148 -342 l 1
 228 -342 l 2
 250 -342 266 -342 276 -344 c 0
 298 -348 320 -356 328 -376 c 0
 332 -386 336 -398 336 -410 c 0
 336 -424 336 -436 328 -448 c 0
 320 -460 310 -466 296 -472 c 1
 296 -474 l 1
 314 -478 326 -488 336 -500 c 0
 346 -512 352 -528 352 -548 c 0
232 -464 m 2
 272 -464 296 -454 296 -416 c 0
 296 -394 282 -378 260 -378 c 0
 252 -378 242 -376 228 -376 c 2
 188 -376 l 1
 188 -464 l 1
 232 -464 l 2
312 -550 m 0
 312 -526 300 -514 284 -504 c 0
 278 -500 272 -498 264 -498 c 0
 256 -498 246 -496 232 -496 c 2
 188 -496 l 1
 188 -606 l 1
 220 -606 l 2
 252 -606 270 -606 288 -594 c 0
 302 -584 312 -570 312 -550 c 0
332 882 m 1
 296 882 l 1
 296 780 l 1
 260 780 l 1
 260 882 l 1
 128 882 l 1
 128 924 l 1
 260 1078 l 1
 296 1078 l 1
 296 914 l 1
 332 914 l 1
 332 882 l 1
260 914 m 1
 260 1030 l 1
 160 914 l 1
 260 914 l 1
226 -208 m 1
 274 -208 l 1
 274 -260 l 1
 226 -260 l 1
 226 -208 l 1
226 -58 m 1
 274 -58 l 1
 274 -110 l 1
 226 -110 l 1
 226 -58 l 1
226 92 m 1
 274 92 l 1
 274 40 l 1
 226 40 l 1
 226 92 l 1
226 242 m 1
 274 242 l 1
 274 190 l 1
 226 190 l 1
 226 242 l 1
226 392 m 1
 274 392 l 1
 274 340 l 1
 226 340 l 1
 226 392 l 1
226 542 m 1
 274 542 l 1
 274 490 l 1
 226 490 l 1
 226 542 l 1
226 692 m 1
 274 692 l 1
 274 640 l 1
 226 640 l 1
 226 692 l 1
EndSplineSet
Fore
Validated: 1
EndChar

StartChar: sep.1.B.p1
Encoding: 57625 57625 125
Width: 0
VWidth: 0
Flags: HMW
LayerCount: 4
Back
SplineSet
453 -1040 m 5
 309 -1040 l 5
 309 -1010 l 5
 363 -1010 l 5
 363 -810 l 5
 309 -810 l 5
 309 -782 l 5
 347 -782 367 -776 369 -742 c 5
 401 -742 l 5
 401 -1010 l 5
 453 -1010 l 5
 453 -1040 l 5
235 -922 m 4
 235 -960 225 -990 207 -1012 c 4
 189 -1034 167 -1044 139 -1044 c 4
 127 -1044 119 -1042 111 -1040 c 4
 103 -1038 91 -1034 83 -1028 c 5
 83 -1122 l 5
 47 -1122 l 5
 47 -816 l 5
 83 -816 l 5
 83 -840 l 5
 93 -832 103 -824 115 -818 c 4
 127 -812 141 -810 155 -810 c 4
 181 -810 201 -820 215 -840 c 4
 229 -860 235 -888 235 -922 c 4
195 -926 m 4
 195 -900 191 -882 183 -868 c 4
 175 -854 161 -846 143 -846 c 4
 133 -846 125 -850 115 -854 c 4
 105 -858 91 -864 83 -872 c 5
 83 -998 l 5
 93 -1002 103 -1006 111 -1008 c 4
 119 -1010 125 -1010 135 -1010 c 4
 155 -1010 169 -1004 179 -990 c 4
 189 -976 195 -954 195 -926 c 4
352 -548 m 0
 352 -598 320 -622 284 -634 c 0
 272 -638 256 -640 236 -640 c 2
 148 -640 l 1
 148 -342 l 1
 228 -342 l 2
 250 -342 266 -342 276 -344 c 0
 298 -348 320 -356 328 -376 c 0
 332 -386 336 -398 336 -410 c 0
 336 -424 336 -436 328 -448 c 0
 320 -460 310 -466 296 -472 c 1
 296 -474 l 1
 314 -478 326 -488 336 -500 c 0
 346 -512 352 -528 352 -548 c 0
232 -464 m 2
 272 -464 296 -454 296 -416 c 0
 296 -394 282 -378 260 -378 c 0
 252 -378 242 -376 228 -376 c 2
 188 -376 l 1
 188 -464 l 1
 232 -464 l 2
312 -550 m 0
 312 -526 300 -514 284 -504 c 0
 278 -500 272 -498 264 -498 c 0
 256 -498 246 -496 232 -496 c 2
 188 -496 l 1
 188 -606 l 1
 220 -606 l 2
 252 -606 270 -606 288 -594 c 0
 302 -584 312 -570 312 -550 c 0
178 1038 m 1
 216.578125 1038 233.80859375 1044.46582031 238 1078 c 1
 270 1078 l 1
 270 810 l 1
 322 810 l 1
 322 780 l 1
 178 780 l 1
 178 810 l 1
 232 810 l 1
 232 1010 l 1
 178 1010 l 1
 178 1038 l 1
226 -208 m 1
 274 -208 l 1
 274 -260 l 1
 226 -260 l 1
 226 -208 l 1
226 -58 m 1
 274 -58 l 1
 274 -110 l 1
 226 -110 l 1
 226 -58 l 1
226 92 m 1
 274 92 l 1
 274 40 l 1
 226 40 l 1
 226 92 l 1
226 242 m 1
 274 242 l 1
 274 190 l 1
 226 190 l 1
 226 242 l 1
226 392 m 1
 274 392 l 1
 274 340 l 1
 226 340 l 1
 226 392 l 1
226 542 m 1
 274 542 l 1
 274 490 l 1
 226 490 l 1
 226 542 l 1
226 692 m 1
 274 692 l 1
 274 640 l 1
 226 640 l 1
 226 692 l 1
EndSplineSet
Fore
Validated: 1
Substitution2: "sepPB subtable" sep.1.B.p1.B
Substitution2: "sepP2 subtable" sep.1.B.p2
EndChar

StartChar: sep.2.A.p1
Encoding: 57629 57629 126
Width: 0
VWidth: 0
Flags: HMW
LayerCount: 4
Back
SplineSet
453 -1040 m 5
 309 -1040 l 5
 309 -1010 l 5
 363 -1010 l 5
 363 -810 l 5
 309 -810 l 5
 309 -782 l 5
 347 -782 367 -776 369 -742 c 5
 401 -742 l 5
 401 -1010 l 5
 453 -1010 l 5
 453 -1040 l 5
235 -922 m 4
 235 -960 225 -990 207 -1012 c 4
 189 -1034 167 -1044 139 -1044 c 4
 127 -1044 119 -1042 111 -1040 c 4
 103 -1038 91 -1034 83 -1028 c 5
 83 -1122 l 5
 47 -1122 l 5
 47 -816 l 5
 83 -816 l 5
 83 -840 l 5
 93 -832 103 -824 115 -818 c 4
 127 -812 141 -810 155 -810 c 4
 181 -810 201 -820 215 -840 c 4
 229 -860 235 -888 235 -922 c 4
195 -926 m 4
 195 -900 191 -882 183 -868 c 4
 175 -854 161 -846 143 -846 c 4
 133 -846 125 -850 115 -854 c 4
 105 -858 91 -864 83 -872 c 5
 83 -998 l 5
 93 -1002 103 -1006 111 -1008 c 4
 119 -1010 125 -1010 135 -1010 c 4
 155 -1010 169 -1004 179 -990 c 4
 189 -976 195 -954 195 -926 c 4
124 -640 m 1
 224 -342 l 1
 276 -342 l 1
 376 -640 l 1
 332 -640 l 1
 304 -556 l 1
 192 -556 l 1
 164 -640 l 1
 124 -640 l 1
296 -524 m 1
 248 -382 l 1
 204 -524 l 1
 296 -524 l 1
240 1084 m 0
 294 1084 330 1056 330 1002 c 0
 330 962 314 940 296 916 c 0
 290 908 282 900 274 892 c 0
 262 878 248 862 232 848 c 0
 216 834 206 822 196 814 c 1
 342 814 l 1
 342 780 l 1
 158 780 l 1
 158 822 l 1
 184 846 206 870 230 894 c 0
 252 918 268 938 276 954 c 0
 284 970 288 984 288 1000 c 0
 288 1032 270 1050 238 1050 c 0
 224 1050 206 1044 196 1040 c 0
 190 1038 184 1036 178 1032 c 0
 172 1028 170 1026 166 1024 c 1
 164 1024 l 1
 164 1066 l 1
 180 1074 214 1084 240 1084 c 0
226 -208 m 1
 274 -208 l 1
 274 -260 l 1
 226 -260 l 1
 226 -208 l 1
226 -58 m 1
 274 -58 l 1
 274 -110 l 1
 226 -110 l 1
 226 -58 l 1
226 92 m 1
 274 92 l 1
 274 40 l 1
 226 40 l 1
 226 92 l 1
226 242 m 1
 274 242 l 1
 274 190 l 1
 226 190 l 1
 226 242 l 1
226 392 m 1
 274 392 l 1
 274 340 l 1
 226 340 l 1
 226 392 l 1
226 542 m 1
 274 542 l 1
 274 490 l 1
 226 490 l 1
 226 542 l 1
226 692 m 1
 274 692 l 1
 274 640 l 1
 226 640 l 1
 226 692 l 1
EndSplineSet
Fore
Validated: 1
Substitution2: "sepPB subtable" sep.2.A.p1.B
Substitution2: "sepPA subtable" sep.2.A.p1.A
Substitution2: "sepP2 subtable" sep.2.A.p2
EndChar

StartChar: sep.2.B.p1
Encoding: 57633 57633 127
Width: 0
VWidth: 0
Flags: HMW
LayerCount: 4
Back
SplineSet
453 -1040 m 5
 309 -1040 l 5
 309 -1010 l 5
 363 -1010 l 5
 363 -810 l 5
 309 -810 l 5
 309 -782 l 5
 347 -782 367 -776 369 -742 c 5
 401 -742 l 5
 401 -1010 l 5
 453 -1010 l 5
 453 -1040 l 5
235 -922 m 4
 235 -960 225 -990 207 -1012 c 4
 189 -1034 167 -1044 139 -1044 c 4
 127 -1044 119 -1042 111 -1040 c 4
 103 -1038 91 -1034 83 -1028 c 5
 83 -1122 l 5
 47 -1122 l 5
 47 -816 l 5
 83 -816 l 5
 83 -840 l 5
 93 -832 103 -824 115 -818 c 4
 127 -812 141 -810 155 -810 c 4
 181 -810 201 -820 215 -840 c 4
 229 -860 235 -888 235 -922 c 4
195 -926 m 4
 195 -900 191 -882 183 -868 c 4
 175 -854 161 -846 143 -846 c 4
 133 -846 125 -850 115 -854 c 4
 105 -858 91 -864 83 -872 c 5
 83 -998 l 5
 93 -1002 103 -1006 111 -1008 c 4
 119 -1010 125 -1010 135 -1010 c 4
 155 -1010 169 -1004 179 -990 c 4
 189 -976 195 -954 195 -926 c 4
352 -548 m 0
 352 -598 320 -622 284 -634 c 0
 272 -638 256 -640 236 -640 c 2
 148 -640 l 1
 148 -342 l 1
 228 -342 l 2
 250 -342 266 -342 276 -344 c 0
 298 -348 320 -356 328 -376 c 0
 332 -386 336 -398 336 -410 c 0
 336 -424 336 -436 328 -448 c 0
 320 -460 310 -466 296 -472 c 1
 296 -474 l 1
 314 -478 326 -488 336 -500 c 0
 346 -512 352 -528 352 -548 c 0
232 -464 m 2
 272 -464 296 -454 296 -416 c 0
 296 -394 282 -378 260 -378 c 0
 252 -378 242 -376 228 -376 c 2
 188 -376 l 1
 188 -464 l 1
 232 -464 l 2
312 -550 m 0
 312 -526 300 -514 284 -504 c 0
 278 -500 272 -498 264 -498 c 0
 256 -498 246 -496 232 -496 c 2
 188 -496 l 1
 188 -606 l 1
 220 -606 l 2
 252 -606 270 -606 288 -594 c 0
 302 -584 312 -570 312 -550 c 0
240 1084 m 0
 294 1084 330 1056 330 1002 c 0
 330 962 314 940 296 916 c 0
 290 908 282 900 274 892 c 0
 262 878 248 862 232 848 c 0
 216 834 206 822 196 814 c 1
 342 814 l 1
 342 780 l 1
 158 780 l 1
 158 822 l 1
 184 846 206 870 230 894 c 0
 252 918 268 938 276 954 c 0
 284 970 288 984 288 1000 c 0
 288 1032 270 1050 238 1050 c 0
 224 1050 206 1044 196 1040 c 0
 190 1038 184 1036 178 1032 c 0
 172 1028 170 1026 166 1024 c 1
 164 1024 l 1
 164 1066 l 1
 180 1074 214 1084 240 1084 c 0
226 -208 m 1
 274 -208 l 1
 274 -260 l 1
 226 -260 l 1
 226 -208 l 1
226 -58 m 1
 274 -58 l 1
 274 -110 l 1
 226 -110 l 1
 226 -58 l 1
226 92 m 1
 274 92 l 1
 274 40 l 1
 226 40 l 1
 226 92 l 1
226 242 m 1
 274 242 l 1
 274 190 l 1
 226 190 l 1
 226 242 l 1
226 392 m 1
 274 392 l 1
 274 340 l 1
 226 340 l 1
 226 392 l 1
226 542 m 1
 274 542 l 1
 274 490 l 1
 226 490 l 1
 226 542 l 1
226 692 m 1
 274 692 l 1
 274 640 l 1
 226 640 l 1
 226 692 l 1
EndSplineSet
Fore
Validated: 1
Substitution2: "sepPB subtable" sep.2.B.p1.B
Substitution2: "sepP2 subtable" sep.2.B.p2
EndChar

StartChar: sep.2.A.p2
Encoding: 57630 57630 128
Width: 0
VWidth: 0
Flags: HMW
LayerCount: 4
Back
SplineSet
463 -1040 m 5
 279 -1040 l 5
 279 -998 l 5
 305 -974 327 -952 351 -926 c 4
 383 -890 409 -864 409 -820 c 4
 409 -788 391 -770 359 -770 c 4
 329 -770 305 -784 287 -796 c 5
 285 -796 l 5
 285 -754 l 5
 301 -746 337 -736 361 -736 c 4
 415 -736 451 -766 451 -818 c 4
 451 -870 421 -900 395 -928 c 4
 375 -950 337 -986 317 -1006 c 5
 463 -1006 l 5
 463 -1040 l 5
225 -922 m 4
 225 -960 215 -990 197 -1012 c 4
 179 -1034 157 -1044 129 -1044 c 4
 117 -1044 109 -1042 101 -1040 c 4
 93 -1038 81 -1034 73 -1028 c 5
 73 -1122 l 5
 37 -1122 l 5
 37 -816 l 5
 73 -816 l 5
 73 -840 l 5
 83 -832 93 -824 105 -818 c 4
 117 -812 131 -810 145 -810 c 4
 171 -810 191 -820 205 -840 c 4
 219 -860 225 -888 225 -922 c 4
185 -926 m 4
 185 -900 181 -882 173 -868 c 4
 165 -854 151 -846 133 -846 c 4
 123 -846 115 -850 105 -854 c 4
 95 -858 81 -864 73 -872 c 5
 73 -998 l 5
 83 -1002 93 -1006 101 -1008 c 4
 109 -1010 115 -1010 125 -1010 c 4
 145 -1010 159 -1004 169 -990 c 4
 179 -976 185 -954 185 -926 c 4
124 -640 m 1
 224 -342 l 1
 276 -342 l 1
 376 -640 l 1
 332 -640 l 1
 304 -556 l 1
 192 -556 l 1
 164 -640 l 1
 124 -640 l 1
296 -524 m 1
 248 -382 l 1
 204 -524 l 1
 296 -524 l 1
240 1084 m 0
 294 1084 330 1056 330 1002 c 0
 330 962 314 940 296 916 c 0
 290 908 282 900 274 892 c 0
 262 878 248 862 232 848 c 0
 216 834 206 822 196 814 c 1
 342 814 l 1
 342 780 l 1
 158 780 l 1
 158 822 l 1
 184 846 206 870 230 894 c 0
 252 918 268 938 276 954 c 0
 284 970 288 984 288 1000 c 0
 288 1032 270 1050 238 1050 c 0
 224 1050 206 1044 196 1040 c 0
 190 1038 184 1036 178 1032 c 0
 172 1028 170 1026 166 1024 c 1
 164 1024 l 1
 164 1066 l 1
 180 1074 214 1084 240 1084 c 0
226 -208 m 1
 274 -208 l 1
 274 -260 l 1
 226 -260 l 1
 226 -208 l 1
226 -58 m 1
 274 -58 l 1
 274 -110 l 1
 226 -110 l 1
 226 -58 l 1
226 92 m 1
 274 92 l 1
 274 40 l 1
 226 40 l 1
 226 92 l 1
226 242 m 1
 274 242 l 1
 274 190 l 1
 226 190 l 1
 226 242 l 1
226 392 m 1
 274 392 l 1
 274 340 l 1
 226 340 l 1
 226 392 l 1
226 542 m 1
 274 542 l 1
 274 490 l 1
 226 490 l 1
 226 542 l 1
226 692 m 1
 274 692 l 1
 274 640 l 1
 226 640 l 1
 226 692 l 1
EndSplineSet
Fore
Validated: 1
Substitution2: "sepPB subtable" sep.2.A.p2.B
Substitution2: "sepPA subtable" sep.2.A.p2.A
Substitution2: "sepP3 subtable" sep.2.A.p3
EndChar

StartChar: sep.2.B.p2
Encoding: 57634 57634 129
Width: 0
VWidth: 0
Flags: HMW
LayerCount: 4
Back
SplineSet
463 -1040 m 5
 279 -1040 l 5
 279 -998 l 5
 305 -974 327 -952 351 -926 c 4
 383 -890 409 -864 409 -820 c 4
 409 -788 391 -770 359 -770 c 4
 329 -770 305 -784 287 -796 c 5
 285 -796 l 5
 285 -754 l 5
 301 -746 337 -736 361 -736 c 4
 415 -736 451 -766 451 -818 c 4
 451 -870 421 -900 395 -928 c 4
 375 -950 337 -986 317 -1006 c 5
 463 -1006 l 5
 463 -1040 l 5
225 -922 m 4
 225 -960 215 -990 197 -1012 c 4
 179 -1034 157 -1044 129 -1044 c 4
 117 -1044 109 -1042 101 -1040 c 4
 93 -1038 81 -1034 73 -1028 c 5
 73 -1122 l 5
 37 -1122 l 5
 37 -816 l 5
 73 -816 l 5
 73 -840 l 5
 83 -832 93 -824 105 -818 c 4
 117 -812 131 -810 145 -810 c 4
 171 -810 191 -820 205 -840 c 4
 219 -860 225 -888 225 -922 c 4
185 -926 m 4
 185 -900 181 -882 173 -868 c 4
 165 -854 151 -846 133 -846 c 4
 123 -846 115 -850 105 -854 c 4
 95 -858 81 -864 73 -872 c 5
 73 -998 l 5
 83 -1002 93 -1006 101 -1008 c 4
 109 -1010 115 -1010 125 -1010 c 4
 145 -1010 159 -1004 169 -990 c 4
 179 -976 185 -954 185 -926 c 4
352 -548 m 0
 352 -598 320 -622 284 -634 c 0
 272 -638 256 -640 236 -640 c 2
 148 -640 l 1
 148 -342 l 1
 228 -342 l 2
 250 -342 266 -342 276 -344 c 0
 298 -348 320 -356 328 -376 c 0
 332 -386 336 -398 336 -410 c 0
 336 -424 336 -436 328 -448 c 0
 320 -460 310 -466 296 -472 c 1
 296 -474 l 1
 314 -478 326 -488 336 -500 c 0
 346 -512 352 -528 352 -548 c 0
232 -464 m 2
 272 -464 296 -454 296 -416 c 0
 296 -394 282 -378 260 -378 c 0
 252 -378 242 -376 228 -376 c 2
 188 -376 l 1
 188 -464 l 1
 232 -464 l 2
312 -550 m 0
 312 -526 300 -514 284 -504 c 0
 278 -500 272 -498 264 -498 c 0
 256 -498 246 -496 232 -496 c 2
 188 -496 l 1
 188 -606 l 1
 220 -606 l 2
 252 -606 270 -606 288 -594 c 0
 302 -584 312 -570 312 -550 c 0
240 1084 m 0
 294 1084 330 1056 330 1002 c 0
 330 962 314 940 296 916 c 0
 290 908 282 900 274 892 c 0
 262 878 248 862 232 848 c 0
 216 834 206 822 196 814 c 1
 342 814 l 1
 342 780 l 1
 158 780 l 1
 158 822 l 1
 184 846 206 870 230 894 c 0
 252 918 268 938 276 954 c 0
 284 970 288 984 288 1000 c 0
 288 1032 270 1050 238 1050 c 0
 224 1050 206 1044 196 1040 c 0
 190 1038 184 1036 178 1032 c 0
 172 1028 170 1026 166 1024 c 1
 164 1024 l 1
 164 1066 l 1
 180 1074 214 1084 240 1084 c 0
226 -208 m 1
 274 -208 l 1
 274 -260 l 1
 226 -260 l 1
 226 -208 l 1
226 -58 m 1
 274 -58 l 1
 274 -110 l 1
 226 -110 l 1
 226 -58 l 1
226 92 m 1
 274 92 l 1
 274 40 l 1
 226 40 l 1
 226 92 l 1
226 242 m 1
 274 242 l 1
 274 190 l 1
 226 190 l 1
 226 242 l 1
226 392 m 1
 274 392 l 1
 274 340 l 1
 226 340 l 1
 226 392 l 1
226 542 m 1
 274 542 l 1
 274 490 l 1
 226 490 l 1
 226 542 l 1
226 692 m 1
 274 692 l 1
 274 640 l 1
 226 640 l 1
 226 692 l 1
EndSplineSet
Fore
Validated: 1
Substitution2: "sepPB subtable" sep.2.B.p2.B
Substitution2: "sepP3 subtable" sep.2.B.p3
EndChar

StartChar: sep.3.A.p1
Encoding: 57637 57637 130
Width: 0
VWidth: 0
Flags: HMW
LayerCount: 4
Back
SplineSet
453 -1040 m 5
 309 -1040 l 5
 309 -1010 l 5
 363 -1010 l 5
 363 -810 l 5
 309 -810 l 5
 309 -782 l 5
 347 -782 367 -776 369 -742 c 5
 401 -742 l 5
 401 -1010 l 5
 453 -1010 l 5
 453 -1040 l 5
235 -922 m 4
 235 -960 225 -990 207 -1012 c 4
 189 -1034 167 -1044 139 -1044 c 4
 127 -1044 119 -1042 111 -1040 c 4
 103 -1038 91 -1034 83 -1028 c 5
 83 -1122 l 5
 47 -1122 l 5
 47 -816 l 5
 83 -816 l 5
 83 -840 l 5
 93 -832 103 -824 115 -818 c 4
 127 -812 141 -810 155 -810 c 4
 181 -810 201 -820 215 -840 c 4
 229 -860 235 -888 235 -922 c 4
195 -926 m 4
 195 -900 191 -882 183 -868 c 4
 175 -854 161 -846 143 -846 c 4
 133 -846 125 -850 115 -854 c 4
 105 -858 91 -864 83 -872 c 5
 83 -998 l 5
 93 -1002 103 -1006 111 -1008 c 4
 119 -1010 125 -1010 135 -1010 c 4
 155 -1010 169 -1004 179 -990 c 4
 189 -976 195 -954 195 -926 c 4
124 -640 m 1
 224 -342 l 1
 276 -342 l 1
 376 -640 l 1
 332 -640 l 1
 304 -556 l 1
 192 -556 l 1
 164 -640 l 1
 124 -640 l 1
296 -524 m 1
 248 -382 l 1
 204 -524 l 1
 296 -524 l 1
294 1008 m 0
 294 1038 272 1050 242 1050 c 0
 220 1050 196 1040 182 1032 c 0
 178 1030 174 1026 170 1024 c 1
 168 1024 l 1
 168 1066 l 1
 186 1074 220 1084 246 1084 c 256
 298 1084 334 1064 334 1012 c 0
 334 976 310 954 280 946 c 1
 280 942 l 1
 294 938 310 934 320 924 c 256
 332 912 340 892 340 868 c 0
 340 838 330 818 314 802 c 0
 298 782 274 774 240 774 c 0
 226 774 210 776 196 780 c 0
 182 784 170 786 160 792 c 1
 160 834 l 1
 162 834 l 1
 178 822 210 808 238 808 c 0
 278 808 300 830 300 872 c 256
 300 912 278 924 238 924 c 2
 220 924 l 1
 220 958 l 1
 234 958 l 2
 252 958 266 962 278 970 c 0
 290 978 294 992 294 1008 c 0
226 -208 m 1
 274 -208 l 1
 274 -260 l 1
 226 -260 l 1
 226 -208 l 1
226 -58 m 1
 274 -58 l 1
 274 -110 l 1
 226 -110 l 1
 226 -58 l 1
226 92 m 1
 274 92 l 1
 274 40 l 1
 226 40 l 1
 226 92 l 1
226 242 m 1
 274 242 l 1
 274 190 l 1
 226 190 l 1
 226 242 l 1
226 392 m 1
 274 392 l 1
 274 340 l 1
 226 340 l 1
 226 392 l 1
226 542 m 1
 274 542 l 1
 274 490 l 1
 226 490 l 1
 226 542 l 1
226 692 m 1
 274 692 l 1
 274 640 l 1
 226 640 l 1
 226 692 l 1
EndSplineSet
Fore
Validated: 1
Substitution2: "sepPB subtable" sep.3.A.p1.B
Substitution2: "sepPA subtable" sep.3.A.p1.A
Substitution2: "sepP2 subtable" sep.3.A.p2
EndChar

